<?xml version="1.0" encoding="utf-8"?>
<!-- Generator: Adobe Illustrator 19.0.0, SVG Export Plug-In . SVG Version: 6.00 Build 0)  -->
<svg version="1.1" id="Layer_1" xmlns="http://www.w3.org/2000/svg" xmlns:xlink="http://www.w3.org/1999/xlink" x="0px" y="0px"
	 width="345px" height="500px" viewBox="-125 170.9 345 500" style="enable-background:new -125 170.9 345 500;"
	 xml:space="preserve">
<style type="text/css">
	.st0{fill:#44B449;}
	.st1{fill:#C0C0C0;}
	.st2{fill:none;stroke:#FF3941;stroke-width:2;stroke-linecap:round;stroke-linejoin:round;}
	.st3{fill:#2B2B2B;}
	.st4{fill:#434343;}
	.st5{fill:#FE7A16;}
	.st6{fill:#818185;}
	.st7{fill:#B8B8B8;}
	.st8{fill:#CC9966;}
	.st9{fill:#C5C5C5;}
	.st10{fill:#FFCC00;}
	.st11{fill:#9E9E9E;}
	.st12{fill:#FFFFFF;}
	.st13{fill:#CCCCCC;}
	.st14{fill:#D35F5F;}
	.st15{fill:#F89393;}
	.st16{fill:#FE6502;}
	.st17{fill:#7A7A7A;}
	.st18{fill:#C03433;}
	.st19{fill:#DB2424;}
	.st20{fill:none;stroke:#FF912C;stroke-width:2;stroke-linecap:round;stroke-linejoin:round;}
	.st21{fill:#EDB66F;}
	.st22{fill:#1D3F6A;}
	.st23{fill:#D0D2D3;}
	.st24{fill:#BE1E2D;}
	.st25{fill:#231F20;}
</style>
<g id="Layer_2_1_">
</g>
<g>
	<polygon class="st0" points="-77,451.7 -77,459.3 -68.5,466.9 -52,452.1 -52,443.9 -68.5,458.8 	"/>
</g>
<g>
	<polygon class="st0" points="-102.6,494.9 -102.6,498.4 -98.5,502 -91.6,495.8 -91.6,492 -98.5,498.2 	"/>
</g>
<g>
	<polygon class="st1" points="-117,451.7 -117,459.3 -108.4,466.9 -92,452.1 -92,443.9 -108.4,458.8 	"/>
</g>
<g>
	<path class="st2" d="M-79.1,366.6l-0.2-0.1l6.1-0.2l-4-2.5c0.1-0.1,11.5,3.2,11.6,2.9c0.1-0.1-9.1-5.7-9.1-5.7
		c0.3-0.5,15.4,5.9,15.4,5.8c0,0-13.2-7.9-13-8.1c0.4-0.6,19.2,8.4,19.5,8l-16.7-10.4c0,0,11.2,3.3,11.3,3.2l-9.6-6"/>
	<g>
		<path class="st3" d="M-78.7,367.3c-0.2,0-0.3,0-0.3,0l0,0C-78.8,367.3-78.7,367.3-78.7,367.3z"/>
		<path class="st3" d="M-78.4,367.1L-78.4,367.1L-78.4,367.1L-78.4,367.1z"/>
		<path class="st3" d="M-78.9,367.3c0,0.1,0.1,0.1,0,0.2c-0.2,0-0.5,0-0.7,0c-0.2,0,0,0.1,0,0.1c-0.2,0-0.3,0-0.3,0
			c-0.1,0.1,0.1,0.1,0.4,0.1C-78.8,367.6-77.1,367.5-78.9,367.3z"/>
		<path class="st3" d="M-77.6,367.2h-0.9c-0.1,0-0.2,0.1-0.1,0.1C-78.2,367.3-77.9,367.2-77.6,367.2z"/>
		<path class="st3" d="M-78.5,364.9c0,0,0,0-0.1,0.1L-78.5,364.9L-78.5,364.9c-0.4,0.4-0.8,0.8-1.3,1.3l-0.1,0.2
			c1.1-1.1,2.2-2.3,3.1-3.3C-77.5,363.8-77.9,364.3-78.5,364.9z"/>
		<path class="st3" d="M-79.9,366.6l-0.1,0.1C-79.9,366.6-79.9,366.6-79.9,366.6z"/>
		<path class="st3" d="M-59.6,356.8c0.7,0.7,1.3,1.3,2,1.9c-1.3-1.3-2.7-2.6-3.7-3.6C-60.8,355.7-60.2,356.2-59.6,356.8z"/>
		<path class="st3" d="M-54.4,361.6c-0.8-0.9-1.5-1.6-2.3-2.2c0.7,0.7,1.4,1.4,2,2.1C-54.6,361.5-54.5,361.6-54.4,361.6z"/>
		<path class="st3" d="M-55.5,360.7c-0.8-0.8-1.5-1.4-2.2-2.1C-56.9,359.4-56.1,360.1-55.5,360.7z"/>
		<path class="st3" d="M-70.7,358.7c-0.5,0.6-0.8,0.9-0.9,1.1c-0.1,0.1-0.1,0.2-0.2,0.4l0.1-0.1c0.5-0.6,1-1.1,1.5-1.7
			c0.2-0.2,0.4-0.5,0.6-0.7C-70,358.1-70.4,358.4-70.7,358.7z"/>
		<path class="st3" d="M-71.6,359.8C-71.1,359-72.3,360.5-71.6,359.8L-71.6,359.8z"/>
		<path class="st3" d="M-69.2,355.6L-69.2,355.6l0.3-0.3C-69,355.4-69.1,355.5-69.2,355.6z"/>
		<path class="st3" d="M-63,354.6c-0.4-0.4-0.9-0.9-1.4-1.4c0.9,0.9,1.8,1.9,2.6,2.6c-0.1-0.1-0.2-0.3-0.3-0.4
			C-62.3,355.3-62.7,355-63,354.6z"/>
		<path class="st3" d="M-72.6,359.3c1.2-1.3,2.3-2.6,3.5-3.8c0.6-0.7,1.3-1.3,1.9-2c0.7-0.7,1.3-1.4,2-2.1c0.6,0.6,1.1,1.1,1.7,1.7
			c0.5,0.5,1,1,1.5,1.4c1.9,1.8,5,5.1,7.1,6.7c-0.2-0.2-0.4-0.4-0.5-0.6c0.3,0.2,0.5,0.5,0.8,0.7c0.8,0.8,1.5,1.5,2.3,2.3
			c1.3,1.3,2.6,2.7,3.9,4c-2.9,0-5.8,0-8.8,0c-0.7,0-1.1,0.1-1.8,0.1c-0.7,0-1.3,0-2,0l0,0c-2.7,0-5.3,0.1-8.1,0.1
			c-1.3,0-2.6,0-3.9,0c-0.5,0-0.5-0.1-0.8-0.1c-1.3-0.1-2.3-0.2-3.7-0.2c0,0,0,0,0-0.1c-0.2,0-0.4,0-0.6,0c0.7-0.2,2.5-0.3,0.6-0.4
			l0,0c0.1,0,0.2,0,0.3,0l0,0l0,0c0.4,0,0.7-0.1,1-0.1H-77c0.1,0,0.1-0.1,0.1-0.1h0.1c0.1,0,0.2,0,0.2,0h0.1
			c0.7-0.1,1.9-0.1,1.7-0.2c-0.2,0-0.7,0-1.3,0h-0.1c0.8,0,0-0.1,0.5-0.2c0.6,0,1.3,0,2,0c2.6,0,4.9,0,7.5-0.1h0.3
			c1.3,0,2.5,0,3.7,0c-0.1,0-0.2,0-0.2,0c1,0,2,0,3,0l3.7-0.1c1,0,2.1,0,3.2-0.1c0.3,0,0.5,0,0.8,0c-1.3-1.3-2.6-2.6-3.9-3.9
			c0.8,0.8,1.6,1.6,2.4,2.4c0.2,0.3,0.5,0.5,0.7,0.8c-0.2-0.3-0.5-0.5-0.7-0.8c-1.4-1.5-2.8-3-4-3.9c-0.1-0.1-0.1-0.1-0.2-0.3
			c-0.8-0.8-1.6-1.7-2.3-2.3c0,0-0.4-0.3-0.3-0.2c-0.7-0.7-1.5-1.5-2.2-2.2c-0.3-0.3-0.6-0.6-0.9-0.8c-0.4-0.4-0.8-0.8-1.3-1.2
			l-0.3-0.3c-0.1-0.1-0.1-0.1-0.1-0.1l0,0l-0.1-0.1l-0.1,0.1v0.1l-0.3,0.3c-0.4,0.4-0.8,0.9-1.2,1.3c-0.8,0.9-1.6,1.8-2.5,2.7
			c-0.7,0.7-1.4,1.4-2.1,2.1c1-1.1,1.9-2.1,2.9-3.2c1-1,1.9-2,2.7-2.8l0.3-0.3c0.1-0.1,0.2-0.2,0.2-0.2c-1,1.1-2.1,2.2-3.1,3.3
			c-0.6,0.6-1.2,1.2-1.8,1.8l0,0l1.3-1.5c0.9-0.9,1.7-1.8,2.4-2.5c0.1-0.1,0.2-0.2,0.2-0.3c0.2-0.2,0.3-0.4,0.5-0.6
			c-0.7,0.7-1.3,1.4-2,2.1l-1.2,1.3c-0.3,0.3-0.5,0.5-0.8,0.8l0.1-0.1c0.2-0.2,0.7-1.1,0.3-0.8c-1.7,1.8-4,4.2-4.2,4.4
			c-0.2,0.1,2.8-3.1,2.6-3c-0.2,0.2-0.3,0.3-0.5,0.5l0.4-0.5c0.3-0.4,0.8-0.8,1-1.1c0.7-0.9,1.7-1.8,2.5-2.8
			c0.5-0.6,1.1-1.4,1.8-2.1c0,0,0.3-0.4,0.2-0.3l0.2-0.3c0.6,0.6,1.2,1.2,1.5,1.4l0,0c0,0,0.1,0.1,0.2,0.2c1,1.1,1.9,1.8,2.9,2.8
			c0.3,0.3,0.7,0.7,1,1c-0.2-0.2-0.5-0.6-0.8-0.8l-0.2-0.2c-0.9-0.8-1.7-1.7-2.6-2.5c-0.1-0.1-0.2-0.2-0.3-0.3l-0.2-0.2h-0.1
			c-0.5-0.5-1-1-1.5-1.4c-0.3,0.4-0.6,0.7-0.9,1c-1.2,1.3-2.6,2.7-3.9,4c0.6-0.7,1.2-1.3,1.8-2c-0.7,0.8-1.5,1.6-2.1,2.3l-0.3,0.3
			l-0.7,0.7c0.2-0.2,0.4-0.4,0.6-0.6l-1.2,1.3c-2.2,2.4-4.5,4.8-6.9,7.2l0.1-0.2c1.1-1.1,2.2-2.3,3.1-3.3c-0.6,0.7-1.1,1.1-1.7,1.8
			c0,0,0,0,0-0.1c-0.4,0.4-0.9,0.9-1.3,1.4l0.4-0.6c0.2-0.3,0.5-0.6,0.9-1c1.5-1.5,2.8-2.9,4.3-4.5c1.3-1.3,2.6-2.6,3.9-3.9
			C-70.4,356.9-71.5,358.1-72.6,359.3z M-74,367.3c0.2,0,0.3,0,0.5,0h-0.1C-73.7,367.3-73.9,367.3-74,367.3z M-70.2,367.3
			c-1.1,0-2.6,0-4,0l0,0C-73,367.4-71.6,367.3-70.2,367.3z M-65.8,367.7L-65.8,367.7L-65.8,367.7L-65.8,367.7z M-54,363
			c0.3,0.2,0.5,0.5,0.8,0.7c0.3,0.3,0.6,0.6,0.8,0.8c0.7,0.8,1.5,1.5,2.3,2.3c0.1,0.1,0.2,0.2,0.3,0.3c-0.5,0-1,0.1-1.7,0.1
			c-1.1,0-1.8,0.1-2.6,0.1h0.6c-0.2,0-0.3,0-0.5,0c-0.1,0-0.2,0-0.4,0h-0.7c-0.4,0-0.9,0-1.5,0c0,0-0.2,0.1-0.3,0.1
			c-0.8,0-1.6,0-2.3,0c-0.8,0-1.6,0-2.3,0.1c-0.2,0-0.5,0.1-0.8,0.1c-0.4,0-0.8,0-1.2,0l0,0c0.3,0,0.7,0,1,0c1,0,2.1-0.1,3.1-0.1
			c2.6-0.1,5.2-0.1,7.8-0.2c0.6,0,1.4-0.1,2-0.1l0,0c-0.8-0.8-1.6-1.6-2.4-2.4c-0.2-0.2-0.4-0.4-0.5-0.5l-0.4-0.4
			c-0.2-0.2-0.5-0.4-0.7-0.6C-53.6,363.4-53.8,363.1-54,363z M-55.9,362.3c0.6,0.6,1.3,1.2,1.9,1.9c0.3,0.3,0.6,0.6,0.9,0.9
			c0.2,0.2,0.4,0.4,0.6,0.6c0.2,0.2,0.4,0.4,0.7,0.7c-0.5,0-1,0.1-1.4,0.1c-0.4,0.1-0.8,0.1-0.5,0.2c0.5-0.1,1.3-0.2,2.3-0.2
			c-1-1-2.1-2.1-2.9-3C-55.4,362.5-56,361.9-55.9,362.3z M-65.1,353.2l0.1,0.1h0.1l0.2,0.2c0.3,0.3,0.5,0.5,0.8,0.8l-0.8-0.7
			l-0.2-0.2l-0.1-0.1L-65.1,353.2z M-60.1,357.2c-0.8-0.7-1.6-1.5-2.4-2.2c-0.8-0.7-1.5-1.5-2.3-2.2c-0.2-0.2-0.3-0.3-0.5-0.5
			c-0.5,0.6-1.7,1.7-2.4,2.6l0,0l0.1-0.1c0.4-0.4,0.8-0.7,1.1-1l-0.1,0.1l0.1-0.1c0.2-0.2,0.5-0.5,0.7-0.7l0.2-0.2l0.3-0.3
			c0.5,0.5,1.1,1,1.6,1.6c0.6,0.6,1.3,1.2,1.9,1.8c0.8,0.7,1.6,1.5,2.4,2.2C-59.6,357.8-59.9,357.5-60.1,357.2z"/>
		<path class="st3" d="M-70.5,357.2l-1.4,1.6c-0.4,0.4-0.7,0.8-1.1,1.2c-1.8,1.9-3.9,4.1-5.8,6.1c0,0.1,0,0.1,0.1,0.1
			c2.2-2.1,4.2-4.4,6.4-6.5v-0.1c0.8-1,2.3-2.5,3.4-3.7c1-1.2,2.2-2.4,3.2-3.6C-67.3,354-68.9,355.6-70.5,357.2z"/>
		<path class="st3" d="M-56.7,359.4c-0.4-0.5-0.9-0.9-1.4-1.4c-1.3-1.3-2.4-2.4-3.6-3.5c0.8,0.9,1.7,1.7,2.5,2.6
			C-58.3,358-57.5,358.7-56.7,359.4z"/>
		<path class="st3" d="M-62.6,353.6c0.3,0.3,0.6,0.6,1,0.9c-1.2-1.2-2.4-2.4-3.6-3.6c-0.3,0.3-0.6,0.6-0.9,0.9c-2,2.2-4,4.3-6,6.5
			c-0.2,0.2-0.4,0.5-0.7,0.7c1.3-1.3,2.5-2.5,3.7-3.8c1.3-1.3,2.6-2.7,3.8-4l1.1,1.1l0.9,0.9c0.6,0.5,1.1,1.1,1.7,1.6l0.2,0.2
			c-1.3-1.3-2.6-2.7-3.9-4c-0.4,0.5-0.9,0.9-1.3,1.4l1.3-1.4c0.5,0.5,1,1,1.5,1.5C-63.4,352.9-63,353.3-62.6,353.6z"/>
		<polygon class="st3" points="-70,356.7 -70.4,357.1 -70.7,357.5 -70.5,357.2 		"/>
		<path class="st3" d="M-66.4,353.8L-66.4,353.8c0.3-0.4,0.6-0.7,0.9-1c0.1-0.1,0.2-0.2,0.3-0.3l0.4,0.3l0.5,0.5
			c-0.3-0.3-0.6-0.6-0.8-0.8C-65.6,352.9-66,353.3-66.4,353.8z"/>
		<path class="st3" d="M-64.4,354.1c0.1,0.1,0.3,0.4,0.5,0.5l0.2,0.2l-0.3-0.3L-64.4,354.1z"/>
		<path class="st3" d="M-57.5,360.8c-2-2-4-3.9-5.9-5.8c-0.1-0.1-0.2-0.2-0.3-0.3c1.2,1.3,2.5,2.6,3.7,3.7c0.2,0.2,0.6,0.5,0.8,0.8
			c1.1,1.1,2.1,2.1,3.2,3.1C-56.5,361.9-57,361.4-57.5,360.8L-57.5,360.8z"/>
	</g>
</g>
<g>
	<path class="st3" d="M-118.7,367.3c-0.2,0-0.3,0-0.3,0l0,0C-118.8,367.3-118.7,367.3-118.7,367.3z"/>
	<path class="st3" d="M-118.4,367.1L-118.4,367.1C-118.5,367.1-118.5,367.1-118.4,367.1L-118.4,367.1z"/>
	<path class="st3" d="M-118.9,367.3c0,0.1,0.1,0.1,0,0.2c-0.2,0-0.5,0-0.6,0c-0.2,0,0,0.1,0,0.1c-0.2,0-0.3,0-0.3,0
		c-0.1,0.1,0.1,0.1,0.4,0.1C-118.8,367.6-117.1,367.5-118.9,367.3z"/>
	<path class="st3" d="M-117.7,367.2h-0.8c-0.1,0-0.2,0.1-0.1,0.1C-118.2,367.3-117.9,367.2-117.7,367.2z"/>
	<path class="st3" d="M-118.5,364.9c0,0,0,0-0.1,0.1C-118.6,365-118.6,364.9-118.5,364.9C-118.5,364.9-118.6,364.9-118.5,364.9
		c-0.4,0.4-0.8,0.8-1.2,1.3l-0.1,0.2c1.1-1.1,2.2-2.3,3-3.3C-117.5,363.8-117.9,364.3-118.5,364.9z"/>
	<path class="st3" d="M-119.9,366.6l-0.1,0.1C-119.9,366.6-119.9,366.6-119.9,366.6z"/>
	<path class="st3" d="M-99.8,356.9c0.7,0.7,1.3,1.3,2,1.8c-1.3-1.3-2.7-2.6-3.7-3.6C-100.9,355.7-100.3,356.3-99.8,356.9z"/>
	<path class="st3" d="M-94.6,361.6c-0.8-0.9-1.5-1.6-2.3-2.2c0.7,0.7,1.4,1.4,2,2C-94.7,361.5-94.6,361.6-94.6,361.6z"/>
	<path class="st3" d="M-95.6,360.7c-0.8-0.8-1.5-1.4-2.2-2C-97,359.4-96.3,360.1-95.6,360.7z"/>
	<path class="st3" d="M-110.8,358.7c-0.5,0.6-0.8,0.9-0.9,1.1c-0.1,0.1-0.1,0.2-0.2,0.4l0.1-0.1c0.5-0.6,1-1.1,1.5-1.7
		c0.2-0.2,0.4-0.5,0.5-0.7C-110.1,358-110.5,358.4-110.8,358.7z"/>
	<path class="st3" d="M-111.7,359.8C-111.2,358.9-112.4,360.5-111.7,359.8L-111.7,359.8z"/>
	<path class="st3" d="M-109.3,355.5L-109.3,355.5l0.3-0.3C-109.1,355.3-109.2,355.4-109.3,355.5z"/>
	<path class="st3" d="M-103.2,354.7c-0.4-0.4-0.9-0.9-1.4-1.3c0.9,0.9,1.8,1.8,2.6,2.6c-0.1-0.1-0.2-0.3-0.3-0.4
		C-102.5,355.3-102.8,355-103.2,354.7z"/>
	<path class="st3" d="M-112.7,359.3c1.2-1.3,2.3-2.6,3.5-3.8c1.3-1.4,2.6-2.7,3.8-4c0.6,0.6,1.2,1.2,1.8,1.7c0.5,0.5,1,1,1.5,1.5
		c1.9,1.8,5,5,7.1,6.7c-0.2-0.2-0.4-0.4-0.6-0.6c0.3,0.2,0.5,0.5,0.8,0.7c0.8,0.8,1.5,1.5,2.3,2.3c1.3,1.3,2.6,2.7,3.9,4
		c-2.9,0-5.8,0-8.7,0c-0.6,0-1.1,0.1-1.8,0.1c-0.7,0-1.3,0-1.9,0l0,0c-2.7,0-5.3,0.1-8.1,0.1c-1.3,0-2.6,0-3.9,0
		c-0.5,0-0.5-0.1-0.8-0.1c-1.3-0.1-2.3-0.2-3.7-0.2c0,0,0,0,0-0.1c-0.2,0-0.4,0-0.6,0c0.7-0.2,2.5-0.3,0.6-0.4l0,0
		c0.1,0,0.2,0,0.3,0l0,0l0,0c0.4,0,0.7-0.1,1-0.1h-0.8c0.1,0,0.1-0.1,0.1-0.1h0.1c0.1,0,0.2,0,0.2,0h0.1c0.7-0.1,1.9-0.1,1.7-0.2
		c-0.2,0-0.7,0-1.3,0h-0.1c0.8,0,0-0.1,0.5-0.2c0.6,0,1.3,0,1.9,0c2.6,0,4.9,0,7.5-0.1h0.3c1.3,0,2.4,0,3.7,0c-0.1,0-0.2,0-0.2,0
		c1,0,2,0,3,0l3.7-0.1c1,0,2.1,0,3.1-0.1c0.3,0,0.5,0,0.8,0c-1.3-1.3-2.6-2.6-3.9-3.9c0.8,0.8,1.6,1.6,2.4,2.4
		c0.2,0.3,0.5,0.5,0.7,0.8c-0.3-0.3-0.5-0.5-0.7-0.8c-1.4-1.4-2.8-2.9-4-3.9c-0.1-0.1-0.1-0.1-0.2-0.3c-0.8-0.8-1.6-1.6-2.3-2.3
		c0,0-0.4-0.3-0.3-0.2c-0.7-0.7-1.5-1.5-2.2-2.2c-0.3-0.3-0.6-0.6-0.9-0.8c-0.4-0.4-0.9-0.8-1.3-1.3l-0.3-0.3l-0.1-0.1l0,0l0,0
		l-0.1-0.1l-0.1,0.1v0.1l-0.3,0.3c-0.4,0.4-0.8,0.8-1.2,1.3c-0.8,0.9-1.6,1.7-2.4,2.7c-0.7,0.7-1.4,1.5-2,2.1c1-1.1,1.9-2.1,2.8-3.2
		c1-1,1.9-2,2.6-2.8c0.1-0.2,0.4-0.5,0.4-0.5c-1,1.1-2,2.2-3,3.3c-0.6,0.6-1.2,1.2-1.8,1.8l0,0l1.1-1.6c0.9-0.9,1.7-1.8,2.4-2.5
		c0.1-0.1,0.2-0.2,0.2-0.3c0.2-0.2,0.3-0.4,0.5-0.6c-0.6,0.7-1.3,1.4-1.9,2.1l-1.2,1.3c-0.3,0.3-0.5,0.5-0.8,0.8l0.1-0.1
		c0.2-0.2,0.7-1.1,0.3-0.8c-1.7,1.8-4,4.2-4.1,4.4c-0.2,0.1,2.7-3.1,2.6-3c-0.2,0.2-0.3,0.3-0.5,0.5l0.4-0.5c0.3-0.4,0.8-0.8,1-1.1
		c0.7-0.9,1.6-1.8,2.5-2.8c0.5-0.6,1.1-1.4,1.7-2.1c0,0,0.3-0.4,0.2-0.3l0.2-0.2c0.6,0.6,1.2,1.3,1.6,1.4l0,0c0,0,0.1,0.1,0.2,0.2
		c1,1.1,1.9,1.8,2.9,2.7c0.3,0.3,0.7,0.7,1,1c-0.2-0.2-0.5-0.6-0.8-0.8l-0.2-0.2c-0.9-0.8-1.7-1.7-2.6-2.5c-0.1-0.1-0.2-0.2-0.3-0.3
		l-0.2-0.2h-0.1c-0.5-0.5-1.1-1-1.6-1.5c-0.3,0.3-0.6,0.7-0.9,1c-1.2,1.3-2.6,2.7-3.8,4c0.6-0.7,1.2-1.3,1.8-2
		c-0.7,0.8-1.4,1.6-2.1,2.3l-0.3,0.3l-0.7,0.7c0.2-0.2,0.4-0.4,0.6-0.6l-1.2,1.3c-2.2,2.4-4.5,4.8-6.8,7.2l0.1-0.2
		c1.1-1.1,2.2-2.3,3-3.3c-0.6,0.7-1.1,1.1-1.7,1.8c0,0,0,0,0-0.1c-0.4,0.4-0.8,0.9-1.3,1.4l0.4-0.6c0.2-0.3,0.5-0.6,0.9-1
		c1.5-1.5,2.8-2.9,4.2-4.5c1.3-1.3,2.6-2.6,3.8-3.9C-110.5,356.9-111.6,358.1-112.7,359.3z M-114,367.3c0.2,0,0.3,0,0.5,0h-0.1
		C-113.8,367.3-113.9,367.3-114,367.3z M-110.2,367.3c-1.1,0-2.6,0-4,0l0,0C-113.1,367.4-111.6,367.3-110.2,367.3z M-105.8,367.7
		L-105.8,367.7L-105.8,367.7L-105.8,367.7z M-94.1,363c0.3,0.2,0.5,0.5,0.8,0.7c0.3,0.3,0.6,0.5,0.8,0.8c0.7,0.7,1.5,1.5,2.3,2.3
		c0.1,0.1,0.2,0.2,0.4,0.4c-0.5,0-0.9,0.1-1.6,0.1c-1.1,0-1.8,0.1-2.7,0.1c0,0,0.1,0,0.2,0c0.2,0,0.4,0,0.4,0c-0.2,0-0.4,0-0.5,0
		c-0.1,0-0.2,0-0.4,0h-0.7c-0.4,0-0.9,0-1.5,0c0,0-0.2,0.1-0.3,0.1c-0.8,0-1.6,0-2.3,0c-0.8,0-1.6,0-2.3,0.1c-0.2,0-0.5,0.1-0.8,0.1
		c-0.4,0-0.8,0-1.2,0l0,0c0.3,0,0.6,0,1,0c1,0,2.1-0.1,3.1-0.1c2.6-0.1,5.2-0.1,7.8-0.2c0.6,0,1.3-0.1,2-0.1l0,0
		c-0.8-0.8-1.6-1.6-2.4-2.4c-0.2-0.2-0.4-0.4-0.5-0.5l-0.4-0.4c-0.2-0.2-0.5-0.4-0.7-0.6C-93.7,363.4-94,363.1-94.1,363z M-96,362.3
		c0.6,0.6,1.3,1.2,1.9,1.8c0.3,0.3,0.6,0.6,0.9,0.9c0.2,0.2,0.4,0.4,0.6,0.6c0.2,0.2,0.4,0.4,0.7,0.7c-0.5,0-1,0.1-1.4,0.1
		c-0.4,0.1-0.7,0.1-0.5,0.2c0.4-0.1,1.3-0.2,2.2-0.2c-1-1-2.1-2.1-2.9-3C-95.5,362.5-96.1,361.9-96,362.3z M-105.3,353.2
		c0,0,0.7,0.6,1.2,1.1C-104.6,353.9-105.3,353.2-105.3,353.2z M-100.3,357.3c-0.8-0.7-1.6-1.5-2.4-2.2c-0.8-0.7-1.5-1.5-2.3-2.2
		c-0.2-0.2-0.4-0.3-0.5-0.5c-0.5,0.6-1.7,1.7-2.4,2.5l0,0l0.1-0.1c0.4-0.4,0.7-0.7,1.1-1l-0.1,0.1l0.1-0.1c0.1-0.1,0.2-0.2,0.3-0.3
		c0.1-0.1,0.3-0.3,0.3-0.3l0.2-0.3l0.2-0.2c0.5,0.5,1.1,1.1,1.6,1.6c0.7,0.6,1.3,1.3,1.9,1.8c0.8,0.7,1.6,1.5,2.4,2.2
		C-99.7,357.8-100,357.5-100.3,357.3z"/>
	<path class="st3" d="M-110.6,357.2l-1.4,1.6c-0.4,0.4-0.7,0.8-1.1,1.2c-1.7,1.9-3.9,4.1-5.8,6.2c0,0.1,0,0.1,0.1,0.1
		c2.2-2.1,4.2-4.4,6.3-6.6v-0.1c0.8-1,2.3-2.5,3.4-3.7c1-1.2,2.2-2.5,3.2-3.7C-107.4,353.9-109,355.6-110.6,357.2z"/>
	<path class="st3" d="M-96.8,359.4c-0.4-0.4-0.9-0.9-1.4-1.4c-1.3-1.3-2.4-2.4-3.6-3.5c0.8,0.9,1.7,1.7,2.5,2.6
		C-98.4,358-97.6,358.7-96.8,359.4z"/>
	<path class="st3" d="M-102.8,353.7c0.3,0.3,0.6,0.6,1,0.9c-1.2-1.2-2.4-2.5-3.6-3.7c-0.3,0.3-0.5,0.5-0.8,0.8c-2,2.2-4,4.3-6,6.6
		c-0.2,0.2-0.4,0.5-0.7,0.7c1.2-1.3,2.5-2.5,3.7-3.8c1.3-1.3,2.5-2.7,3.8-4l1.2,1.1l0.9,0.9c0.6,0.5,1.1,1.1,1.7,1.6l0.2,0.2
		c-1.3-1.3-2.7-2.7-4-4c-0.4,0.4-0.8,0.9-1.2,1.3l1.2-1.3c0.5,0.5,1,1,1.5,1.5C-103.5,352.9-103.1,353.3-102.8,353.7z"/>
	<polygon class="st3" points="-110.1,356.7 -110.5,357 -110.8,357.4 -110.6,357.2 	"/>
	<path class="st3" d="M-106.5,353.7L-106.5,353.7c0.3-0.3,0.6-0.7,0.9-1c0.1-0.1,0.1-0.2,0.2-0.3l0.4,0.3l0.5,0.5
		c-0.3-0.3-0.6-0.6-0.9-0.9C-105.8,352.9-106.2,353.3-106.5,353.7z"/>
	<path class="st3" d="M-104.5,354.2c0.1,0.1,0.3,0.3,0.5,0.5l0.2,0.2l-0.3-0.3L-104.5,354.2z"/>
	<path class="st3" d="M-97.6,360.8c-2-2-4-3.9-5.9-5.8c-0.1-0.1-0.2-0.2-0.3-0.2c1.2,1.3,2.5,2.6,3.7,3.7c0.2,0.2,0.6,0.5,0.8,0.8
		c1.1,1.1,2.1,2.1,3.2,3.1C-96.6,361.9-97.1,361.4-97.6,360.8L-97.6,360.8z"/>
</g>
<path class="st4" d="M-74.8,411.1L-74.8,411.1l-0.3-0.3C-75,410.9-74.9,411-74.8,411.1z"/>
<path class="st4" d="M-75,407.4c-0.3,0-0.6,0-0.8,0h-0.6c0.7,0,2.2,0,3.3-0.1c-0.1,0-0.3,0-0.5,0C-74,407.3-74.5,407.4-75,407.4z"/>
<polygon class="st4" points="-73.7,411.9 -73.4,412.2 -73,412.6 -73.2,412.4 "/>
<path class="st4" d="M-76.4,408.5L-76.4,408.5c-0.3-0.2-0.5-0.5-0.7-0.7c-0.1-0.1-0.2-0.2-0.3-0.3c0.3,0,0.6,0,0.9-0.1
	c-0.3,0-0.7,0-1,0C-77.1,407.8-76.7,408.2-76.4,408.5z"/>
<path class="st4" d="M-75.7,408L-75.7,408h0.3H-75.7L-75.7,408z"/>
<g>
	<g>
		<path class="st2" d="M-64.3,421.1l-0.8-0.5l3.2-2l-13.8-8.6c0.1-0.2,16.9,6.7,17.1,6.4c0.1-0.2-15.3-9.5-15.2-9.5
			c0.4-0.6,17.6,7.3,17.7,7.1c0,0-11.5-6.9-11.4-7.1c0.3-0.4,13.5,4.6,13.6,4.4l-6.7-4.2c0,0,8.5,1.6,8.6,1.5l-2.9-1.8"/>
	</g>
	<path class="st4" d="M-62.6,421.4c-0.1,0.1-0.2,0.2-0.2,0.2l0,0C-62.7,421.6-62.6,421.5-62.6,421.4z"/>
	<path class="st4" d="M-62.5,421.1L-62.5,421.1C-62.6,421.1-62.6,421.1-62.5,421.1L-62.5,421.1z"/>
	<path class="st4" d="M-62.8,421.7c0.1,0,0.2,0,0.2,0.2c-0.1,0.1-0.3,0.4-0.5,0.5c-0.1,0.1,0.1,0.1,0.1,0.1
		c-0.1,0.1-0.2,0.2-0.2,0.2c0,0.1,0.1,0,0.3-0.2C-62.5,421.8-61.3,420.4-62.8,421.7z"/>
	<path class="st4" d="M-62,420.6l-0.6,0.6c0,0.1-0.1,0.2,0,0.2C-62.3,421.1-62.1,420.9-62,420.6z"/>
	<path class="st4" d="M-65.7,420.5c0,0,0,0,0.1,0.1C-65.6,420.6-65.6,420.6-65.7,420.5C-65.7,420.6-65.7,420.6-65.7,420.5
		c0.4,0.4,0.8,0.8,1.3,1.3l0.2,0.1c-1.1-1.1-2.2-2.3-3.2-3.1C-66.8,419.5-66.3,419.9-65.7,420.5z"/>
	<path class="st4" d="M-64,422l0.1,0.1C-64,422-64,422-64,422z"/>
	<path class="st4" d="M-71,406.4c1,0,1.8-0.1,2.7-0.2c-1.8,0.1-3.7,0.1-5.2,0.2C-72.6,406.5-71.8,406.5-71,406.4z"/>
	<path class="st4" d="M-64,406c-1.2,0-2.2,0-3.2,0.1c1,0,1.9,0,2.9,0C-64.2,406.1-64.1,406-64,406z"/>
	<path class="st4" d="M-65.3,406.2c-1.1,0-2.1,0.1-3,0.1C-67.3,406.3-66.2,406.2-65.3,406.2z"/>
	<path class="st4" d="M-71.7,412.6c0.6,0.5,0.9,0.8,1.1,1c0.1,0.1,0.2,0.2,0.4,0.3l-0.1-0.1c-0.6-0.5-1.1-1-1.7-1.6
		c-0.2-0.2-0.5-0.4-0.7-0.6C-72.3,411.9-72,412.3-71.7,412.6z"/>
	<path class="st4" d="M-70.6,413.6C-71.5,413.1-69.9,414.3-70.6,413.6L-70.6,413.6z"/>
	<path class="st3" d="M-71.1,414.6c-1.3-1.2-2.5-2.4-3.8-3.6c-1.4-1.4-2.8-2.8-4.2-4.2c0.9,0,1.7,0,2.6-0.1h1.2c0.3,0,0.7,0,1-0.1
		c2.6-0.2,7.2-0.1,9.8-0.4c-0.3,0-0.6,0-0.8,0c0.4,0,0.7-0.1,1.1-0.1c2.2,0,4.3-0.1,6.4-0.1c2.4,0,4.9,0,7.3,0c1.2,0,2.2,0,3.4-0.1
		c0.1,0,0.2,0,0.2,0c-0.8,0.8-1.6,1.7-2.4,2.5l0,0c-1.1,1.2-2.3,2.4-3.4,3.7c-0.9,1-1.8,2-2.8,3c-0.9,0.9-1.8,1.9-2.7,2.8
		c-0.3,0.4-0.4,0.3-0.6,0.5c-1,0.9-1.7,1.5-2.7,2.5l0,0c-0.2,0.2-0.3,0.3-0.4,0.4c0.3-0.7,1.5-2,0.1-0.7l0,0
		c0.1-0.1,0.1-0.2,0.2-0.2l0,0l0,0c0.3-0.3,0.4-0.6,0.6-0.8l-0.6,0.6c0-0.1,0-0.1,0-0.1V420c0.1-0.1,0.2-0.2,0.2-0.2v-0.1
		c0.5-0.6,1.2-1.5,1-1.4c-0.2,0.1-0.5,0.5-0.9,1l-0.1,0.1c0.5-0.6-0.1-0.1,0.2-0.5c0.4-0.5,0.9-0.9,1.3-1.4c1.8-1.9,3.4-3.5,5.1-5.5
		l0.2-0.3c0.9-0.9,1.7-1.8,2.5-2.7c0,0.1-0.1,0.1-0.1,0.2l0.9-0.9c0.3-0.3,0.5-0.5,0.7-0.8l0.2-0.3l-2.6,0.1c-1.2,0-2.3,0-3.5,0.1
		c-2.7,0-5.4,0.1-8.1,0.1c1.1,0,2.3-0.1,3.4-0.1c0.5,0,1,0,1.5,0c-0.5,0-1,0-1.5,0c-2,0-4.1,0-5.6,0.2c-0.2,0-0.2,0-0.3,0
		c-1.1,0-2.3,0-3.3,0.1c0,0-0.5,0-0.3,0.1c-1,0-2.1,0-3.1,0.1c-0.4,0-0.8,0.1-1.3,0.1c-0.8,0-0.7,0-0.9,0.1c-0.1,0-0.2,0-0.3,0.1
		l0.3,0.2l0.1,0.1c0,0,0,0,0.1,0.1l0.3,0.3c0.9,0.8,1.7,1.7,2.6,2.5c0.7,0.7,1.4,1.4,2.1,2.1c-1-1-2.1-2-3.1-2.9
		c-0.5-0.5-1-1-1.4-1.5l-0.3-0.3l-0.2-0.2c-0.1-0.1,0,0-0.1,0c-0.1,0-0.1-0.1-0.2-0.1l-0.2-0.1l0.2,0.2l0.1,0.1l0.4,0.4l1.7,1.6
		c0.6,0.6,1.2,1.2,1.8,1.8l0,0l-1.4-1.4c-0.4-0.5-0.9-0.9-1.3-1.3c-0.2-0.2-0.4-0.4-0.6-0.6l-0.3-0.3l-0.1-0.1l0,0l-0.1-0.1
		l-0.2-0.2l0.4,0.4l1,1l1.3,1.2c0.3,0.3,0.5,0.5,0.8,0.8l-0.1-0.1c-0.2-0.2-1-0.7-0.7-0.3c1.8,1.7,4.1,4.1,4.3,4.2
		c0.1,0.2-3-2.8-2.9-2.7c0.2,0.2,0.3,0.4,0.5,0.5l-0.5-0.4c-0.4-0.3-0.8-0.8-1.1-1c-0.9-0.7-1.8-1.7-2.7-2.6c-0.6-0.5-1.3-1.1-2-1.8
		c-0.1,0-0.4-0.4-0.3-0.3l-0.2-0.3c0.8,0,1.7,0,2-0.1h0.1c0.1,0,0.2,0,0.3,0c0.9,0,1.5,0,2.1,0c0.6,0,1.3-0.1,1.9-0.1
		c0.5,0,1,0,1.5,0c-0.3,0-0.8,0-1.1,0h-0.3c-1.2,0-2.4,0.1-3.6,0.1c-0.1,0-0.3,0-0.4,0s-0.2,0-0.3,0h-0.1c-0.7,0-1.4,0.1-2.1,0.1
		c0.4,0.3,0.7,0.7,1.1,1c1.3,1.2,2.6,2.6,3.9,4c-0.7-0.6-1.3-1.2-2-1.9c0.8,0.8,1.6,1.5,2.3,2.2l0.3,0.3l0.7,0.7
		c-0.2-0.2-0.4-0.4-0.6-0.7l1.3,1.2c2.3,2.3,4.7,4.6,7,7l-0.2-0.1c-1.1-1.1-2.2-2.3-3.2-3.1c0.6,0.6,1.1,1.1,1.7,1.7c0,0,0,0-0.1,0
		c0.4,0.4,0.9,0.9,1.3,1.3l-0.6-0.4c-0.3-0.2-0.6-0.6-1-0.9c-1.5-1.5-2.9-2.9-4.4-4.4c-1.3-1.3-2.6-2.6-3.9-3.9
		C-73.5,412.3-72.3,413.4-71.1,414.6z M-59.4,418.1c0.1-0.1,0.2-0.3,0.3-0.4h-0.1C-59.2,417.9-59.3,418-59.4,418.1z M-56.7,415.4
		c-0.8,0.8-1.8,1.9-2.7,2.9l0,0C-58.6,417.5-57.7,416.4-56.7,415.4z M-53.3,412.4L-53.3,412.4L-53.3,412.4L-53.3,412.4z
		 M-62.6,406.7c1.3-0.1,2.9-0.1,4.6-0.1c0.5,0,1-0.1,1.6-0.1c0.8,0,1.3-0.1,2-0.1h-0.5c0.6,0,1,0,1.5,0c0.2,0,0.5,0,0.7,0
		c0.1,0,0.2,0,0.4,0c0.2,0,0.4,0,0.6,0c0,0,0.3-0.1,0.5-0.1c1.3,0,2.6,0,3.7,0l0,0c-0.9,0.9-1.8,1.9-2.5,2.7
		c-0.1,0.1-0.2,0.2-0.4,0.4c-0.2,0.2-0.3,0.4-0.5,0.5c-0.3,0.3-0.5,0.6-0.8,0.9l0,0c0.2-0.2,0.5-0.5,0.7-0.7
		c1.1-1.2,2.3-2.5,3.4-3.6c0.1-0.1,0.1-0.1,0.2-0.2c-1.8,0-3.6,0.1-5.4,0.1c-1.1,0-2.2,0.1-3.4,0.1c-0.5,0-1,0.1-1.5,0.1
		c-1.5,0.1-3.3,0.1-4.2,0.2C-62.1,406.6-62.5,406.6-62.6,406.7z M-64.4,407.5c1.7-0.1,3.6-0.1,5.2-0.1c1.3,0,5-0.1,4.4-0.4
		C-56.4,407.5-65.6,407.1-64.4,407.5z M-76.2,407.9c0.1,0,0.3-0.1,0.6-0.1L-76.2,407.9z M-71.1,407.1c-1.1,0.1-2.2,0.1-3.3,0.1
		c-0.5,0-1,0-1.5,0l-1.2,0.1c-0.2,0-0.4,0-0.6,0c0.3,0.3,0.7,0.7,1,1c0.2,0.2,0.3,0.3,0.5,0.5c0.2,0.2,0.5,0.4,0.7,0.6l0,0l-0.1-0.1
		c-0.2-0.2-0.4-0.4-0.5-0.6c-0.1-0.1-0.2-0.2-0.3-0.3l0,0l-0.1-0.1c-0.1-0.1-0.2-0.3-0.4-0.4l-0.3-0.2l-0.3-0.3c0.5,0,1.1,0,1.6-0.1
		c0.4,0,0.8,0,1.2,0c0.4,0,0.8,0,1.3-0.1c1.1-0.1,2.2-0.1,3.3-0.2C-70.3,407.1-70.8,407.1-71.1,407.1z"/>
	<path class="st4" d="M-73.2,412.4l1.5,1.5c0.4,0.4,0.8,0.7,1.2,1.1c1.9,1.8,4,4,6,6c0.1,0,0.1,0,0.1-0.1c-2.1-2.2-4.3-4.3-6.4-6.5
		h-0.1c-1-0.8-2.4-2.4-3.7-3.5c-0.6-0.5-1.2-1.1-1.8-1.6s-1.1-1-1.7-1.6C-76.4,409.1-74.8,410.7-73.2,412.4z"/>
	<path class="st4" d="M-67.1,406.1c-0.6,0-1.3,0-1.9,0c-1.8,0-3.4,0.1-5,0.2c1.2,0,2.4,0,3.6,0C-69.3,406.3-68.2,406.2-67.1,406.1z"
		/>
	<path class="st4" d="M-75.4,406.4c0.4,0,0.9,0,1.3-0.1c-2,0-3.9,0-5.9,0.1c0.3,0.3,0.6,0.6,0.9,0.9l2.3,2.2l1.6,1.5
		c1,1,2.1,2,3.1,3c0.2,0.2,0.5,0.5,0.7,0.7c-1.3-1.3-2.5-2.6-3.7-3.8c-1.4-1.4-2.8-2.9-4.2-4.3c1.1,0,2.1,0,3.1-0.1
		c0.5,0,0.9,0,1.4,0c0.4,0,0.8,0,1.2-0.1c0.1,0,0.2,0,0.3,0c-2.1,0-4.2,0-6.2,0.1c0.5,0.5,0.9,0.9,1.4,1.4l-1.4-1.4
		C-78.3,406.5-76.9,406.4-75.4,406.4z"/>
	<path class="st4" d="M-66.7,407.7c-2.9,0.1-5.6,0.2-8.3,0.2c-0.1,0-0.3,0-0.4,0c1.8,0,3.6,0,5.2-0.1c0.3,0,0.8-0.1,1.1-0.1
		c1.5,0,3-0.1,4.5-0.1C-65.2,407.6-65.9,407.7-66.7,407.7L-66.7,407.7z"/>
</g>
<g>
	<path class="st3" d="M-102.8,421.5c-0.1,0.1-0.2,0.2-0.2,0.2l0,0C-102.9,421.6-102.9,421.5-102.8,421.5z"/>
	<path class="st3" d="M-102.8,421.1L-102.8,421.1L-102.8,421.1L-102.8,421.1z"/>
	<path class="st3" d="M-103,421.7c0.1,0,0.2,0,0.2,0.2c-0.1,0.1-0.3,0.3-0.5,0.5c-0.1,0.1,0.1,0.1,0.1,0.1c-0.1,0.1-0.2,0.2-0.2,0.2
		c0,0.1,0.1,0,0.3-0.2C-102.7,421.8-101.6,420.4-103,421.7z"/>
	<path class="st3" d="M-102.2,420.6l-0.6,0.6c0,0.1-0.1,0.2,0,0.2C-102.5,421.1-102.3,420.9-102.2,420.6z"/>
	<path class="st3" d="M-105.9,420.5c0,0,0,0,0.1,0.1C-105.8,420.6-105.8,420.6-105.9,420.5C-105.9,420.5-105.9,420.6-105.9,420.5
		c0.3,0.4,0.8,0.8,1.3,1.3l0.2,0.1c-1.1-1.1-2.2-2.3-3.2-3.1C-107,419.5-106.5,419.9-105.9,420.5z"/>
	<path class="st3" d="M-104.2,422l0.1,0.1C-104.2,422-104.2,421.9-104.2,422z"/>
	<path class="st3" d="M-111,406.4c1,0,1.8-0.1,2.7-0.2c-1.8,0.1-3.7,0.1-5.1,0.2C-112.6,406.5-111.8,406.4-111,406.4z"/>
	<path class="st3" d="M-103.9,406c-1.2,0-2.2,0-3.2,0.1c1,0,1.9,0,2.9,0C-104.1,406.1-104,406-103.9,406z"/>
	<path class="st3" d="M-105.3,406.2c-1.1,0-2,0.1-3,0.1C-107.2,406.3-106.2,406.2-105.3,406.2z"/>
	<path class="st3" d="M-111.8,412.6c0.5,0.5,0.9,0.8,1.1,1c0.1,0.1,0.2,0.2,0.4,0.3l-0.1-0.1c-0.6-0.5-1.1-1.1-1.7-1.6
		c-0.2-0.2-0.5-0.4-0.7-0.6C-112.5,411.9-112.1,412.2-111.8,412.6z"/>
	<path class="st3" d="M-110.8,413.5C-111.6,413-110.1,414.2-110.8,413.5L-110.8,413.5z"/>
	<path class="st3" d="M-114.9,411L-114.9,411l-0.3-0.3C-115.1,410.8-115,410.9-114.9,411z"/>
	<path class="st3" d="M-114.9,407.4c-0.7,0-1.1,0-1.5,0C-115.9,407.4-115.4,407.4-114.9,407.4c0.6,0,1.2,0,1.8-0.1
		c-0.1,0-0.3,0-0.5,0C-113.9,407.3-114.4,407.4-114.9,407.4z"/>
	<path class="st3" d="M-111.3,414.5c-1.2-1.2-2.5-2.4-3.7-3.6c-1.4-1.4-2.8-2.8-4.1-4.2c0.9,0,1.7,0,2.6-0.1c1,0,1.6-0.1,2.3-0.1
		c2.6-0.2,7.1-0.1,9.7-0.4c-0.3,0-0.5,0-0.8,0c0.4,0,0.7-0.1,1.1-0.1c2.2,0,4.3-0.1,6.4-0.1c2.5,0,4.9,0,7.4,0c1.2,0,2.2,0,3.4-0.1
		c-0.9,0.9-1.7,1.8-2.5,2.6l0,0c-1.1,1.2-2.2,2.4-3.4,3.6c-0.9,1-1.8,2-2.8,3c-0.9,0.9-1.8,1.9-2.7,2.8c-0.3,0.3-0.4,0.3-0.6,0.5
		c-1,0.9-1.7,1.5-2.7,2.5l0,0c-0.2,0.2-0.3,0.3-0.4,0.4c0.3-0.7,1.5-2,0.1-0.7l0,0c0.1-0.1,0.1-0.1,0.2-0.2l0,0l0,0
		c0.3-0.3,0.4-0.6,0.6-0.8l-0.6,0.6c0-0.1,0-0.1,0-0.1v-0.1c0.1-0.1,0.2-0.2,0.2-0.2v-0.1c0.5-0.6,1.2-1.5,1-1.4
		c-0.2,0.1-0.5,0.5-0.9,1l-0.1,0.1c0.5-0.6-0.1-0.1,0.2-0.5c0.4-0.5,0.9-0.9,1.3-1.4c1.8-1.9,3.4-3.5,5.1-5.4l0.2-0.3
		c0.9-0.9,1.7-1.8,2.5-2.7c0,0.1-0.1,0.1-0.1,0.2l0.9-0.9c0.3-0.3,0.5-0.5,0.7-0.8l0.3-0.3l-2.5,0.1c-1.1,0-2.3,0-3.5,0.1
		c-2.7,0-5.3,0.1-8.1,0.1c1.1,0,2.3-0.1,3.4-0.1c0.5,0,1,0,1.5,0c-0.5,0-1,0-1.5,0c-2,0-4.1,0-5.6,0.2c-0.2,0-0.2,0-0.3,0
		c-1.1,0-2.3,0-3.2,0.1c0,0-0.5,0-0.3,0.1c-1,0-2.1,0-3.1,0.1c-0.4,0-0.8,0.1-1.3,0.1h-0.4h-0.2c-0.1,0-0.1,0-0.1,0h-0.2
		c-0.1,0-0.2,0-0.3,0.1l0.3,0.2l0.1,0.1c0,0,0,0,0.1,0l0.3,0.3c0.8,0.8,1.7,1.7,2.6,2.5c0.7,0.7,1.4,1.4,2.1,2.1c-1-1-2.1-2-3.1-3
		c-0.9-0.9-2.2-2.3-2.1-2.1l-0.2-0.1l0.2,0.2l0.1,0.1l0,0l0.1,0.1l0.2,0.2l1.7,1.6c0.6,0.6,1.2,1.2,1.7,1.8l0,0l-1.4-1.4
		c-0.4-0.5-0.9-0.9-1.3-1.3c-0.2-0.2-0.4-0.4-0.6-0.6c-0.2-0.2-0.4-0.4-0.5-0.4l-0.1,0l-0.2-0.2l0.4,0.3l1,1l1.3,1.2
		c0.3,0.3,0.5,0.5,0.8,0.8l-0.1-0.1c-0.2-0.2-1-0.7-0.7-0.3c1.7,1.8,4.1,4.1,4.2,4.3c0.1,0.2-3-2.8-2.9-2.7c0.2,0.2,0.3,0.4,0.5,0.5
		l-0.5-0.4c-0.4-0.3-0.8-0.8-1-1c-0.9-0.7-1.7-1.7-2.7-2.6c-0.6-0.5-1.3-1.1-2-1.8c-0.1,0-0.4-0.4-0.3-0.3l-0.2-0.2
		c0.9,0,1.7,0,2.1-0.1h0.1c0.1,0,0.2,0,0.3,0c0.4,0,0.8,0,1.1,0c0.3,0,0.6,0,1,0c0.6,0,1.3-0.1,1.9-0.1c0.5,0,1,0,1.5,0
		c-0.3,0-0.8,0-1.1,0h-0.3c-1.2,0-2.4,0.1-3.6,0.1c-0.1,0-0.3,0-0.4,0s-0.2,0-0.3,0h-0.1c-1.1,0.1-1.8,0.1-2.5,0.1
		c0.3,0.3,0.7,0.6,1,0.9c1.3,1.3,2.6,2.6,3.9,4c-0.7-0.6-1.3-1.2-2-1.9c0.8,0.8,1.5,1.5,2.3,2.2l0.3,0.3l0.7,0.7
		c-0.2-0.2-0.4-0.4-0.6-0.7l1.3,1.2c2.3,2.3,4.7,4.7,7,7l-0.2-0.1c-1.1-1.1-2.2-2.3-3.2-3.1c0.6,0.6,1.1,1.1,1.7,1.7c0,0,0,0-0.1,0
		c0.4,0.4,0.9,0.9,1.3,1.3l-0.6-0.4c-0.3-0.2-0.6-0.6-0.9-0.9c-1.5-1.5-2.8-2.9-4.3-4.4c-1.3-1.3-2.6-2.7-3.8-4
		C-113.6,412.2-112.5,413.4-111.3,414.5z M-99.6,418.1c0.1-0.1,0.2-0.3,0.3-0.4h-0.1C-99.4,417.9-99.5,418-99.6,418.1z M-96.9,415.4
		c-0.8,0.8-1.8,1.9-2.7,2.9l0,0C-98.8,417.5-97.9,416.4-96.9,415.4z M-93.6,412.5L-93.6,412.5L-93.6,412.5L-93.6,412.5z
		 M-102.6,406.7c1.3-0.1,2.9-0.1,4.5-0.1c0.5,0,1-0.1,1.6-0.1c0.8,0,1.3-0.1,1.9-0.1h-0.5c0.6,0,1,0,1.5,0c0.2,0,0.5,0,0.7,0
		c0.1,0,0.3,0,0.4,0c0.2,0,0.4,0,0.6,0c0,0,0.3-0.1,0.5-0.1c1.3,0,2.4,0,3.5,0l-0.1,0.1c-0.9,0.9-1.8,1.9-2.5,2.7
		c-0.1,0.1-0.2,0.2-0.4,0.4c-0.1,0.2-0.3,0.3-0.4,0.5c-0.3,0.3-0.5,0.6-0.8,0.9l0,0c0.2-0.2,0.5-0.5,0.7-0.7
		c1.1-1.2,2.3-2.5,3.3-3.6c0.1-0.1,0.2-0.2,0.3-0.3c-1.8,0-3.6,0.1-5.4,0.1c-1.1,0-2.2,0.1-3.3,0.1c-0.5,0-1,0.1-1.5,0.1
		c-1.5,0.1-3.2,0.1-4.2,0.2C-102.1,406.6-102.4,406.6-102.6,406.7z M-104.4,407.5c1.7-0.1,3.6-0.1,5.2-0.1c1.3,0,5-0.1,4.4-0.4
		C-96.4,407.5-105.5,407.1-104.4,407.5z M-116.3,407.9c0.1,0,0.3-0.1,0.6-0.1L-116.3,407.9z M-111,407.1c-1.1,0.1-2.1,0.1-3.2,0.1
		c-0.5,0-1,0-1.6,0l-1.2,0.1c-0.2,0-0.5,0-0.7,0c0.3,0.3,0.7,0.7,1,1c0.2,0.2,0.3,0.3,0.5,0.5c0.2,0.2,0.4,0.4,0.7,0.6l0,0l-0.1-0.1
		c-0.2-0.2-0.3-0.4-0.5-0.6c-0.1-0.1-0.2-0.2-0.3-0.3l0,0l-0.1-0.1c-0.1-0.1-0.2-0.3-0.4-0.4l-0.3-0.2l-0.2-0.2c0.6,0,1.1,0,1.7-0.1
		c0.4,0,0.9,0,1.3,0s0.8,0,1.3-0.1c1.1-0.1,2.2-0.1,3.2-0.2C-110.2,407.1-110.7,407.1-111,407.1z"/>
	<path class="st3" d="M-113.3,412.3l1.5,1.5c0.4,0.4,0.8,0.7,1.2,1.1c1.9,1.8,4,4,6,6c0.1,0,0.1,0,0.1-0.1c-2.1-2.2-4.3-4.3-6.3-6.5
		h-0.1c-1-0.9-2.4-2.4-3.6-3.5c-0.6-0.5-1.2-1.1-1.8-1.7c-0.6-0.5-1.1-1-1.7-1.6C-116.5,409.1-114.9,410.6-113.3,412.3z"/>
	<path class="st3" d="M-107.1,406.1c-0.6,0-1.3,0-1.9,0c-1.8,0-3.4,0.1-5,0.2c1.2,0,2.4,0,3.6,0
		C-109.2,406.3-108.2,406.2-107.1,406.1z"/>
	<path class="st3" d="M-115.3,406.4c0.4,0,0.9,0,1.3-0.1c-2,0-4,0-6,0.1c0.3,0.3,0.5,0.5,0.8,0.8c1.3,1.3,2.5,2.5,3.8,3.8
		c1,1,2.1,2,3.1,3c0.2,0.2,0.5,0.5,0.7,0.7c-1.2-1.3-2.5-2.5-3.7-3.8c-1.4-1.4-2.8-2.8-4.2-4.2c1.1,0,2.1,0,3.2-0.1
		c0.5,0,0.9,0,1.4,0c0.4,0,0.8,0,1.2-0.1c0.1,0,0.2,0,0.3,0c-2.1,0-4.2,0-6.3,0.1c0.4,0.4,0.9,0.9,1.3,1.3l-1.3-1.3
		C-118.3,406.5-116.8,406.4-115.3,406.4z"/>
	<polygon class="st3" points="-113.8,411.9 -113.5,412.2 -113.1,412.6 -113.3,412.3 	"/>
	<path class="st3" d="M-116.4,408.4L-116.4,408.4c-0.2-0.2-0.5-0.5-0.7-0.7c-0.1-0.1-0.2-0.2-0.3-0.3c0.3,0,0.6,0,1-0.1
		c-0.4,0-0.7,0-1.1,0C-117.1,407.8-116.7,408.2-116.4,408.4z"/>
	<path class="st3" d="M-115.7,408c0,0,0.1,0,0.2,0h0.3H-115.7L-115.7,408z"/>
	<path class="st3" d="M-106.6,407.7c-2.9,0.1-5.6,0.2-8.2,0.2c-0.1,0-0.3,0-0.4,0c1.8,0,3.6,0,5.2-0.1c0.3,0,0.8-0.1,1.1-0.1
		c1.5,0,3-0.1,4.5-0.1C-105.2,407.6-105.9,407.7-106.6,407.7L-106.6,407.7z"/>
</g>
<polygon class="st5" points="-118.5,493.2 -125,500.2 -112,500.2 "/>
<polygon class="st6" points="-117.8,557.4 -124.8,550.9 -124.8,563.9 "/>
<polygon class="st6" points="-70.9,644.5 -77.9,638.1 -77.9,651.1 "/>
<polygon class="st6" points="-118.5,644.6 -111.5,651.1 -111.5,638.1 "/>
<polygon class="st6" points="-98.2,560.9 -91.8,553.9 -104.8,553.9 "/>
<polygon class="st7" points="-118.5,512.2 -125,519.2 -112,519.2 "/>
<circle class="st8" cx="-60.8" cy="575.9" r="3"/>
<circle class="st9" cx="-41" cy="575.9" r="3"/>
<circle class="st10" cx="-21.3" cy="575.9" r="3"/>
<rect x="-77.8" y="537.9" class="st11" width="2" height="2"/>
<rect x="-74.8" y="540.9" class="st11" width="2" height="2"/>
<rect x="-68.8" y="540.9" class="st11" width="2" height="2"/>
<rect x="-62.8" y="540.9" class="st11" width="2" height="2"/>
<rect x="-56.8" y="540.9" class="st11" width="2" height="2"/>
<rect x="-71.7" y="537.9" class="st11" width="2" height="2"/>
<rect x="-65.7" y="537.9" class="st11" width="2" height="2"/>
<rect x="-59.7" y="537.9" class="st11" width="2" height="2"/>
<rect x="-53.6" y="537.9" class="st11" width="2" height="2"/>
<g>
	<path class="st9" d="M-124.8,570.9v31h3.4c0.3-5.5,3.7-10.1,8.3-11.8v-1.2c-1.8-1.2-3-3.3-3-5.6c0-3.7,3-6.7,6.8-6.7
		c3.8,0,6.8,3,6.8,6.7c0,2.3-1.2,4.4-3,5.6v1.2c4.6,1.7,8,6.3,8.3,11.8h3.4v-31H-124.8z"/>
	<path class="st12" d="M-121.3,601.9H-97c-0.3-5.5-3.7-10.1-8.3-11.8v-1.2c1.8-1.2,3-3.3,3-5.6c0-3.7-3-6.7-6.8-6.7
		c-3.8,0-6.8,3-6.8,6.7c0,2.3,1.2,4.4,3,5.6v1.2C-117.5,591.8-121,596.4-121.3,601.9z"/>
</g>
<g>
	<rect x="-64.7" y="510.9" class="st7" width="1.9" height="14"/>
	<rect x="-61.8" y="511.9" class="st13" width="10.1" height="8"/>
</g>
<g>
	<rect x="-64.7" y="491" class="st14" width="1.9" height="14"/>
	<rect x="-61.8" y="492" class="st15" width="10.1" height="8"/>
</g>
<g>
	<rect x="-44.7" y="491" class="st16" width="14" height="14"/>
	<path class="st12" d="M-41.5,500.4c-0.8,0-1.4,0.6-1.4,1.4s0.6,1.4,1.4,1.4s1.4-0.6,1.4-1.4C-40.1,501.1-40.7,500.4-41.5,500.4z
		 M-42.9,496.4v2c1.3,0,2.5,0.5,3.4,1.4s1.4,2.1,1.4,3.4h2C-36,499.4-39.1,496.4-42.9,496.4z M-42.9,492.8v2c4.6,0,8.4,3.8,8.4,8.4
		h2C-32.5,497.5-37.2,492.8-42.9,492.8z"/>
</g>
<g>
	<polygon class="st17" points="-102.4,518 -103.1,521.2 -99.9,520.5 	"/>
	
		<rect x="-100.3" y="514.3" transform="matrix(0.7071 0.7071 -0.7071 0.7071 336.5863 221.0477)" class="st17" width="3.5" height="5.1"/>
	<path class="st17" d="M-95.9,512.2c-0.4,0-0.8,0.1-1.1,0.4l-0.7,0.7l2.5,2.5l0.7-0.7c0.2-0.3,0.4-0.7,0.4-1.1
		C-94.1,513-94.9,512.2-95.9,512.2z"/>
</g>
<g>
	<circle class="st18" cx="-18" cy="622.7" r="6.5"/>
	<path class="st12" d="M-14.8,624.6L-14.8,624.6l-1.9-1.9l1.9-1.9l0,0c0,0,0,0,0-0.1c0-0.1,0-0.2,0-0.2l-0.9-0.9
		c-0.1-0.1-0.1-0.1-0.2,0H-16l0,0l-1.9,1.9l-1.9-1.9l0,0c0,0,0,0-0.1,0s-0.2,0-0.2,0l-0.9,0.9c-0.1,0.1-0.1,0.1,0,0.2v0.1l0,0
		l1.9,1.9l-1.9,1.9l0,0c0,0,0,0,0,0.1c0,0.1,0,0.2,0,0.2l0.9,0.9c0.1,0.1,0.1,0.1,0.2,0h0.1l0,0l1.9-1.9l1.9,1.9l0,0c0,0,0,0,0.1,0
		s0.2,0,0.2,0l0.9-0.9C-14.8,624.9-14.8,624.8-14.8,624.6C-14.8,624.7-14.8,624.7-14.8,624.6z"/>
</g>
<g>
	<circle class="st18" cx="-77.8" cy="517.8" r="6.5"/>
	<path class="st12" d="M-74.6,519.7L-74.6,519.7l-1.9-1.9l1.9-1.9l0,0c0,0,0,0,0-0.1c0-0.1,0-0.2,0-0.2l-0.9-0.9
		c-0.1-0.1-0.1-0.1-0.2,0h-0.1l0,0l-1.9,1.9l-1.9-1.9l0,0c0,0,0,0-0.1,0c-0.1,0-0.2,0-0.2,0l-0.9,0.9c-0.1,0.1-0.1,0.1,0,0.2v0.1
		l0,0l1.9,1.9l-1.9,1.9l0,0c0,0,0,0,0,0.1c0,0.1,0,0.2,0,0.2l0.9,0.9c0.1,0.1,0.1,0.1,0.2,0h0.1l0,0l1.9-1.9l1.9,1.9l0,0
		c0,0,0,0,0.1,0c0.1,0,0.2,0,0.2,0l0.9-0.9C-74.6,519.9-74.6,519.8-74.6,519.7C-74.6,519.8-74.6,519.7-74.6,519.7z"/>
</g>
<g>
	<circle class="st13" cx="-77.8" cy="497" r="6.5"/>
	<path class="st12" d="M-74.6,499L-74.6,499l-1.9-1.9l1.9-1.9l0,0c0,0,0,0,0-0.1s0-0.2,0-0.2l-0.9-0.9c-0.1-0.1-0.1-0.1-0.2,0h-0.1
		l0,0l-2,1.8l-1.9-1.9l0,0c0,0,0,0-0.1,0c-0.1,0-0.2,0-0.2,0l-0.9,0.9c-0.1,0.1-0.1,0.1,0,0.2v0.1l0,0l1.9,1.9l-1.9,1.9l0,0
		c0,0,0,0,0,0.1s0,0.2,0,0.2l0.9,0.9c0.1,0.1,0.1,0.1,0.2,0h0.1l0,0l1.9-1.9l1.9,1.9l0,0c0,0,0,0,0.1,0c0.1,0,0.2,0,0.2,0l0.9-0.9
		C-74.6,499.2-74.6,499.1-74.6,499L-74.6,499z"/>
</g>
<g>
	<path class="st3" d="M-105.9,292.5c0.9,2.9,1.9,5.9,2.8,8.8l0,0c3.1,0,6.1,0,9.2,0c0-0.6,0-1.1,0-1.7c-2.5,1.8-4.9,3.6-7.4,5.4
		c-0.3,0.2-0.1,1.4,0,1.7c1,2.9,1.9,5.9,2.9,8.8c0-0.6,0-1.1,0-1.7c-2.5-1.8-5-3.7-7.5-5.5c-0.4-0.3-6.7,4.9-7.5,5.5
		c0,0.6,0,1.1,0,1.7c1-2.9,1.9-5.9,2.9-8.8c0.1-0.3,0.2-1.5,0-1.7c-2.5-1.8-4.9-3.6-7.4-5.4c0,0.6,0,1.1,0,1.7c3.1,0,6.1,0,9.2,0
		l0,0C-107.7,298.4-106.8,295.5-105.9,292.5c0.2-0.5-0.1-1.4,0-1.6c-0.9,2.9-1.8,5.8-2.8,8.7c-0.2,0.6-8.2,0.1-9.2,0.1
		c-0.1,0-0.2,1.6,0,1.7c2.5,1.8,4.9,3.6,7.4,5.4c0-0.6,0-1.1,0-1.7c-1,2.9-1.9,5.9-2.9,8.8c-0.1,0.2,0.1,1.6,0,1.7
		c2.5-1.8,5-3.7,7.5-5.5c0.4-0.3,6.7,4.9,7.5,5.5c0,0,0.1-1.4,0-1.7c-1-2.9-1.9-5.9-2.9-8.8c0,0.6,0,1.1,0,1.7
		c2.5-1.8,4.9-3.6,7.4-5.4c0.2-0.1,0.1-1.7,0-1.7c-3,0-6.1,0-9.1,0c-0.7,0-2.6-7.8-2.9-8.8C-105.8,291.2-106.1,292.1-105.9,292.5z"
		/>
</g>
<path class="st19" d="M47,304.6c3,0,6,0.1,9,0.3v-4c-2.7,0-5.2,0-7.5,0.2c-6,0.3-3.8,1.6,2.3,2c0,0.1,0,0.3,0,0.3
	C44.8,303.2,47.8,304.1,47,304.6z"/>
<g>
	<path class="st19" d="M45,311.6c2.8,0,5.6,0,8.4,0.1c0.1-0.2,0.1-0.4-0.6-0.6c-0.9-0.3-4.3,0-6.2-0.1c-0.5,0-1.1-0.1-1.6-0.1
		L45,311.6L45,311.6z"/>
	<path class="st19" d="M45,314.8c2,0,3.9,0.1,5.9,0.1c1.1,0,2-0.2,2.7-0.4c-2.8-0.2-5.7-0.4-8.6-0.5L45,314.8L45,314.8z"/>
	<path class="st19" d="M54.7,312.4c-0.5,0-1.4,0-1.4,0c-0.2-0.2-0.1-0.4,0-0.6c-2.8-0.1-5.5-0.2-8.3-0.2v2.4c3,0,5.8,0.1,8.7,0.3
		c0.2,0,0.5,0,0.7,0.1c0.3-0.1,0.6-0.2,0.8-0.3C56.1,313.5,56.6,312.9,54.7,312.4z"/>
</g>
<path class="st3" d="M47,324.6c3,0,6,0.1,9,0.3v-4c-2.7,0-5.2,0-7.5,0.2c-6,0.3-3.8,1.6,2.3,2c0,0.1,0,0.3,0,0.3
	C44.8,323.2,47.8,324.1,47,324.6z"/>
<g>
	<path class="st3" d="M45,331.6c2.8,0,5.6,0,8.4,0.1c0.1-0.2,0.1-0.4-0.6-0.6c-0.9-0.3-4.3,0-6.2-0.1c-0.5,0-1.1-0.1-1.6-0.1
		L45,331.6L45,331.6z"/>
	<path class="st3" d="M45,334.8c2,0,3.9,0.1,5.9,0.1c1.1,0,2-0.2,2.7-0.4c-2.8-0.2-5.7-0.4-8.6-0.5L45,334.8L45,334.8z"/>
	<path class="st3" d="M54.7,332.4c-0.5,0-1.4,0-1.4,0c-0.2-0.2-0.1-0.4,0-0.6c-2.8-0.1-5.5-0.2-8.3-0.2v2.4c3,0,5.8,0.1,8.7,0.3
		c0.2,0,0.5,0,0.7,0.1c0.3-0.1,0.6-0.2,0.8-0.3C56.1,333.5,56.6,332.8,54.7,332.4z"/>
</g>
<path class="st1" d="M54,351.2c-3,0-6-0.1-9-0.3v3c2.7,0,5.2,0,7.5-0.1c6-0.3,3.8-1.2-2.3-1.5c0-0.1,0-0.2,0-0.3
	C56.2,352.1,53.2,351.5,54,351.2z"/>
<g>
	<path class="st1" d="M56,343.4c-2.8,0-5.6,0-8.4-0.1c-0.1,0.2-0.1,0.3,0.6,0.4c0.9,0.2,4.3,0,6.2,0.1c0.5,0,1.1,0,1.6,0.1L56,343.4
		L56,343.4z"/>
	<path class="st1" d="M56,341c-2,0-3.9-0.1-5.9-0.1c-1.1,0-2,0.1-2.7,0.3c2.8,0.2,5.7,0.3,8.6,0.4L56,341L56,341z"/>
	<path class="st1" d="M46.3,342.8c0.5,0,1.4,0,1.4,0c0.2,0.1,0.1,0.3,0,0.4c2.8,0.1,5.5,0.1,8.3,0.2v-1.8c-3,0-5.8-0.1-8.7-0.2
		c-0.2,0-0.5,0-0.7,0c-0.3,0.1-0.6,0.2-0.8,0.2C44.9,341.9,44.4,342.4,46.3,342.8z"/>
</g>
<g>
	<g>
		<g>
			<path class="st20" d="M-64.3,299.2l-3-1.9c0.1-0.1,2.3-2.5,2.3-2.6l-0.8-0.5"/>
			<path class="st20" d="M-72.3,314.7l-1.5-1l2.9-1.9c0-0.1-0.8-0.5-0.8-0.5c0.1-0.1,4-0.8,4.1-0.9c0,0-3.8-2.2-3.7-2.3
				c0,0,11.3,3.8,11.4,3.5c0,0-16.9-10.2-16.7-10.5c0.1-0.2,15.3,5.8,15.4,5.7c0,0-10.6-6.5-10.6-6.6c0.2-0.3,12.1,4.1,12.2,3.9
				c0.1-0.1-8.9-5.6-8.9-5.6c0-0.1,11.9,3.4,11.9,3.4c0.1-0.1-2.8-1.6-2.7-1.7"/>
			<path class="st20" d="M-64.3,299.2l-3-1.9c0.1-0.1,2.3-2.5,2.3-2.6l-0.8-0.5"/>
			<path class="st20" d="M-72.3,314.7l-1.5-1l2.9-1.9c0-0.1-0.8-0.5-0.8-0.5c0.1-0.1,4-0.8,4.1-0.9c0,0-3.8-2.2-3.7-2.3
				c0,0,11.3,3.8,11.4,3.5c0,0-16.9-10.2-16.7-10.5c0.1-0.2,15.3,5.8,15.4,5.7c0,0-10.6-6.5-10.6-6.6c0.2-0.3,12.1,4.1,12.2,3.9
				c0.1-0.1-8.9-5.6-8.9-5.6c0-0.1,11.9,3.4,11.9,3.4c0.1-0.1-2.8-1.6-2.7-1.7"/>
		</g>
		<g>
			<path class="st20" d="M-64.3,299.2l-3-1.9c0.1-0.1,2.3-2.5,2.3-2.6l-0.8-0.5"/>
			<path class="st20" d="M-72.3,314.7l-1.5-1l2.9-1.9c0-0.1-0.8-0.5-0.8-0.5c0.1-0.1,4-0.8,4.1-0.9c0,0-3.8-2.2-3.7-2.3
				c0,0,11.3,3.8,11.4,3.5c0,0-16.9-10.2-16.7-10.5c0.1-0.2,15.3,5.8,15.4,5.7c0,0-10.6-6.5-10.6-6.6c0.2-0.3,12.1,4.1,12.2,3.9
				c0.1-0.1-8.9-5.6-8.9-5.6c0-0.1,11.9,3.4,11.9,3.4c0.1-0.1-2.8-1.6-2.7-1.7"/>
		</g>
	</g>
	<g>
		<path class="st3" d="M-65.9,292.5c0.9,2.9,1.9,5.9,2.8,8.8l0,0c3.1,0,6.1,0,9.2,0c0-0.6,0-1.1,0-1.7c-2.5,1.8-4.9,3.6-7.4,5.4
			c-0.3,0.2-0.1,1.4,0,1.7c1,2.9,1.9,5.9,2.9,8.8c0-0.6,0-1.1,0-1.7c-2.5-1.8-5-3.7-7.5-5.5c-0.4-0.3-6.7,4.9-7.5,5.5
			c0,0.6,0,1.1,0,1.7c1-2.9,1.9-5.9,2.9-8.8c0.1-0.3,0.2-1.5,0-1.7c-2.5-1.8-4.9-3.6-7.4-5.4c0,0.6,0,1.1,0,1.7c3.1,0,6.1,0,9.2,0
			l0,0C-67.7,298.4-66.8,295.5-65.9,292.5c0.2-0.5-0.1-1.4,0-1.6c-0.9,2.9-1.8,5.8-2.8,8.7c-0.2,0.6-8.2,0.1-9.2,0.1
			c-0.1,0-0.2,1.6,0,1.7c2.5,1.8,4.9,3.6,7.4,5.4c0-0.6,0-1.1,0-1.7c-1,2.9-1.9,5.9-2.9,8.8c-0.1,0.2,0.1,1.6,0,1.7
			c2.5-1.8,5-3.7,7.5-5.5c0.4-0.3,6.7,4.9,7.5,5.5c0,0,0.1-1.4,0-1.7c-1-2.9-1.9-5.9-2.9-8.8c0,0.6,0,1.1,0,1.7
			c2.5-1.8,4.9-3.6,7.4-5.4c0.2-0.1,0.1-1.7,0-1.7c-3,0-6.1,0-9.1,0c-0.7,0-2.6-7.8-2.9-8.8C-65.8,291.2-66.1,292.1-65.9,292.5z"/>
	</g>
</g>
<g>
	<g>
		<path class="st3" d="M-44.6,193.5c0-2.5,0.1-8.5,0.1-11c0-3.7,1-5.2,4.9-5.1c28.7,0.6,57.3,0.9,86,1.4c1.4,0,2.8,0.4,4.8,0.7
			c0,3.2,0,6.3,0,9.5h3.1c0-4.2,0-8.4,0-12.7c-5.4-0.3-10.2-0.7-15-0.8c-25.8-0.4-51.6-0.7-77.4-1.1c-8.8-0.1-8.9,0.2-9,9.2
			c0,2.1-0.1,6.6-0.1,8.8L-44.6,193.5z"/>
		<path class="st3" d="M-106.2,205.4l0.4,2.1c0.4,2.5,0.8,4.7,1.1,6.7l2,7.6c0-4.4,0-7.9,0-11.4c0.4-0.1,0.8-0.1,1.2-0.2
			c0.8,4.2,1.6,8.4,2.4,12.6c0.3,0,0.7,0,1,0c0-3.3,0-6.5,0-9.8c0.4-0.1,0.8-0.3,1.2-0.4c1.4,3.1,2.7,6.1,4.7,10.4
			c0-15.4,0-29.3,0-42.1c8.9,0,17.5,0.1,26.2,0c4.7-0.1,7.2,0.6,6.7,6.6c-0.1,0.8-0.1,3.8-0.2,4.6l2.2-1.1c0-1.9,0-5-0.1-6.9
			c-0.1-1.9-2.5-5.1-3.9-5.2c-11-0.3-21.8-0.1-33.1-0.1c0,10.1,0,20.7,0,31.4c-0.5,0.2-1,0.4-1.5,0.6c-0.6-1.6-1.8-3.2-1.9-4.9
			c-0.2-10-0.1-19.9-0.1-30.7c3.4,0.2,7.3,0.6,11.2,0.8c9.4,0.5,18.9,0.7,28.3,1.4c1.6,0.1,4.2,2.1,4.2,3.3c0,3.1,0,6.6,0,9.7
			l2.8-0.5c0-3.1,0-6.3,0-9.4c0-4.1-0.9-6.1-5.8-6.3c-12.8-0.3-25.7-1.3-38.6-2.2c-1.5-0.1-3.1-0.7-4.6-1.1c-0.4,0-0.7,0-1.1,0
			c-7.9,8.4-3.1,18.9-4.7,28.4C-106.4,200.9-106.2,202.5-106.2,205.4z M-101.9,179.2c0.4,9,0.8,17.9,1.3,26.9
			c-0.6,0-1.3,0.1-1.9,0.1c-0.4-9-0.8-17.9-1.3-26.9C-103.1,179.3-102.5,179.3-101.9,179.2z"/>
		<path class="st3" d="M123.2,258.3c-5.8,0.5-11.6,0.6-17.4,0.7c-4.2,0.1-7.5-1.3-9.6-5.4c-1.8-3.7-4.3-7.1-6.9-11.3
			c4.5,0.7,8.4,1.3,12.4,1.9c5.7,1,10.1-2.5,9.5-8.1c-0.4-4.6-0.9-10.3-1.4-14.8h-1.7c0.3,3.5,0.6,8,0.9,11.5
			c0.2,2.5-0.9,5.2-1.5,7.8c-0.9-0.1-1.8-0.3-2.6-0.4c-0.5-5.9-1-10.7-1.5-16.7h-3c0.5,6.1,1,11.2,1.5,17.5
			c-12.2-2.3-23.9-4.4-35.5-6.8c-1.2-0.2-3-1.8-3.1-2.8c-0.3-3-0.5-7-0.8-10h-2.8c0.2,2.9,0.3,6.8,0.5,9.7c0.2,4.6,2.2,6,6.1,6.6
			c2.9,0.4,5.7,1,8.6,1.6c0,7.2,2.5,14.6-4.1,20.7c-2.5,1.1-5,1.7-7.6-1.9c-3.7-5.1-14.1-5.2-19.3-0.8c-1.4,1.2-2.5,2.5-4.1,4.1
			c-0.5-1.6-0.7-3.2-1.4-4.2c-1.9-2.5-2.1-6.6-6.9-6.3c-1.5,0.1-3.5-1.8-4.6-3.3c-1.9-2.7-3.2-5.7-4.7-8.6c2.9-0.8,5.8-1.9,8.8-2.2
			c4.7-0.4,9.5-0.4,14.2-0.3c2.4,0,4.8,0.6,7.9,1.1c2.7-4.5,1.5-12,1.3-17.2h-3c0,3.5,0,9.2,0,12.7c-31.6,0-63.2,0-96.3,0
			c0-4-0.1-8.6,0-13.2c0-0.2,0-0.4,0-0.6h-2.8c0,4.9,0.3,9.8,0.8,14.7c0.5,5.3,4.8,3.3,7.7,3.3c9.1,0.2,18.1,0.1,27,0.1
			c-2.8,4.6-5.8,9.5-8.9,14.4c-1.6,2.5-3.6,4.4-6.3,1c-0.3-0.4-0.9-0.9-1.3-0.8c-5.6,1.2-11.7-0.3-16.9,2.6
			c-1.4,0.8-1.8,3.2-2.9,5.4c-3.1,0-6.8,0-9.3,0c-4.4-8-8.4-15.2-13-23.5c5.3,0,9.7-0.3,14.1,0.1c3.2,0.2,4.9-0.4,4.9-3.9
			c0-2.2,0.6-4.3,0.6-6.5c0-2.3,0-14.1,0-16.4l-3.2,1.1c-0.1,4.2-0.1,16.8-0.2,21c0,0.3-0.3,0.7-0.2,0.5c-7.7,0.6-15.1,1.1-23.4,1.7
			c2.5,6.2,4.5,11.1,6.6,16.2c-1.9,0-39.3,8-39.3,8c-2.7,0.3-6,0.8-9.8,1.2c0.7,3,1.3,5.5,1.9,7.9c81.9,0,163.8,0,245.6,0
			c0.3-1.4,1-2.8,1-4.2C127.7,259.9,126.8,258,123.2,258.3z M-10.7,243c9.2-0.5,18.5-0.2,27.8-0.1c0.9,0,1.9,0.7,2.7,1.9
			c-10.3,0-20.7,0-31,0c0,0.8,0.1,1.7,0.1,2.5c4.6-0.4,9.3-0.8,13.9-1.1c8-0.4,16.3-2.6,23.3,3.3c1,0.8,1.2,2.6,1.7,3.9
			c-1.3-0.3-2.6-0.7-3.9-0.9c-2-0.2-5-1.2-5.8-0.2c-2.2,2.4-3.2,2.1-5.6,0.2c-1.4-1.1-4.5-0.3-6.8,0c-1.2,0.2-3.1,1.7-3.4,1.4
			c-5.4-5.7-12.3-1.9-18.3-3c-0.5-0.1-1-0.3-2.2-0.5C-16.7,246.6-14.6,243.2-10.7,243z M33.2,261c-24.7-0.1-49.4-0.4-74.1-0.7
			c-2.5,0-5.5,0.3-4.6-4.6c7.3,0,14.7,0,22.1,0c17.4,0,34.9-0.1,52.3-0.1c1.6,0,3.4-0.2,4.8,0.4c1.3,0.5,2.1,2,3.2,3.1
			C35.7,259.8,34.5,261.1,33.2,261z M45,261.2c-0.1-0.6-0.3-1.2-0.4-1.8c3.5-1,7-1.9,10.4-2.9c0.8,2.3,1.2,3.5,1.6,4.7
			C52.7,261.2,48.9,261.2,45,261.2z M74.3,257.2c6.2,0.5,11.6,0.9,17,1.3C84.1,261.3,77.2,260.8,74.3,257.2z M78.5,238.7
			c4.8,5.9,9.2,11.3,13.3,16.3C78,256.1,75.7,253.7,78.5,238.7z"/>
		<path class="st3" d="M-60.1,220.3c0,2-0.2,3.9-0.3,6.4c-6.2,0-11.9,0-17.5,0c0,0.6,0,1.2,0,1.7c6.4,0,12.7,0,20.1,0
			c0-3.2,0-6.4,0-9.5l-2.3-1.1C-60.1,218.3-60.1,219.9-60.1,220.3z"/>
	</g>
	<path class="st12" d="M102,240.8c-12.2-2.3-23.9-4.4-35.5-6.8c-1.2-0.2-3-1.8-3.1-2.8c-1.5-17.1-2.8-34.3-4.2-52
		c12.9-1.3,25-2.5,37.5-3.7C98.4,197.1,100.2,218.6,102,240.8z M62.5,200.8c0.9,7.6,1.9,16.6,3.2,25.6c0.2,1.6,1.8,4,3.2,4.4
		c7.1,2.1,14.3,4.1,21.6,5.4c7.4,1.2,8.2-0.4,7.7-7.9c-1.1-15.2-1.9-30.3-2.3-45.5c-0.1-4.2-1.7-5.2-5.1-4.6
		c-3.9,0.6-7.9,1.4-11.8,2.2c-5,1-11.8,0.6-14.3,3.7C62,187.4,63.2,194.1,62.5,200.8z"/>
	<path class="st12" d="M-45.4,255.8c7.3,0,14.7,0,22.1,0c17.4,0,34.9-0.1,52.3-0.1c1.6,0,3.4-0.2,4.8,0.4c1.3,0.5,2.1,2,3.2,3.1
		c-1.2,0.7-2.5,1.9-3.7,1.9c-24.7-0.1-49.4-0.4-74.1-0.7C-43.4,260.3-46.4,260.7-45.4,255.8z"/>
	<path class="st12" d="M-18.3,250.3c1.5-3.7,3.7-7.1,7.6-7.3c9.2-0.5,18.5-0.2,27.8-0.1c0.9,0,1.9,0.7,2.7,1.9c-10.3,0-20.7,0-31,0
		c0,0.8,0.1,1.7,0.1,2.5c4.6-0.4,9.3-0.8,13.9-1.1c8-0.4,16.3-2.6,23.3,3.3c1,0.8,1.2,2.6,1.7,3.9c-1.3-0.3-2.6-0.7-3.9-0.9
		c-2-0.2-5-1.2-5.8-0.2c-2.2,2.4-3.2,2.1-5.6,0.2c-1.4-1.1-4.5-0.3-6.8,0c-1.2,0.2-3.1,1.7-3.4,1.4c-5.4-5.7-12.3-1.9-18.3-3
		C-16.6,250.8-17.1,250.6-18.3,250.3z"/>
	<path class="st12" d="M78.5,238.7c4.8,5.9,9.2,11.3,13.3,16.3C78,256.1,75.7,253.7,78.5,238.7z"/>
	<path class="st12" d="M-101.9,179.2c0.4,9,0.8,17.9,1.3,26.9c-0.6,0-1.3,0.1-1.9,0.1c-0.4-9-0.8-17.9-1.3-26.9
		C-103.1,179.3-102.5,179.3-101.9,179.2z"/>
	<path class="st12" d="M55,256.6c0.8,2.3,1.2,3.5,1.6,4.7c-3.9,0-7.7,0-11.6,0c-0.1-0.6-0.3-1.2-0.4-1.8
		C48.1,258.5,51.6,257.5,55,256.6z"/>
	<path class="st12" d="M91.3,258.5c-7.2,2.9-14.1,2.4-17-1.3C80.5,257.7,85.9,258.1,91.3,258.5z"/>
	<g>
		<g>
			<path class="st21" d="M-78.6,192.8h3.4l-9.2,23.7h-3.4L-78.6,192.8z"/>
			<path class="st21" d="M-75.2,197.8l0.8-2.1l3.5,1.3v-3.8h2.2v3.8l3.4-1.3l0.8,2.1l-3.6,1.2l2.2,3.1l-1.7,1.3l-2.3-3.1l-2.2,3.1
				l-1.9-1.3l2.3-2.9L-75.2,197.8z"/>
		</g>
		<g>
			<path class="st21" d="M151.6,192.8h3.4l-9.2,23.7h-3.4L151.6,192.8z"/>
			<path class="st21" d="M139,199l2.3,2.9l-1.9,1.3l-2.2-3.1l-2.3,3.1l-1.7-1.3l2.3-2.9l-3.6-1.2l0.8-2.1l3.4,1.3v-3.8h2.2v3.8
				l3.5-1.3l0.8,2.1L139,199z"/>
		</g>
		<g>
			<path class="st22" d="M-50.7,192.3c1.1,0.2,2.1,1.3,3.1,3.3c0.3,0.8,0.3,1.4,0.2,2l-0.1,0.3c-0.2,3.1-3.5,6.2-9.8,9.6
				c-1,0.9-1.3,2.2-1.1,4v0.2c-0.1,0.5-0.1,1.6-0.1,3.4c-0.1,1.3-0.7,2-1.6,1.7c-0.8-0.1-1.2-1.3-1.4-3.6c0-1.3,0-2.5,0.2-3.6
				l0.1-0.5l0.4-4.6l0,0c0.1-0.7-0.1-2.5-0.5-5.5c-0.3-0.9-0.3-1.6-0.3-2.2v0.1c0.3-1.7,2-3.3,5-4.4
				C-55.6,191.9-53.6,191.8-50.7,192.3z M-58.9,197.2c-0.1,1,0.2,2.5,0.9,4.6l0.3,2.2c0.1,0.3,0.7,0.4,1.5,0.2
				c0.9-0.2,2.2-1.2,3.7-2.8c1.6-1.3,2.5-2.7,2.6-4.1c0.2-1-0.2-1.9-1.2-2.4c-2.6-0.2-4.4-0.1-5.2,0.2
				C-58.2,195.8-59.1,196.5-58.9,197.2z"/>
			<path class="st22" d="M-36.1,193.3L-36.1,193.3c2.2,0.1,3.5,1.4,4,3.7c0.1,0.9,0.2,1.6,0.1,2.2c-0.1,0.9-0.4,2.5-1,4.9
				c-1.1,1.7-2.3,3.3-3.6,4.5l-2.3,1.6v0.1c0.1,0.4,0.4,0.7,1,0.8c5.1,1.7,7.6,3.5,7.5,5.2c-0.1,0.7-0.3,1-0.7,1
				c-0.5,0-2-0.7-4.3-1.9c-3.3-0.5-5.1-1.1-5.6-1.5c-0.4-0.2-0.8-0.4-1.1-0.4h-0.4c-0.2,0-0.4,1.1-0.5,3.4c-0.2,1-0.7,1.5-1.3,1.4
				c-1.4-0.1-2.1-1.5-1.9-4.4c0.1-1.1,0.1-3.2,0.1-6.1c0.4-7.2,3.6-12,9.5-14.4L-36.1,193.3z M-43,209v0.5h0.7
				c1.5-0.2,3.4-1.7,5.7-4.7c1.5-2.3,2.3-4,2.3-5.1v-0.8c-0.1-1.3-0.9-2.1-2.2-2.2c-2,0.9-3.3,2.2-4.1,4
				C-42.1,204.3-42.9,206.9-43,209z"/>
			<path class="st22" d="M-23.3,192.4c1.1,0.3,2.2,1,3.2,2.1c1.4,1.6,2.1,4,2.1,6.9c0,2.4-0.7,5.2-2.1,8.5c-2,2.7-3.7,4.4-5.1,4.9
				c-0.9,0.2-1.5,0.4-2.2,0.4c-1.3,0-2.5-1.1-3.5-3.3c-0.5-1.6-0.9-3.4-0.9-5.2V206c0-3.7,0.7-7.2,2.1-10.5c0.9-1.3,2.3-2.3,4.3-2.8
				C-24.3,192.5-23.6,192.4-23.3,192.4z M-28.8,206.5c0.2,2.4,0.8,4.1,1.6,5c0.7,0.7,1.3,0.8,2.1,0.2c0.8-0.5,1.7-1.7,2.7-3.6
				c0.9-1.9,1.2-3.8,1.2-5.9c0-2.8-0.7-4.8-1.9-6c-0.2-0.4-0.8-0.7-1.6-0.8c-1,0-2,0.9-2.9,2.7C-28.4,200.7-28.8,203.5-28.8,206.5z"
				/>
			<path class="st22" d="M-1,192.8c2.1,0.2,3.6,1.2,4.6,2.9c0.1,0.4,0.1,0.9,0.1,1.2c-0.1,1-0.8,1.9-1.9,2.6H1.6
				c-0.9-0.1-1.2-0.8-1-2.1c0.1-0.7-0.3-1-1.1-1.1c-2.2-0.2-5.2,1.3-9.4,4.7c-2.1,1.9-3.2,3.5-3.4,5l-0.1,0.9
				c-0.2,1.4,0.9,2.6,3.1,3.6l0.5,0.1c1.9,0.2,4.3-1.1,7.2-3.9c4.6-2,7.1-2.9,7.4-2.9c1.1-0.2,2.2-0.2,3.3-0.1
				c1.3,0.2,2.2,0.7,2.6,1.5v0.5c0,0.2-1.5,0.7-4.4,1.3c-2.5,0.7-3.8,1.1-3.8,1.2l-0.1,1.2c-0.2,2-0.2,4.9,0.1,9h0.2
				c1.2,0.1,1.7,0.7,1.6,1.5c-0.5,1.1-1.2,1.5-2.1,1.4c-1.5-1.1-2.4-2.5-2.8-4.4c-0.2-2.6-0.1-4.9,0.1-6.7l-0.1-0.2
				c-1.5-0.2-3.3,0.4-5.2,1.9c-1.3,0.8-2.5,1.1-3.7,1c-3.6-0.4-5.7-2-6.2-4.7l-0.4-2c0.2-1.9,2.2-4.6,6-8.1c3.8-3.1,6.6-4.8,8-5.1
				C-1.9,192.8-1.4,192.7-1,192.8z"/>
			<path class="st22" d="M19.8,193.3L19.8,193.3c2.2,0.1,3.5,1.4,4,3.7c0.1,0.9,0.2,1.6,0.1,2.2c-0.1,0.9-0.4,2.5-1,4.9
				c-1.1,1.7-2.3,3.3-3.6,4.5l-2.3,1.6v0.1c0.1,0.4,0.4,0.7,1,0.8c5.1,1.7,7.6,3.5,7.5,5.2c-0.1,0.7-0.3,1-0.7,1
				c-0.5,0-2-0.7-4.3-1.9c-3.3-0.5-5.1-1.1-5.6-1.5c-0.4-0.2-0.8-0.4-1.1-0.4h-0.4c-0.2,0-0.4,1.1-0.5,3.4c-0.2,1-0.7,1.5-1.3,1.4
				c-1.4-0.1-2.1-1.5-1.9-4.4c0.1-1.1,0.1-3.2,0.1-6.1c0.4-7.2,3.6-12,9.5-14.4L19.8,193.3z M13,209v0.5h0.7
				c1.5-0.2,3.4-1.7,5.7-4.7c1.5-2.3,2.3-4,2.3-5.1v-0.8c-0.1-1.3-0.9-2.1-2.2-2.2c-2,0.9-3.3,2.2-4.1,4
				C13.8,204.3,13.1,206.9,13,209z"/>
			<path class="st22" d="M32.5,194.1c0.8,0.3,1.2,1.6,1.2,3.9c0.2,3.1,0.7,4.6,1.4,4.7h0.1c0.4,0.1,2.3-0.7,5.7-2.1
				c1.9-0.7,3.2-0.9,4-0.8L45,200v0.1c0.1,0.9-0.1,1.5-0.8,2.1c-4.5,1.2-7.1,2.3-7.9,3.3c-0.4,0.5-0.7,1.1-0.8,1.4
				c0.2,0.7,0.8,1.6,1.7,2.8c1.5,2.2,2.5,3.7,2.9,4.6c-0.4,0.5-0.9,0.8-1.3,0.8c-1-0.8-1.7-1.6-2.4-2.8c-1.1-1.3-2-2.4-2.7-3.4
				c-0.3-0.8-0.9-1.3-1.7-1.4c-1.5-0.4-2.7,0.1-3.4,1.7l-0.3,1.7l-0.2,3.8c0.1,1.2-0.4,1.9-1.7,2.3c-0.1,0-0.3,0.1-0.7,0h-0.2
				c-0.4-0.5-0.5-1.3-0.2-2.3l0.3-3.9c0.5-4.8,2-9.6,4.1-14.6C30.8,194.7,31.6,193.9,32.5,194.1z M31,200.5
				c-0.8,0.9-1.2,2.1-1.3,3.5c0.2,0.3,0.4,0.8,0.8,1.1l0.9-0.1c0.2-0.2,0.4-0.5,0.8-1C32.2,202.4,31.7,201.2,31,200.5z"/>
			<path class="st22" d="M48.3,192.9L48.3,192.9c1.2,0,1.9,0.2,1.9,0.5l0.1,0.3c0.1,1-0.3,3.2-1.3,6.6c0.5,2.8,1.1,4.4,1.6,4.4
				c2.2-0.7,3.7-3.4,4.6-8c0.7-2.3,1.6-3.6,2.9-3.8c0.3,0,0.5,0.3,0.7,1l0.1,0.8c0.1,1.3-0.3,5-1.4,11.4c-0.1,3.9-0.1,6.2,0,6.9
				l0.9,3.3c-0.3,1.1-1,1.6-1.7,1.7h-0.1c-1-0.5-1.5-1.4-1.7-2.7l-0.1-0.5c-0.1-0.7,0-3.3,0.2-8.1l0.4-3.1l-2.1,3.2l-2.8,1.6
				l-2.5-3.3c-0.8,4.5-1,8.4-0.8,11.9c0,1.3-0.2,2-0.8,2.1l-0.7,0.2c-0.8,0.1-1.2-0.2-1.4-1l-0.2-0.9c-0.2-6.2,0.8-13.5,2.9-22.1
				C47.6,194.2,48,193.4,48.3,192.9z"/>
			<path class="st22" d="M66.4,192.9L66.4,192.9c1.2,0,1.9,0.2,1.9,0.5l0.1,0.3c0.1,1-0.3,3.2-1.3,6.6c0.5,2.8,1.1,4.4,1.6,4.4
				c2.2-0.7,3.7-3.4,4.6-8c0.7-2.3,1.6-3.6,2.9-3.8c0.3,0,0.5,0.3,0.7,1l0.1,0.8c0.1,1.3-0.3,5-1.4,11.4c-0.1,3.9-0.1,6.2,0,6.9
				l0.9,3.3c-0.3,1.1-1,1.6-1.7,1.7h-0.1c-1-0.5-1.5-1.4-1.7-2.7l-0.1-0.5c-0.1-0.7,0-3.3,0.2-8.1l0.4-3.1l-2.1,3.2l-2.8,1.6
				l-2.5-3.3c-0.8,4.5-1,8.4-0.8,11.9c0,1.3-0.2,2-0.8,2.1l-0.7,0.2c-0.8,0.1-1.2-0.2-1.4-1l-0.2-0.9c-0.2-6.2,0.8-13.5,2.9-22.1
				C65.5,194.2,65.9,193.4,66.4,192.9z"/>
			<path class="st22" d="M81.4,197.9c1.3,0.1,2.3,1,2.6,2.5c0.1,0.5,0.2,1.1,0.1,1.7v0.1c0,0.4-0.2,1.3-0.5,2.6
				c0,0.7-0.2,1.3-0.5,2.1l0,0c1.9,0.2,3.5-0.9,5.1-3.1c1.1-1.4,2.1-2.2,2.7-2.3c0.2,0,0.4,0.3,0.4,0.8c-0.1,1.4-1.2,3.1-3.2,5.1
				c-1,0.9-2,1.4-3.2,1.7c-1.2,0.4-1.9,0.8-2,0.9v0.2c-0.1,1,0.2,2.1,1,3.3c0.3,0.3,0.7,0.5,1.1,0.5h0.2c1.6,0.1,3.4-0.8,5.3-2.7
				c0.5-0.4,1-0.7,1.2-0.7s0.4,0.3,0.7,0.8c-0.3,1-1.1,2-2.5,2.9c-1.1,0.8-2.7,1.5-4.7,2.3h-0.5c-1.7,0.4-3.3-0.9-4.4-4v-0.5
				l0.2-1.5v-0.2c0-0.3-0.3-0.9-1-1.5c-0.1-0.2-0.1-0.5-0.1-0.8c0-0.4,0.4-1,1.1-1.7l0.2-0.9c-0.2-1.6-0.1-3.3,0.2-4.7
				c0-1,0-1.6,0-2.1C81,198.1,81.1,197.8,81.4,197.9z M91.6,191.7c1.4,0.1,2.1,0.5,2.1,1.2c0,0.3-0.3,0.5-1,0.7
				c-1.5,0.8-2.7,1.3-3.6,1.6c-0.9,0.4-1.5,0.8-2,1.1c-0.4,0.2-1,0.5-1.7,1H85c-1.1-0.3-1.6-0.9-1.6-1.6c0.1-1.4,2.6-2.7,7.5-3.9
				h0.7V191.7z"/>
			<path class="st22" d="M103.5,193.3L103.5,193.3c2.2,0.1,3.5,1.4,4,3.7c0.1,0.9,0.2,1.6,0.1,2.2c-0.1,0.9-0.4,2.5-1,4.9
				c-1.1,1.7-2.3,3.3-3.6,4.5l-2.3,1.6v0.1c0.1,0.4,0.4,0.7,1,0.8c5.1,1.7,7.6,3.5,7.5,5.2c-0.1,0.7-0.3,1-0.7,1
				c-0.5,0-2-0.7-4.3-1.9c-3.3-0.5-5.1-1.1-5.6-1.5c-0.4-0.2-0.8-0.4-1.1-0.4h-0.4c-0.2,0-0.4,1.1-0.5,3.4c-0.2,1-0.7,1.5-1.3,1.4
				c-1.4-0.1-2.1-1.5-1.9-4.4c0.1-1.1,0.1-3.2,0.1-6.1c0.4-7.2,3.6-12,9.5-14.4L103.5,193.3z M96.6,209v0.5h0.7
				c1.5-0.2,3.4-1.7,5.7-4.7c1.5-2.3,2.3-4,2.3-5.1v-0.8c-0.1-1.3-0.9-2.1-2.2-2.2c-2,0.9-3.3,2.2-4.1,4
				C97.5,204.3,96.7,206.9,96.6,209z"/>
			<path class="st22" d="M122.8,195.4L122.8,195.4c1.6,0.2,2.5,1.2,2.9,3.1v0.8v0.2c-0.3,1.3-1,1.9-2.1,1.7c-0.3,0-0.5-0.3-0.7-1
				c-0.2-0.5-0.4-0.9-0.9-1l-0.4-0.1c-1.9-0.1-4.6,1-8.3,3.4c-0.8,0.5-1.2,1-1.2,1.2v0.1c0,0.2,0.3,0.5,1.2,1
				c0.9,0.2,3.5,0.8,7.9,1.5c1.3,0.4,2.4,0.9,3.2,1.3c1.4,1.1,2.1,2.2,1.9,3.4c-0.2,1.9-2.6,3.5-7.2,5.1c-2.2,0.8-4.3,1.1-6.1,0.8
				h-0.2c-1.5-0.2-2.3-0.5-2.5-1.1c-0.3-0.4-0.4-0.8-0.4-1.1c0.3-1.2,1-1.7,2-1.6l2.1,0.8c2.6,0.1,4.9-0.2,6.8-1.1
				c1.5-0.5,2.3-1.2,2.4-2.1c0.1-0.9-0.7-1.4-2.4-1.5h-0.4l-6.6-0.5c-2.3-0.3-3.7-1.1-4.3-2.3c-0.5-0.9-0.8-1.7-0.7-2.6
				c0.3-2.4,3.2-4.7,8.6-7C120.4,195.9,122.1,195.3,122.8,195.4z"/>
		</g>
	</g>
	<path class="st3" d="M59.9,191.2c-0.3-3.3-0.5-8.8-0.8-12.1c12.9-1.3,25-2.5,37.5-3.7c0.4,4.6,0.8,9.1,1.1,13.7h2.9
		c-0.4-4.3-0.7-8.6-1.1-12.9c0.5-0.2,1-0.4,1.5-0.7c1,1.8,2.6,3.5,2.9,5.4c0.3,2.7,0.6,6.6,0.9,9.3h1.3c0-0.2,0-0.4-0.1-0.6
		c0-0.4-0.2-0.7-0.1-1.1c0.8-6.7,0-13.8-6.6-17.5c-0.7,0-1.5,0-2.2,0c-6.9,1.1-13.9,2.3-20.8,3.3c-6.2,0.9-12.5,1.5-18.8,2.3
		c0,4.4-0.1,10.7-0.1,14.7L59.9,191.2L59.9,191.2z"/>
	<g>
		<polygon class="st12" points="-110.8,231.3 -109.7,226.9 -82.9,226.2 -78.4,228.7 -78.4,258.6 -82.6,260.9 -99.6,262 
			-108.5,259.7 -109.5,258 -109.7,247.9 -112.3,246.4 -118,239.6 -117.9,233.8 -112.3,232.7 		"/>
		<path class="st23" d="M-88.8,228c0,0,1,10.5,1.1,14.6c0.1,4-1.1,19.9-1.1,19.9l10.3-2.6l0.1-31.9"/>
		<g>
			<path class="st24" d="M-91.7,216.1c0.2-0.2-0.1-0.2,0.5-0.6c-0.2-0.1,0.4-0.5,0.2-0.7c-0.4-0.2-0.6-0.7-1.2-0.9
				c0.2-0.9-0.4-1-0.5-2.1c-0.5-0.5-0.9-0.9-1-1.7c-0.9,0-0.9-0.7-1.2-1.2s-1-0.9-1.1-1.6c-0.4-0.2-0.9-0.6-1.5-0.9
				c-0.5-0.2-1-0.5-1.6-0.9c-0.9,0.2-1.5,0.4-1.7-0.1c-0.1,0-0.2,0.1-0.4,0.1h-0.1l0,0h-0.1l0,0l0,0l0,0l0,0l0,0l0,0h-0.1
				c-0.1,0.1-0.2,0.1-0.2,0.1c-0.3,0.3-0.7,0.3-0.8,0c-0.2-0.2-0.2,0.6-0.5,0.2c-0.1,0.5-0.2-0.4-0.2,0.4c-0.2-0.6-0.2-0.4-0.6-0.4
				c-0.6,0.9-1.1,0.2-2,0.9c-2,0-4-0.2-6-0.9c-1-0.1-2-0.5-2.7-1l-0.6-0.2l-0.5-0.4c-0.1-0.1-0.2-0.2-0.2-0.2
				c-0.1-0.2-0.2-0.4-0.4-0.5c-0.5,0.5-0.2-0.9-0.9,0c-0.4-0.1,0,0.4-0.4,0.7c0,0.2-0.4,0.6-0.5,0.9c0,0.2-0.1,0.4-0.2,0.7
				c0,0.2-0.1,0.5-0.1,0.7c0,0.5,0.1,1.1,0.4,1.5c0.5,0.1,0.7,0.4,1.1,0.6c0.4,0.3,0.5,0.3,0.7,0.5c0.4,0.2,0.7,0.4,1.2,0.7
				c0.2,0.1,0.4-0.2,0.5-0.4c0.1,0.6,0.9,0.4,1.1,0.9c0.4-0.2,0.6-0.1,0.9,0.2c0.2-0.7,0.5-0.1,0.7,0.2c0-0.4,0.2-0.5,0.4-0.4
				c1.2,0.5,1.8-0.1,3.2,0.2c0.2-0.2,0.6,0,0.9-0.2c0.1,0.6,0.6,0.2,0.9,0.5c0.9,0,1.6-0.2,2.4-0.2c0.5-0.4,1-0.5,1.5-0.6l0.2-0.1
				h0.2l0,0l0,0l0,0l0,0l0,0l0,0c0,0-0.2,0-0.1,0l0,0h0.1c0.2,0,0.6-0.1,0.9-0.2c-0.1,0.7,0.2,0,0.4,0.2c0.1,0.1,0,0.4,0.1,0.5
				c0,0.1,0.2-0.1,0.4-0.1c0.2,0.1,0.2,0.2,0.5,0.4c0.2,0.2,0.6,0.5,0.7,0.6c0.1,0,0.2-0.1,0.2,0c0.1,0-0.1,0.2-0.1,0.2
				c0.2,0.2,0.5,0.4,0.5,0.7c0.6,0.2,0.7,0.9,1.3,1.5c0.1,1,1.1,1.2,1,2.1c0.2,0.1,0.6,0,0.6,0.4c0.6-0.1-0.2,0.4,0,0.6
				c0.5-0.1,0.5,0.5,1,0.5c0.2,0.4,0.5,0.6,1,0.4c0.2-0.1,0.4-0.2,0.4-0.2C-92.5,217.4-92.6,216.6-91.7,216.1z M-97.2,213.3
				c0.1-0.1,0.2-0.1,0.2,0C-97.1,213.5-97.4,213.5-97.2,213.3z"/>
		</g>
		<g>
			<path class="st24" d="M-99.9,221.8c0.2-0.2-0.1-0.2,0.5-0.7c-0.2-0.1,0.4-0.6,0.2-0.9c-0.4-0.2-0.9-0.7-1.5-0.7
				c0.2-0.9-0.6-0.9-0.9-1.8c-0.6-0.4-1-0.6-1.3-1.3c-0.4,0.1-0.6,0-0.9-0.1c-0.2-0.2-0.4-0.4-0.6-0.5c-0.4-0.2-1-0.4-1.3-1
				c-0.4-0.1-0.9-0.2-1.2-0.2c-0.5-0.1-0.9-0.2-1.5-0.5c-0.1,0.1-0.4,0.4-0.7,0.4c-0.2,0-0.2,0-0.5-0.2c-0.2,0.1-0.5,0.2-0.9,0.2
				c-0.1,0-0.2,0.1-0.2,0.1s-0.1,0-0.1-0.1c0,0,0,0,0-0.1l0,0l0,0l0,0l0,0l0,0h-0.1l0,0l0,0l0,0c-0.2-0.2-0.2,0.6-0.5,0.2
				c-0.1,0.5-0.2-0.4-0.2,0.4c-0.2-0.6-0.2-0.4-0.5-0.4c-0.6,1.1-1.1,0.4-1.7,1c-1.7,0.1-3.5,0.1-5.3-0.2c-1.8-0.3-3.2-1.3-3.4-2.3
				c-0.7,0.5-0.2-0.9-1,0c-0.2-0.1,0,0.4-0.4,0.5c0,0.2-0.4,0.6-0.6,0.9c-0.1,0.5-0.4,1-0.5,1.5c0,0.5,0,1,0.2,1.3
				c0.6,0.5,1.1,0.9,1.5,1c0.4,0.2,0.9,0.4,1.3,0.7c0.2,0.2,0.2-0.2,0.4-0.2c0.1,0.6,0.9,0.2,1.1,0.9c0.4-0.1,0.7-0.1,0.9,0.2
				c0.2-0.7,0.4-0.1,0.7,0.2c0-0.4,0.1-0.5,0.2-0.4c1.1,0.4,1.6-0.2,2.8,0.1c0.2-0.4,0.6-0.2,0.9-0.5c0.1,0.6,0.5,0.2,0.7,0.4
				c0.6-0.1,1.2-0.2,1.8-0.2c0.2-0.2,0.4-0.2,0.5-0.4c0.1,0,0.2-0.1,0.2-0.1h0.1l0,0l0,0l0,0l0,0c0.1,0-0.2,0-0.2,0l0,0l0,0l0,0h0.2
				c0.5,0,1,0,1.5-0.2c0.1,0.7,0.2,0.2,0.5,0.2c0.1,0,0.1,0.4,0.2,0.4c0.1,0,0.2-0.2,0.4-0.2c0.2,0.1,0.2,0.2,0.5,0.2
				c0.2,0.1,0.6,0.2,0.9,0.2c0.1,0,0.2-0.1,0.2-0.1c0.1,0-0.1,0.2-0.1,0.2c0.2,0.1,0.6,0.1,0.6,0.4c0.6,0.1,0.9,0.5,1.5,0.7
				c0.2,0.9,1.2,0.6,1.2,1.5c0.2,0.1,0.6-0.1,0.6,0.2c0.5-0.2-0.2,0.4,0,0.5c0.5-0.2,0.5,0.2,0.9,0.2c0.2,0.2,0.4,0.5,0.9,0.2
				c0.2-0.1,0.4-0.2,0.4-0.2C-100.8,223-100.8,222.4-99.9,221.8z M-105.6,220.4C-105.6,220.4-105.4,220.4-105.6,220.4
				C-105.4,220.4-105.6,220.5-105.6,220.4z"/>
		</g>
		<g>
			<path class="st3" d="M-109.2,259.2c-0.9,0.2-0.4-1.3-0.5-2c-0.4-0.2-0.2-1.5-0.5-2c0-0.9-0.2-2.1,0.2-2.7
				c-0.5-1.1-0.2-2.6-0.6-3.9c0-0.2-0.1-0.2-0.1-0.4l0.1,0.1c-0.5,0.1-1,0.1-1.6,0c-0.9-0.2-1.5-0.6-2.2-1.1
				c-1.5-0.9-3.2-2.8-3.9-5.1c-0.3-1-0.6-2.2-0.7-3.5c-0.1-0.6,0-1.1,0-1.6c0-0.2,0-0.5,0.1-0.9c0-0.2,0.1-0.7,0.2-1.1
				c0.1-0.2,0.2-0.6,0.2-0.9c0.1-0.2,0.2-0.5,0.4-0.7c0.2-0.4,0.6-0.9,1.2-1.2c1.2-0.5,2.2-0.6,3.2-0.7c0.9-0.1,1.8,0,2.6-0.1
				c0.1,0,0,0-0.1,0c-0.1,0-0.1,0.1-0.2,0.1h0.1l0,0l0,0c-0.6,0.5-0.2,0.2-0.2,0.2v0.2l-0.1,0.1c0,0.1-0.1,0.2-0.1,0.2l0,0v-0.1
				c0,0,0-0.1,0-0.2c0-0.2,0-0.7,0-1.1c0-0.9-0.1-1.6,0.1-2.4c0-0.2,0.1-0.5,0.1-0.7c0.1-0.2,0.2-0.7,0.2-0.9v-0.1l0,0l0,0l0.1-0.1
				l0,0l0,0c0.1-0.1,0.2-0.2,0.4-0.2c0.2-0.1,0.2-0.1,0.2-0.1l0.2-0.1c0.2-0.1,0.4-0.1,0.7-0.2c0.9-0.1,1.6-0.2,2.4-0.2
				c1.6-0.2,3.3-0.2,5.4-0.4c1.7,0.2,2.6-0.2,3.7,0.4c2.9-0.2,5.9-0.1,8.6,0.4c1.1-0.4,2.1-0.7,3.3-0.9c1.5-0.1,2.8,0,4.3,0.2
				c0.7,0.1,1.5,0.2,2.2,0.5c0.4,0.1,0.9,0.2,1.3,0.4c0.2,0.1,0.7,0.2,1,0.5l0.1,0.1h0.1l0,0l0,0l0.2,0.1l0,0l0,0
				c0.2,0.2,0.4,0.5,0.4,0.7c-0.1-0.2-0.2,0.4-0.1,0.6c0.4,0.5,0.5,1.5,0.5,2.3c-0.1,0.9-0.2,2-0.2,2.7c-0.1,1-0.2,2.4-0.2,4
				c0,1.6,0,3.2,0.2,5c-0.2,1.7-0.2,3.7-0.2,5.7c-0.2,2.1-0.2,4.2-0.2,6.4c0,2.1,0,4.4-0.4,6.4c-0.7,0.4-0.6-0.9-1-0.9
				c-0.5-0.2,0,2-0.4,0.7c-0.9,0.4-0.6-1.7-0.4-2c-0.2-1.1,0-1.8,0-2.7c-0.7-1.5-0.7-3.2-0.6-5c0-0.9,0-1.8,0.1-2.7s0.1-1.8,0.2-2.7
				c0.1-2-0.4-2.7,0-4.3c-0.2-1.2-0.4-2.9-0.4-4.8c0-1.8,0.1-3.8,0-5.5c0.2-0.9,0.2-1.6,0.2-2.1l0,0l0,0l0,0c0,0,0,0,0.1,0
				c0.2-0.2,0.4-0.2,0.6-0.2c0.1,0,0.1-0.1,0.2-0.2l0,0c0-0.1,0,0.2,0,0.1l0,0l0,0l0,0l-0.1,0.1l-0.4,0.4l-0.2,0.2l-0.1,0.1l0,0l0,0
				l0,0l0,0h-0.1c-0.9-0.2-2-0.4-3.2-1c-4,0.6-7.9,0.4-13.6,0.2c-2.9-0.2-5.6-0.2-8.6-0.1c-1.5,0.1-2.8,0.1-4,0.2
				c-0.2,0-0.2,0-0.4,0.1c0,0-0.2,0-0.1,0l0,0l0,0l-0.6-0.5l0-0.4c0-0.2-0.1-0.4-0.2-0.5l0,0l0,0l0,0c0.4,0.2-1-0.6,1,0.5l0,0
				l0.1,0.1l0.1,0.2c0,0.1,0.1,0.2,0.1,0.2v-0.1v0.1c-0.1,0.2-0.1,0.9-0.1,1.6c-0.1,0.2-0.1,0.6-0.1,1.1c0,0.2,0,0.5,0,0.7v0.2v0.1
				v0.2v0.1c0,0,0,0.1,0,0.2s-0.1,0.2-0.1,0.2c0,0.1-0.1,0.2-0.1,0.2v0.1l0,0l0,0c-0.2,0.2,0.4-0.2-0.4,0.2l0,0l0,0h-0.2l-0.2,0.6
				c-0.1,0-0.1,0-0.2,0c-0.2,0.1-0.4,0.1-0.5,0.1s-0.2,0-0.2,0c-0.2,0-0.4,0-0.6,0c-0.3-0.1-0.7-0.1-0.9-0.2
				c-0.7,0.2-1.7,0.5-2.6,0.7c-0.9,0.2-1.5,0.5-1.7,1c0,0.1,0,0.2,0.1,0.2v0.1l0,0c0-0.1,0,0,0,0l0,0c0,0.1,0,0.1,0,0.2
				c0,0.2,0,0.4,0.2,0.9c0,0.4-0.1,0.9,0,1.2c0,0.4,0.1,0.7,0.1,1.1c0,0.4,0.1,0.7,0.2,1.1c0.1,0.2,0.1,0.7,0.2,1
				c0.4,1.5,1.3,2.7,2.6,3.4c0.7,0.6,1.2,1,1.7,1.2c0.2,0.1,0.5,0.2,0.7,0.2c0.1,0,0.2,0.1,0.2,0.1h0.1h0.1l1.7,1.8
				c0.1,0.6,0.2,1.3,0.4,2.1c0.1,1.5-0.4,1.8,0.1,2.9c0,0.6,0.4,0.9,0,1c-0.2,1.5,0.2,1.8-0.4,2.3
				C-109,257.5-108.5,259.1-109.2,259.2z"/>
		</g>
		<g>
			<path class="st25" d="M-110.2,243.3c0.1,0,0.2,0,0.2-0.1c0.2-0.1,0.2-0.2,0.4-0.1c0.2-0.9,0.2-1,0.2-1.5c0-0.2-0.1-0.2-0.2-0.5
				c-0.1-0.1-0.1-0.2-0.2-0.2c-0.1-0.1-0.1-0.1-0.2-0.1c-0.1-0.1-0.2-0.1-0.2-0.1l-0.2-0.1h-0.1c-0.1,0-0.2,0-0.2,0
				c-0.1,0-0.2,0-0.2,0.1c-0.1-0.4-0.2-0.1-0.4-0.4c-0.1,0-0.2,0.1-0.2-0.1c-0.5,0.2-0.5,0-0.5,0s-0.2,0,0-0.1c-0.1,0-0.4,0-0.2-0.1
				c-0.2,0-0.4-0.2-0.2-0.2c-0.1-0.1-0.2-0.2-0.2-0.2l0,0l0,0l0,0l0,0l0,0v0.1l0,0l0,0l0,0c0,0,0,0,0-0.1c0,0,0-0.1,0.1-0.1
				c0.1-0.1-0.2-0.1-0.2-0.2c-0.2,0,0.2,0-0.2-0.1c0.2,0,0.2,0,0.2-0.1c-0.4-0.1,0.1-0.1-0.1-0.4c0.2-0.5,0.7-1,1.2-1.1
				c0.5-0.1,1.1,0.2,1.5,0.6c0.1-0.2,0,0.2,0.2-0.2c0.1,0,0-0.2,0.1-0.4c0-0.1,0.1-0.2,0.1-0.5c0-0.4,0-1-0.2-1.2
				c-0.5-0.2-0.7-0.2-1.2-0.4c-0.1-0.1-0.1,0.1-0.1,0.2c-0.1-0.2-0.4,0-0.6-0.2c-0.1,0.1-0.2,0.1-0.5,0c0.1,0.4-0.2,0.2-0.4,0.1
				c0.1,0.2,0.1,0.2-0.1,0.2c-0.4,0.1-0.5,0.2-0.7,0.5c-0.1,0.1-0.2,0.2-0.6,0.6c0,0.2-0.2,0.2-0.1,0.4c-0.2-0.1-0.2,0.2-0.2,0.2
				c-0.1,0.4-0.1,0.9-0.2,1.1c0.2,0.2,0.2,0.5,0.2,0.7v0.1l0,0l0,0v0.1l0,0l0,0l0,0c0,0,0,0.1,0.1,0.1c0,0.1,0.1,0.2,0.2,0.2
				c-0.2,0.1,0,0.2,0.1,0.4c0,0.1-0.2,0.2-0.1,0.2c0,0.1,0.2,0.1,0.2,0.2c0,0.2,0,0.4,0.1,0.5c0.1,0.2,0.2,0.4,0.4,0.4h0.1v0.2
				c0.1,0.1,0.2,0.1,0.2,0.2c0.2,0,0.5,0.2,0.9,0.2c0.2,0.2,0.6,0,0.9,0.2c0.1,0,0.2-0.2,0.2-0.1c0.1-0.2,0,0.2,0.1,0.2
				c0.1-0.1,0.1-0.1,0.2-0.1c0,0,0,0,0.1-0.1c-0.1-0.1-0.1-0.2,0-0.2c0,0,0,0.1,0.1,0.2c0.1,0.1,0.2,0.2,0.1,0.2
				C-110.8,243-110.6,242.9-110.2,243.3z M-112.6,242.3C-112.6,242.2-112.6,242.1-112.6,242.3L-112.6,242.3z"/>
		</g>
		<g>
			<path class="st3" d="M-79,260c0.2,0.6-0.2,0.2-0.5,0.4c0,0.2-0.4,0.2-0.5,0.4c-0.2,0-0.6,0.2-0.9-0.1c-0.2,0.4-0.7,0.2-1.1,0.5
				c-0.2,0.1-0.2,0.2-0.5,0.4c-0.2,0.1-0.4,0.1-0.6,0.2c-0.4,0.2-1,0.6-1.7,0.9c-0.6,0.2-1.3,0.2-2,0c-0.2,0.2-0.4,0.6-0.6,0.6
				c-1.1-0.1-2.1-0.2-2.9-0.2s-1.7,0-2.9,0.2c-0.5-0.2-0.7,0.2-1.1-0.2c-0.9,0.2-1.8,0.1-2.6-0.2c-0.2,0.2-0.7,0.5-1,0.6
				c-0.9,0.2-1.5-0.4-2.7-0.4c0,0,0-0.2-0.1-0.2c-0.2,0.5-1,0.1-1.5,0.1c-0.6,0-1.7-0.1-2.8-0.1c-0.5-0.2-1-0.5-1.7-0.6
				c-0.5-0.4-1.1-0.6-1.7-1c-0.2-0.4-0.6-0.4-0.8-0.8c-0.1-0.1-0.2-0.2-0.4-0.4c-0.1-0.1-0.1-0.2-0.2-0.2c0,0-0.1-0.2-0.2-0.2
				c-0.1-0.1,0-0.1,0-0.2c0.2-0.2,0.2-0.1,0.5-0.1c0.1,0,0.2,0,0.2-0.1c0.1-0.1,0-0.2,0.1-0.2c-0.2,0.1-0.2,0-0.2,0.1l0,0h0.1
				c0,0,0.1,0,0.2-0.1c-0.1,0.1,0,0,0.2-0.2c0,0,0.1-0.1,0.1-0.2v-0.1l0,0l0,0l0.1,0.2c0.2,0,0.4,0.2,0.6,0.4
				c0.9,0.1,1.8,0.9,2.8,1.2c0.5,0.2,0.9-0.1,1.2,0.2c0.9-0.2,2.1-0.2,3.2-0.4c1,0.5,1.5,0,2.1,0.7c1.3-0.6,2.3-0.4,3.9-0.2h0.1l0,0
				l0,0l0,0l0,0c-0.2,0,0,0-0.1,0l0,0l0,0h0.2h0.2c0.2,0,0.4,0,0.6,0c0.4,0,0.9,0,1.2,0c0.9,0,1.7,0,2.6,0c0.4,0.2,1-0.2,1.2,0.4
				c0.4-0.4,1.2-0.1,1.7,0c0.2-0.4,0.2-0.2,0.4-0.4c1,0.1,1.8-0.1,2.8-0.7c1-0.2,1.3-0.1,2-0.6c0.4-0.1,0.6,0.2,0.9-0.1
				c0.2,0,0.2-0.2,0.2,0c0.4,0.1,0.5-0.2,0.7,0.2C-79.6,259.8-79.1,259.4-79,260z"/>
		</g>
	</g>
	<g>
		<path d="M65.6,196.7c-0.1-1.2-0.1-10-0.2-11.2c10.3-1.6,18.7-2.9,26.9-4.1c0.1,2.5,0.3,13.8,0.4,16.4l3.5-1.1
			c-0.1-2.1-0.2-11.8-0.2-13.9c-0.1-4.2-1.7-5.2-5.1-4.6c-3.9,0.6-7.9,1.4-11.8,2.2c-5,1-11.8,0.6-14.3,3.7
			c-1,1.3-1.5,10.6-1.7,12.6H65.6z"/>
		<path d="M97.9,217.9h-3.4c0.2,3.7,0.4,11.7,0.6,15.5c-2.6-0.4-5.6-0.5-8.5-1.2c-3.7-0.8-7.3-2.7-11-2.9c-5.3-0.2-7.7-2.7-8.3-7
			h-2.1c0.2,1.4,0.4,2.8,0.6,4.1c0.2,1.6,1.8,4,3.2,4.4c7.1,2.1,14.3,4.1,21.6,5.4c7.4,1.2,8.2-0.4,7.7-7.9
			C98.1,226.3,98,219.9,97.9,217.9z"/>
	</g>
	<g>
		<path d="M42.7,226.4c-1.7,2.1-7.7,1-11.9,1c-18.7-0.1-37.4-0.4-56.1-0.6c-4.1,0-8.2,0-12.5,0c0-2.6,0-6.3,0-9l-3.3,1.1
			c0,1.4-0.1,2.9-0.1,4.3c0,2.6-0.1,5.6,4,5.7c26.9,0.3,53.8,0.7,80.8,0.8c1.2,0,3.3-2.2,3.4-3.4c0-1.4,0-8.2,0-9.6l-3.1-1.1
			C43.8,217.4,43.5,225.4,42.7,226.4z"/>
		<path d="M42.2,180.6c-6.4-0.1-12.7-0.1-19.1-0.1c-20.9,0-41.8,0-63.7,0c0,3.4,0,9.8,0,12.8l2.7-1.1c0-1.9,0-6.1,0-8
			c27.5,0,54.5,0,81.4,0c0,1.6,0,7.6,0,9.2l3.6-1.1c0-1.2,0-5.7,0-6.8C47.2,181.8,45.3,180.6,42.2,180.6z"/>
	</g>
</g>
</svg>
