<?xml version="1.0" encoding="utf-8"?>
<!-- Generator: Adobe Illustrator 18.1.1, SVG Export Plug-In . SVG Version: 6.00 Build 0)  -->
<!DOCTYPE svg PUBLIC "-//W3C//DTD SVG 1.1//EN" "http://www.w3.org/Graphics/SVG/1.1/DTD/svg11.dtd">
<svg version="1.1" id="Capa_1" xmlns="http://www.w3.org/2000/svg" xmlns:xlink="http://www.w3.org/1999/xlink" x="0px" y="0px"
	 viewBox="-143 657 100 100" enable-background="new -143 657 100 100" xml:space="preserve">
<path fill="#4A4A4A" d="M-93,657c-27.6,0-50,22.4-50,50s22.4,50,50,50s50-22.4,50-50S-65.4,657-93,657z M-63.3,736.7c-3.9,3.9-8.4,6.9-13.4,9
	c-1.3,0.5-2.6,1-3.9,1.4v-7.5c0-3.9-1.4-6.8-4.1-8.7c1.7-0.2,3.2-0.4,4.7-0.7s2.9-0.7,4.5-1.3s3-1.2,4.2-2s2.5-1.8,3.6-3
	s2.1-2.6,2.9-4.2s1.4-3.4,1.9-5.6s0.7-4.5,0.7-7.2c0-5-1.6-9.3-4.9-12.9c1.5-3.9,1.3-8.2-0.5-12.7l-1.2-0.1
	c-0.8-0.1-2.4,0.3-4.6,1.1s-4.7,2.1-7.4,4c-3.9-1.1-7.9-1.6-12.1-1.6c-4.2,0-8.2,0.5-12,1.6c-1.7-1.2-3.4-2.1-4.9-2.9
	s-2.8-1.3-3.7-1.6s-1.8-0.4-2.6-0.5s-1.3-0.1-1.5,0s-0.4,0.1-0.5,0.1c-1.8,4.6-2,8.9-0.5,12.7c-3.3,3.5-4.9,7.8-4.9,12.9
	c0,2.6,0.2,5,0.7,7.2s1.1,4,1.9,5.6s1.7,2.9,2.9,4.2s2.4,2.2,3.6,3s2.7,1.4,4.2,2s3.1,1,4.5,1.3s3,0.5,4.7,0.7c-2.7,1.8-4,4.7-4,8.7
	v7.6c-1.5-0.4-2.9-1-4.4-1.6c-5-2.1-9.5-5.1-13.4-9c-3.9-3.9-6.9-8.4-9-13.4c-2.2-5.2-3.3-10.7-3.3-16.3s1.1-11.2,3.3-16.3
	c2.1-5,5.1-9.5,9-13.4c3.9-3.9,8.4-6.9,13.4-9c5.2-2.2,10.7-3.3,16.3-3.3s11.2,1.1,16.3,3.3c5,2.1,9.5,5.1,13.4,9
	c3.9,3.9,6.9,8.4,9,13.4c2.2,5.2,3.3,10.7,3.3,16.3s-1.1,11.2-3.3,16.3C-56.4,728.3-59.4,732.8-63.3,736.7z"/>
</svg>
