<?xml version="1.0" encoding="utf-8"?>
<!-- Generator: Adobe Illustrator 18.1.1, SVG Export Plug-In . SVG Version: 6.00 Build 0)  -->
<!DOCTYPE svg PUBLIC "-//W3C//DTD SVG 1.1//EN" "http://www.w3.org/Graphics/SVG/1.1/DTD/svg11.dtd">
<svg version="1.1" id="Layer_1" xmlns="http://www.w3.org/2000/svg" xmlns:xlink="http://www.w3.org/1999/xlink" x="0px" y="0px"
	 viewBox="-143 657 100 100" enable-background="new -143 657 100 100" xml:space="preserve">
<path fill="#4A4A4A" d="M-50.8,702.3l-18.8,18.8c-10.4,10.4-27.2,10.4-37.5,0c-1.6-1.6-2.9-3.5-4-5.4l8.7-8.7
	c0.4-0.4,0.9-0.7,1.4-0.9c0.6,2.1,1.7,4,3.3,5.6c5.2,5.2,13.6,5.2,18.8,0l18.8-18.8c5.2-5.2,5.2-13.6,0-18.8
	c-5.2-5.2-13.6-5.2-18.8,0l-6.7,6.7c-5.4-2.1-11.2-2.7-16.9-1.8l14.2-14.2c10.4-10.4,27.2-10.4,37.5,0
	C-40.4,675.1-40.4,691.9-50.8,702.3z M-100.4,733.2l-6.7,6.7c-5.2,5.2-13.6,5.2-18.8,0c-5.2-5.2-5.2-13.6,0-18.8l18.8-18.8
	c5.2-5.2,13.6-5.2,18.8,0c1.6,1.6,2.7,3.6,3.3,5.6c0.5-0.3,1-0.5,1.4-0.9l8.7-8.7c-1.1-1.9-2.4-3.7-4-5.4
	c-10.4-10.4-27.2-10.4-37.5,0l-18.8,18.8c-10.4,10.4-10.4,27.2,0,37.5c10.4,10.4,27.2,10.4,37.5,0l14.2-14.2
	C-89.2,735.8-95,735.3-100.4,733.2z"/>
</svg>
