<?xml version="1.0" encoding="utf-8"?>
<!-- Generator: Adobe Illustrator 16.0.4, SVG Export Plug-In . SVG Version: 6.00 Build 0)  -->
<!DOCTYPE svg PUBLIC "-//W3C//DTD SVG 1.1//EN" "http://www.w3.org/Graphics/SVG/1.1/DTD/svg11.dtd">
<svg version="1.1" id="Layer_1" xmlns="http://www.w3.org/2000/svg" xmlns:xlink="http://www.w3.org/1999/xlink" x="0px" y="0px"
	 viewBox="0 0 362 102" enable-background="new 0 0 362 102" xml:space="preserve">
<path opacity="0.5" fill-rule="evenodd" clip-rule="evenodd" fill="#FFFFFF" d="M140.91,91.654
	c5.527-13.301,18.854-22.679,34.42-22.679c16.793,0,30.981,10.915,35.58,25.897c2.574-1.483,5.57-2.338,8.773-2.338
	c6.818,0,12.711,3.858,15.543,9.465H100.461c5.894-8.115,15.569-13.412,26.512-13.412C131.961,88.588,136.686,89.689,140.91,91.654z
	 M301.152,91.17c4.035,0,7.879,0.834,11.363,2.335c1.02-3.672,4.383-6.37,8.385-6.37c0.918,0,1.803,0.145,2.635,0.406
	c5.025-16.709,20.258-29.003,38.465-29.67V102h-83.316C283.943,95.402,292.051,91.17,301.152,91.17z"/>
<path fill-rule="evenodd" clip-rule="evenodd" fill="#FFFFFF" d="M52.748,95.649c2.588-4.375,7.374-7.313,12.854-7.313
	c3.354,0,6.448,1.1,8.938,2.956c3.178-18.336,19.268-32.287,38.643-32.287c16.99,0,31.456,10.729,36.902,25.735
	c3.568-2.164,7.761-3.412,12.248-3.412c11.493,0,21.055,8.183,23.113,19c4.44-2.111,9.413-3.297,14.665-3.297
	c6.507,0,12.585,1.818,17.751,4.969H1.134c7.072-8.203,17.576-13.404,29.305-13.404C38.752,88.596,46.45,91.207,52.748,95.649z
	 M240.767,58.107c0,0,8.988,6.926,25.233,6.926s25.233-6.926,25.233-6.926s0.444-0.383,0.999-0.383c0.663,0,1.291,0.434,1.291,1.39
	c0,0.101-0.01,0.202-0.029,0.3c-1.395,7.266-2.414,12.421-2.593,13.206c-1.218,5.345-11.962,9.378-24.9,9.378H266h-0.001
	c-12.938,0-23.683-4.033-24.9-9.378c-0.179-0.785-1.198-5.94-2.593-13.206c-0.02-0.098-0.029-0.199-0.029-0.3
	c0-0.956,0.628-1.39,1.291-1.39C240.322,57.725,240.767,58.107,240.767,58.107z M302.498,11.785c0,1.719-4.381,26.368-6.119,36.143
	c-0.779,4.385-12.422,10.812-30.369,10.812v-0.052l-0.019,0.052c-17.948,0-29.591-6.427-30.37-10.812
	c-1.738-9.775-6.119-34.424-6.119-36.143c0-6.526,16.405-11.783,36.498-11.783v0.001V0.002
	C286.092,0.002,302.498,5.258,302.498,11.785z M266,50.821c6.407,0,11.603-5.056,11.603-11.29c0-6.236-5.195-11.291-11.603-11.291
	c-6.408,0-11.603,5.055-11.603,11.291C254.397,45.765,259.592,50.821,266,50.821z M242.627,10.551
	c-0.004,2.673,10.457,4.855,23.366,4.876c12.909,0.02,23.378-2.129,23.383-4.803c0.005-2.674-10.457-4.856-23.366-4.876
	C253.101,5.728,242.632,7.877,242.627,10.551z M265.988,33.869c3.212,0,5.814,2.533,5.814,5.658c0,3.125-2.603,5.658-5.814,5.658
	c-3.211,0-5.814-2.533-5.814-5.658C260.174,36.402,262.777,33.869,265.988,33.869z M337.206,92.318
	c4.425,0,8.656,0.828,12.548,2.337c1.575-5.902,6.595-10.368,12.746-11.173V102h-49.35
	C319.393,96.005,327.868,92.318,337.206,92.318z"/>
</svg>
