<?xml version="1.0" standalone="no"?>
<!DOCTYPE svg PUBLIC "-//W3C//DTD SVG 1.1//EN" "http://www.w3.org/Graphics/SVG/1.1/DTD/svg11.dtd" >
<svg xmlns="http://www.w3.org/2000/svg">
<metadata>
This is a custom SVG webfont generated by Font Squirrel.
Copyright   : Copyright c This Font is designed by Ralph Oliver du Carrois 2005 All rights reserved
Designer    : Ralph du Carrois
Foundry     : This Font is designed by Ralph Oliver du Carrois
</metadata>
<defs>
<font id="Share-BoldItalicRegular" horiz-adv-x="962" >
<font-face units-per-em="2048" ascent="1655" descent="-393" />
<missing-glyph horiz-adv-x="573" />
<glyph unicode=" "  horiz-adv-x="573" />
<glyph unicode="&#x09;" horiz-adv-x="573" />
<glyph unicode="&#xa0;" horiz-adv-x="573" />
<glyph unicode="!" horiz-adv-x="552" d="M102 0l23 266h307l-22 -266h-308zM156 467l86 967h276l-86 -967h-276z" />
<glyph unicode="&#x22;" horiz-adv-x="860" d="M166 1208l20 226h297l-20 -226l-90 -321h-174zM565 1208l21 226h297l-21 -226l-90 -321h-174z" />
<glyph unicode="#" horiz-adv-x="1015" d="M49 348l21 236h123l24 286h-123l21 236h123l28 328h260l-28 -328h123l28 328h260l-28 -328h123l-21 -236h-123l-24 -286h122l-20 -236h-123l-29 -348h-260l29 348h-123l-29 -348h-260l29 348h-123zM453 584h122l25 286h-123z" />
<glyph unicode="$" d="M109 14l22 244q115 -31 240 -31q117 0 167 49.5t50 157.5q0 141 -150 172q-268 57 -268 326q0 344 289 428l22 237h256l-20 -213q106 -6 190 -28l-20 -242q-127 31 -252 31q-90 0 -133 -33t-43 -129q0 -119 129 -145q143 -29 214.5 -109t71.5 -237q0 -399 -276 -482 l-20 -235h-256l18 211q-139 4 -231 28z" />
<glyph unicode="%" horiz-adv-x="1875" d="M197 924q0 260 76.5 394t287.5 134q156 0 221.5 -84t65.5 -244q0 -65 -4 -100q-10 -106 -27.5 -179t-55.5 -137.5t-107.5 -96t-170.5 -31.5q-156 0 -221 90t-65 254zM416 887q0 -72 18.5 -98.5t65.5 -26.5q61 0 84 50t37 204q8 106 8 127q0 74 -19.5 100.5t-64.5 26.5 q-61 0 -84 -48t-37 -206q-8 -106 -8 -129zM547 0l627 1434h241l-627 -1434h-241zM1110 326q0 260 77 394t288 134q156 0 221 -84t65 -244q0 -65 -4 -100q-10 -106 -27.5 -179t-55.5 -137.5t-107.5 -96t-169.5 -31.5q-156 0 -221.5 90t-65.5 254zM1331 291q0 -74 17.5 -100.5 t64.5 -26.5q61 0 85 50t36 204q8 106 8 127q0 74 -19.5 100.5t-64.5 26.5q-61 0 -83.5 -48.5t-37.5 -205.5q-6 -76 -6 -127z" />
<glyph unicode="&#x26;" horiz-adv-x="1054" d="M104 342q1 64 7 117q14 166 58 243.5t138 118.5q-57 33 -87 99.5t-30 136.5v18q18 219 112.5 297t293.5 78q156 0 285 -27l-21 -233q-23 6 -103.5 17.5t-121.5 11.5q-100 0 -134 -36t-34 -143q0 -70 32.5 -95t116.5 -25h467l-20 -232h-150l-59 -661q-211 -47 -405 -47 q-178 0 -261.5 88t-83.5 274zM383 362q0 -78 27.5 -114.5t93 -36.5t108.5 14l41 463h-88q-94 0 -138 -68.5t-44 -257.5z" />
<glyph unicode="'" horiz-adv-x="460" d="M166 1208l20 226h297l-20 -226l-90 -321h-174z" />
<glyph unicode="(" horiz-adv-x="665" d="M115 518q0 107 8 199q25 299 102.5 529.5t231.5 432.5h241q-139 -207 -205.5 -429t-93.5 -533q-14 -150 -14 -295q0 -379 145 -668h-221q-195 336 -194 764z" />
<glyph unicode=")" horiz-adv-x="665" d="M49 -246q139 207 206 429.5t93 533.5q14 150 14 295q0 379 -145 667h221q195 -336 195 -764q0 -106 -8 -198q-25 -299 -103 -529.5t-231 -433.5h-242z" />
<glyph unicode="*" horiz-adv-x="1075" d="M123 1065l86 250l266 -117q-4 45 -16.5 149.5t-16.5 147.5h275l-31 -297q45 16 138.5 56t131.5 55l78 -248l-274 -45q31 -37 100.5 -123t97.5 -119l-217 -151l-163 280q-29 -45 -86.5 -145.5t-81.5 -139.5l-213 160l202 234q-53 12 -152.5 30.5t-123.5 22.5z" />
<glyph unicode="+" horiz-adv-x="1146" d="M164 502l20 235h308l28 324h250l-29 -324h308l-21 -235h-307l-29 -324h-250l29 324h-307z" />
<glyph unicode="," horiz-adv-x="512" d="M-27 -307l109 307l22 266h308l-23 -266l-217 -307h-199z" />
<glyph unicode="-" horiz-adv-x="1013" d="M176 502l21 235h706l-20 -235h-707z" />
<glyph unicode="." horiz-adv-x="512" d="M82 0l22 266h308l-23 -266h-307z" />
<glyph unicode="/" horiz-adv-x="665" d="M-80 -225l645 1884h264l-647 -1884h-262z" />
<glyph unicode="0" d="M102 477q0 115 13 256q14 164 28.5 262.5t46 196.5t79.5 148.5t127 81t192 30.5q199 0 278.5 -113.5t79.5 -359.5q0 -111 -12 -246q-14 -168 -30.5 -272.5t-49.5 -205.5t-81 -155.5t-126 -86t-188 -31.5q-197 0 -277 118.5t-80 376.5zM365 389q0 -109 23.5 -144.5 t88.5 -35.5q94 0 123.5 89t58.5 425q23 229 23 326q0 104 -24.5 140t-90.5 36q-33 0 -55.5 -7.5t-40.5 -31t-28.5 -53t-21.5 -93t-18.5 -132t-17.5 -185.5q-20 -250 -20 -334z" />
<glyph unicode="1" d="M121 0l18 231h240l84 949l-268 -103l20 254l250 103h293l-107 -1203h197l-19 -231h-708z" />
<glyph unicode="2" d="M84 0l22 258l320 389q121 137 154.5 220t33.5 214q0 74 -35.5 107t-119.5 33q-80 0 -236 -39l21 237q180 33 264 33q201 0 289 -86t88 -260q0 -25 -4 -82q-10 -150 -43 -231.5t-140 -212.5l-278 -347h397l-18 -233h-715z" />
<glyph unicode="3" d="M102 14l21 232q170 -37 252 -37q88 0 135 66.5t47 191.5q0 88 -34 127t-113 39h-158l18 223h138q182 0 182 231q0 137 -129 138q-104 0 -246 -33l21 229q168 31 272 31q176 0 266 -76t90 -256q0 -125 -43 -232.5t-141 -135.5q154 -46 154 -265q0 -506 -445 -505 q-139 0 -287 32z" />
<glyph unicode="4" d="M109 319l22 259l268 856h267l-277 -883h135l80 385h230l-33 -385h123l-21 -232h-123l-26 -319h-277l27 319h-395z" />
<glyph unicode="5" d="M102 14l21 234q166 -37 262 -37q186 0 186 297q0 106 -36.5 142t-114.5 36h-238l66 748h641l-21 -232h-368l-27 -299h10q190 0 277.5 -81t87.5 -273q0 -313 -115 -440t-325 -127q-141 0 -306 32z" />
<glyph unicode="6" d="M113 504q0 70 10 223q25 285 93.5 443.5t179 220t296.5 61.5q129 0 211 -22l-18 -232q-125 29 -221 29q-117 0 -171.5 -72t-80.5 -268q100 53 192 53q164 0 236.5 -90t72.5 -285q0 -57 -6 -125q-23 -250 -139.5 -354t-314.5 -104q-166 0 -253 115.5t-87 406.5zM377 424 q0 -133 25.5 -175t82.5 -42q78 0 117 73.5t39 266.5q0 172 -106 172q-66 0 -144 -35q-14 -156 -14 -260z" />
<glyph unicode="7" d="M166 0l442 1194h-432l21 240h706l-24 -281l-422 -1153h-291z" />
<glyph unicode="8" d="M70 358q0 313 211 375q-59 31 -94 112t-35 167q0 440 436 440q365 0 364 -346q0 -33 -6 -72t-22.5 -96t-58.5 -104.5t-101 -67.5q162 -49 162 -287q0 -244 -107.5 -370.5t-359.5 -126.5q-389 0 -389 376zM340 348q0 -80 31.5 -111.5t101.5 -31.5q106 0 143 66.5t37 209.5 q0 88 -43 127t-164 39q-59 -35 -82.5 -95t-23.5 -204zM420 991q0 -74 37 -107.5t137 -33.5q86 49 90 258q0 70 -24.5 97.5t-88.5 27.5q-78 0 -114.5 -55.5t-36.5 -186.5z" />
<glyph unicode="9" d="M119 885q0 71 4 108q23 252 140.5 355.5t316.5 103.5q170 0 256 -107.5t86 -394.5q0 -84 -11 -217q-20 -240 -59 -389t-109.5 -229t-156.5 -106.5t-221 -26.5q-129 0 -218 24l21 232q129 -31 223 -31q106 0 153.5 64.5t73.5 275.5q-90 -53 -190 -53q-309 0 -309 391z M389 887q1 -172 107 -172q74 0 143 35q14 160 14 270q0 137 -23.5 172t-84.5 35q-74 0 -115 -75t-41 -265z" />
<glyph unicode=":" horiz-adv-x="512" d="M82 0l22 266h308l-23 -266h-307zM147 758l23 266h307l-22 -266h-308z" />
<glyph unicode=";" horiz-adv-x="512" d="M-27 -307l109 307l22 266h308l-23 -266l-217 -307h-199zM147 758l23 266h307l-22 -266h-308z" />
<glyph unicode="&#x3c;" horiz-adv-x="1126" d="M176 514l31 334l850 346l-25 -270l-633 -238l592 -240l-24 -270z" />
<glyph unicode="=" horiz-adv-x="1126" d="M158 297l20 235h819l-20 -235h-819zM195 707l20 235h819l-20 -235h-819z" />
<glyph unicode="&#x3e;" horiz-adv-x="1126" d="M147 176l25 275l633 239l-592 238l25 266l788 -346l-31 -334z" />
<glyph unicode="?" horiz-adv-x="778" d="M143 1188l21 235q129 29 264 29q184 0 274.5 -63.5t90.5 -239.5q0 -43 -2 -68q-8 -100 -36 -157.5t-100 -137.5l-163 -180l-15 -139h-276l20 223l182 201q70 78 91.5 118t21.5 109q0 55 -31.5 78t-122.5 23q-88 0 -219 -31zM147 0l23 266h307l-22 -266h-308z" />
<glyph unicode="@" horiz-adv-x="1726" d="M186 528q0 90 9 179q18 219 65 360t139.5 228t223.5 122t329 35q184 0 304 -20.5t208 -76t127 -152.5t39 -251q0 -59 -6 -131q-10 -111 -21.5 -182.5t-37 -155.5t-64.5 -132t-105.5 -80.5t-156.5 -32.5q-68 0 -132.5 44t-80.5 130q-25 -35 -46.5 -55.5t-72.5 -41 t-119 -20.5q-109 0 -176 65.5t-67 241.5q0 164 32.5 269.5t99 156.5t138.5 68.5t178 17.5q139 0 262 -29l-51 -600q0 -53 47 -53q49 0 64.5 56.5t40.5 332.5q8 82 8 158q0 162 -77 204t-335 42q-145 0 -228 -19.5t-140.5 -79t-82 -154.5t-38.5 -265q-10 -117 -10 -181 q0 -195 78.5 -256t302.5 -61q139 0 272 14l-21 -225q-143 -16 -270 -16q-346 0 -487.5 118.5t-141.5 427.5zM793 618q0 -66 17 -91t60 -25q45 0 71 24.5t32 49t8 63.5l23 264q-41 10 -95 10q-117 0 -116 -295z" />
<glyph unicode="A" horiz-adv-x="1116" d="M10 0l449 1434h413l193 -1434h-283l-37 334h-348l-94 -334h-293zM465 575h256l-68 678z" />
<glyph unicode="B" horiz-adv-x="1120" d="M123 0l125 1434q240 18 375 18q217 0 318 -78t101 -250q0 -176 -55 -254.5t-156 -97.5q88 -14 141.5 -88t53.5 -192q0 -33 -4 -70q-23 -252 -140.5 -346t-355.5 -94q-76 0 -177 4t-164 9zM422 233q74 -6 149 -6q166 0 170 246q0 166 -159 166h-123zM479 868h111 q92 0 131 50.5t43 150.5q0 66 -31 102.5t-88 36.5l-137 -8z" />
<glyph unicode="C" horiz-adv-x="886" d="M135 510q0 121 10 229q16 186 47 313.5t71 205t106.5 119.5t138.5 56.5t180 14.5q41 0 119 -10.5t100 -18.5l-20 -250q-121 33 -246 33q-63 0 -99 -29.5t-66 -135t-48 -312.5q-12 -111 -12 -248q0 -147 31.5 -196.5t107.5 -49.5q119 0 252 31l-23 -248q-101 -28 -239 -28 h-10q-100 0 -170 22.5t-124.5 78.5t-80 160.5t-25.5 262.5z" />
<glyph unicode="D" horiz-adv-x="1118" d="M123 0l125 1434q250 20 364 20q111 0 188 -21.5t141.5 -77t95 -162t30.5 -267.5q0 -97 -8 -187q-20 -227 -60.5 -375.5t-110 -233.5t-158.5 -117.5t-222 -32.5q-66 0 -162 5t-160 10zM424 236q37 -8 123 -9q98 0 149 106.5t76 391.5q12 145 12 233q0 156 -33.5 202 t-115.5 46l-127 -8z" />
<glyph unicode="E" horiz-adv-x="978" d="M123 0l125 1434h733l-20 -222h-453l-31 -362h402l-21 -219h-401l-35 -410h452l-18 -221h-733z" />
<glyph unicode="F" horiz-adv-x="989" d="M154 0l125 1434h733l-21 -222h-452l-33 -383h401l-20 -221h-402l-51 -608h-280z" />
<glyph unicode="G" horiz-adv-x="1044" d="M135 512q0 123 10 227q20 225 62.5 366.5t119 217.5t170 102.5t238.5 26.5q129 0 256 -29l-20 -245q-129 28 -269 28h-10q-90 0 -138 -36.5t-78 -138t-48 -306.5q-12 -144 -12 -240q0 -152 34.5 -205t120.5 -53q59 0 86 2l29 324h-131l20 242h404l-68 -777 q-194 -36 -346 -36h-8q-221 0 -321.5 113.5t-100.5 416.5z" />
<glyph unicode="H" horiz-adv-x="1167" d="M123 0l125 1434h280l-53 -592h320l53 592h280l-124 -1434h-281l51 608h-319l-52 -608h-280z" />
<glyph unicode="I" horiz-adv-x="710" d="M51 0l19 217h143l86 1000h-143l20 217h567l-20 -217h-143l-86 -1000h143l-19 -217h-567z" />
<glyph unicode="J" horiz-adv-x="851" d="M41 10l20 246q137 -25 215 -25q94 0 133.5 62.5t53.5 226.5l57 672h-291l23 242h571l-80 -899q-29 -336 -121 -445.5t-333 -109.5q-113 0 -248 30z" />
<glyph unicode="K" horiz-adv-x="1120" d="M123 0l125 1434h280l-43 -496l373 496h316l-484 -623l369 -811h-324l-241 563l-48 -63l-43 -500h-280z" />
<glyph unicode="L" horiz-adv-x="860" d="M123 0l125 1434h280l-104 -1196h416l-21 -238h-696z" />
<glyph unicode="M" horiz-adv-x="1363" d="M123 0l125 1434h420l71 -551l172 551h414l-125 -1434h-254l107 1227l-242 -746h-213l-119 746l-106 -1227h-250z" />
<glyph unicode="N" horiz-adv-x="1212" d="M123 0l125 1434h407l172 -1174l103 1174h244l-125 -1434h-408l-170 1151l-100 -1151h-248z" />
<glyph unicode="O" horiz-adv-x="1163" d="M133 496q0 109 12 237q12 156 32 261.5t57.5 198.5t96 147.5t146.5 84t211 29.5q233 0 329.5 -125t96.5 -391q0 -82 -10 -205q-14 -166 -32.5 -272.5t-55.5 -206.5t-94.5 -155.5t-146.5 -87t-216 -31.5q-236 0 -331 123.5t-95 392.5zM416 487q0 -162 38 -224t124 -62 q111 0 161.5 108.5t77.5 413.5q12 143 12 238q0 158 -36.5 215t-124.5 57q-113 0 -163 -101.5t-77 -408.5q-12 -137 -12 -236z" />
<glyph unicode="P" horiz-adv-x="1064" d="M123 0l125 1434q209 20 379 20q231 0 332.5 -98.5t101.5 -294.5q0 -27 -4 -84q-23 -266 -137.5 -374.5t-356.5 -108.5h-117l-43 -494h-280zM467 735h129q72 0 119 62t57 166q2 23 2 63q0 92 -29.5 137t-103.5 45q-39 0 -72.5 -3t-47.5 -6l-13 -3z" />
<glyph unicode="Q" horiz-adv-x="1163" d="M133 496q0 109 12 237q12 156 32 261.5t57.5 198.5t96 147.5t146.5 84t211 29.5q233 0 329.5 -125t96.5 -391q0 -82 -10 -205q-27 -309 -86.5 -473t-202.5 -233l191 -27l-23 -254l-506 238q-188 20 -266 144t-78 368zM416 487q0 -162 38 -224t124 -62q111 0 161.5 108.5 t77.5 413.5q12 143 12 238q0 158 -36.5 215t-124.5 57q-113 0 -163 -101.5t-77 -408.5q-12 -137 -12 -236z" />
<glyph unicode="R" horiz-adv-x="1091" d="M123 0l125 1434q209 20 379 20q223 0 322.5 -91t99.5 -282q-1 -25 -5 -82q-29 -324 -227 -415l203 -584h-309l-168 541h-92l-48 -541h-280zM471 782h129q66 0 109 52.5t51 150.5q2 25 2 68q0 84 -28.5 119.5t-100.5 35.5l-125 -12z" />
<glyph unicode="S" horiz-adv-x="868" d="M43 16l23 244q123 -33 266 -33q227 0 227 234q0 80 -37 113.5t-121 54.5q-282 68 -282 336q0 252 125 367.5t395 115.5q156 0 256 -29l-21 -243q-106 30 -262 30h-10q-196 0 -196 -207q0 -61 30.5 -86.5t116.5 -44.5q143 -33 219 -114.5t76 -237.5q0 -23 -4 -72 q-14 -143 -53 -236t-109 -140.5t-150.5 -64.5t-199.5 -17q-176 0 -289 30z" />
<glyph unicode="T" horiz-adv-x="911" d="M102 1186l23 248h870l-22 -248h-295l-103 -1186h-280l102 1186h-295z" />
<glyph unicode="U" horiz-adv-x="1136" d="M145 369q0 23 5 71l88 994h280l-88 -1002q-4 -57 -4 -61q0 -143 141 -144q154 0 170 174l90 1033h281l-88 -994q-23 -250 -133.5 -352t-339.5 -102q-401 0 -402 383z" />
<glyph unicode="V" horiz-adv-x="1110" d="M156 1434h288l107 -1233l332 1233h280l-413 -1434h-433z" />
<glyph unicode="W" horiz-adv-x="1286" d="M141 0l56 1434h245l-51 -1215l199 610h233l76 -610l164 1215h235l-194 -1434h-395l-45 481l-144 -481h-379z" />
<glyph unicode="X" horiz-adv-x="1075" d="M10 0l432 743l-266 691h311l131 -424l211 424h306l-404 -689l293 -745h-313l-148 475l-244 -475h-309z" />
<glyph unicode="Y" horiz-adv-x="1087" d="M125 1434h297l178 -553l277 553h294l-454 -803l-53 -631h-287l53 631z" />
<glyph unicode="Z" horiz-adv-x="954" d="M51 0l23 272l581 918h-454l22 244h764l-24 -273l-580 -917h479l-20 -244h-791z" />
<glyph unicode="[" horiz-adv-x="675" d="M100 -246l168 1925h451l-21 -235h-184l-125 -1444h184l-22 -246h-451z" />
<glyph unicode="\" horiz-adv-x="665" d="M72 1659h264l340 -1884h-264z" />
<glyph unicode="]" horiz-adv-x="675" d="M39 -246l22 246h185l125 1444h-185l21 235h450l-168 -1925h-450z" />
<glyph unicode="^" horiz-adv-x="1017" d="M115 860l336 696h356l203 -696h-303l-91 492l-213 -492h-288z" />
<glyph unicode="_" horiz-adv-x="1044" d="M-43 -348l20 246h1031l-21 -246h-1030z" />
<glyph unicode="`" horiz-adv-x="641" d="M158 1464h325l189 -276h-217z" />
<glyph unicode="a" horiz-adv-x="1067" d="M117 342q0 67 6 143q27 311 145.5 434t374.5 123q156 0 336 -49l-61 -733q0 -55 73 -55l-16 -205h-119q-154 0 -178 117q-109 -135 -277 -135q-150 0 -217 82.5t-67 277.5zM393 362q0 -86 23 -116.5t78 -30.5q74 0 116.5 73.5t51.5 164.5l28 352q-57 4 -86 4 q-61 0 -104 -32t-75 -135t-32 -280z" />
<glyph unicode="b" horiz-adv-x="1058" d="M113 10l125 1424h272l-43 -488q102 96 244 96q282 0 282 -359q0 -36 -1.5 -67.5t-4.5 -58.5q-14 -170 -53 -282.5t-107.5 -177t-154.5 -90t-211 -25.5q-119 0 -348 28zM403 219q66 -4 97 -4q84 0 137 65.5t76 258.5q6 51 6 108q0 92 -25 127t-76 35q-74 0 -124 -69.5 t-58 -153.5z" />
<glyph unicode="c" horiz-adv-x="835" d="M123 395q0 346 112.5 496.5t354.5 150.5q113 0 231 -28l-20 -240q-133 29 -219 29q-76 0 -118 -63.5t-58 -247.5q-4 -57 -5 -80q0 -104 31 -147.5t94 -43.5q62 0 228 29l-21 -238q-109 -30 -229 -30h-8q-188 0 -280.5 85t-92.5 328z" />
<glyph unicode="d" horiz-adv-x="1079" d="M121 336q0 49 8 160q27 301 147.5 423.5t385.5 122.5q29 0 81 -4l35 396h273l-125 -1434h-221l-13 117q-115 -135 -280 -135q-156 0 -223.5 80.5t-67.5 273.5zM399 369q0 -90 24 -122t81 -32q82 0 132 82t58 174l29 332q-53 6 -100 6q-106 0 -165 -93t-59 -347z" />
<glyph unicode="e" horiz-adv-x="991" d="M121 393q0 53 6 119q27 281 138.5 405.5t328.5 124.5q102 0 175 -29.5t107.5 -78.5t49 -95.5t14.5 -93.5q0 -176 -94 -264t-309 -88q-92 0 -144 6v-16q0 -96 33 -132t123 -36q111 0 264 31l-20 -230q-123 -34 -257 -34h-8q-100 0 -167.5 15t-126 58t-86 127t-27.5 211z M414 612q51 -6 96 -6q162 0 162 107q0 51 -20.5 77.5t-82 26.5t-98.5 -46t-57 -159z" />
<glyph unicode="f" horiz-adv-x="698" d="M-92 -352l20 231q70 -8 127 -8q55 0 78 19.5t27 72.5l71 830h-133l21 231h133l8 82q20 205 95 275.5t245 70.5q104 0 221 -25l-18 -231q-94 23 -172 23q-90 0 -96 -95l-9 -100h222l-21 -231h-221l-72 -820q-16 -197 -95 -266t-259 -69q-80 0 -172 10z" />
<glyph unicode="g" horiz-adv-x="1079" d="M123 358q0 381 127 532.5t412 151.5q150 0 350 -49l-84 -952q-20 -242 -119.5 -338t-314.5 -96q-129 0 -314 35l21 221q170 -35 262 -35q100 0 142 44t50 148l7 80q-104 -98 -250 -98q-152 0 -220.5 82t-68.5 274zM399 383q0 -86 24 -116.5t81 -30.5q78 0 130 67.5 t58 151.5l29 348q-49 6 -98.5 6t-86 -16.5t-69.5 -60.5t-50.5 -131t-17.5 -218z" />
<glyph unicode="h" horiz-adv-x="1073" d="M113 0l125 1434h272l-43 -486q104 94 244 94q152 0 215 -73.5t63 -235.5q0 -49 -6 -119l-53 -614h-273l54 621q4 37 4 67q0 70 -23.5 94.5t-77.5 24.5q-72 0 -122 -68.5t-56 -150.5l-51 -588h-272z" />
<glyph unicode="i" horiz-adv-x="538" d="M113 0l88 1024h272l-88 -1024h-272zM207 1198l20 236h293l-20 -236h-293z" />
<glyph unicode="j" horiz-adv-x="538" d="M-143 -352l20 229q51 -6 127 -6q55 0 77.5 19.5t27.5 72.5l92 1061h272l-92 -1051q-18 -201 -95 -268t-257 -67q-80 0 -172 10zM207 1198l20 236h293l-20 -236h-293z" />
<glyph unicode="k" horiz-adv-x="1013" d="M113 0l125 1434h272l-61 -703l262 293h319l-379 -412l312 -612h-304l-194 418l-49 -60l-31 -358h-272z" />
<glyph unicode="l" horiz-adv-x="593" d="M133 207q0 27 4 96l101 1131h272l-94 -1074q-6 -61 -6 -75q0 -33 12 -46.5t45 -13.5t74 8l-19 -227q-76 -16 -188.5 -16t-156.5 51t-44 166z" />
<glyph unicode="m" horiz-adv-x="1536" d="M113 0l88 1024h221l10 -104q108 122 256 122h2q180 0 230 -118q112 118 271 118h3q141 0 199.5 -68.5t58.5 -228.5q0 -70 -6 -131l-53 -614h-273l54 621q4 45 4 81q0 57 -17.5 81t-62.5 24q-63 0 -107.5 -65.5t-50.5 -145.5l-51 -596h-273l54 621q4 45 4 81 q0 57 -17.5 81t-62.5 24q-70 0 -112 -82t-50 -174l-47 -551h-272z" />
<glyph unicode="n" horiz-adv-x="1073" d="M113 0l88 1024h221l10 -109q113 127 279 127q152 0 215 -73.5t63 -235.5q0 -41 -6 -119l-53 -614h-273l54 608q4 41 4 80q0 70 -23.5 94.5t-77.5 24.5q-80 0 -127 -83t-55 -173l-47 -551h-272z" />
<glyph unicode="o" horiz-adv-x="1085" d="M127 414q0 326 113.5 475t375.5 149q201 0 301.5 -101t100.5 -312q0 -27 -4 -93q-27 -313 -137.5 -429.5t-352.5 -116.5q-203 0 -300 94t-97 334zM403 385q0 -100 31 -139t109 -39q94 0 134 62.5t56 232.5q6 63 6 112q0 113 -33.5 158t-109.5 45q-92 0 -131 -67.5 t-55 -247.5q-6 -68 -7 -117z" />
<glyph unicode="p" horiz-adv-x="1062" d="M82 -348l119 1372h221l10 -113q115 131 279 131q282 0 282 -359q0 -36 -1.5 -67.5t-4.5 -58.5q-29 -322 -146.5 -448.5t-379.5 -126.5q-55 0 -78 2l-29 -332h-272zM403 219q66 -4 97 -4q219 0 219 432q0 92 -25 127t-76 35q-74 0 -120.5 -68.5t-63.5 -158.5z" />
<glyph unicode="q" horiz-adv-x="1079" d="M123 346q0 63 6 139q27 311 148.5 434t384.5 123q150 0 350 -49l-117 -1341h-272l36 430q-104 -100 -247 -100q-152 0 -220.5 84t-68.5 280zM399 369q0 -90 24 -122t81 -32q76 0 124 70.5t62 160.5l31 357q-49 6 -98 6q-106 0 -165 -93t-59 -347z" />
<glyph unicode="r" horiz-adv-x="722" d="M113 0l88 1024h221l12 -129q94 147 228 147q49 0 90 -8l-25 -282q-45 12 -88 12q-86 0 -144.5 -78t-68.5 -203l-41 -483h-272z" />
<glyph unicode="s" horiz-adv-x="870" d="M76 14l20 232q152 -35 242 -35q86 0 131 23.5t45 84.5q0 39 -25.5 57.5t-95.5 33.5q-262 53 -262 272q0 193 109.5 276.5t337.5 83.5q121 0 243 -30l-20 -234q-117 35 -242 35q-80 0 -113.5 -22.5t-33.5 -73.5q0 -31 27.5 -45.5t97.5 -30.5q260 -56 260 -283 q0 -211 -115 -293.5t-328 -82.5q-152 0 -278 32z" />
<glyph unicode="t" horiz-adv-x="712" d="M88 788l21 236h133l22 246h273l-23 -246h205l-21 -236h-204l-37 -440q0 -16 -1 -29.5t-2 -20.5t-1 -9q0 -74 77 -74q59 0 129 18l-18 -227q-83 -24 -207 -24h-10q-139 0 -193.5 61t-54.5 186q0 27 4 88l41 471h-133z" />
<glyph unicode="u" horiz-adv-x="1060" d="M131 295q0 27 4 100l55 629h273l-51 -600q0 -18 -3 -51t-3 -41q0 -68 22.5 -91.5t73.5 -23.5q78 0 122 81t52 175l47 551h272l-88 -1024h-221l-10 102q-110 -120 -267 -120h-3q-150 0 -212.5 75.5t-62.5 237.5z" />
<glyph unicode="v" horiz-adv-x="1007" d="M109 1022h280l111 -827l256 827h278l-354 -1024h-395z" />
<glyph unicode="w" horiz-adv-x="1314" d="M98 1024h269l28 -782l201 598h242l88 -598l166 782h260l-246 -1024h-358l-68 504l-164 -504h-348z" />
<glyph unicode="x" horiz-adv-x="1034" d="M31 0l350 535l-229 489h305l104 -244l146 244h307l-320 -469l269 -555h-308l-129 309l-186 -309h-309z" />
<glyph unicode="y" horiz-adv-x="1009" d="M109 1024h286l129 -797l244 797h268l-358 -1110q-90 -276 -316 -276q-123 0 -184 10l21 231q49 -6 100 -6q82 0 109 90l10 37h-70z" />
<glyph unicode="z" horiz-adv-x="856" d="M41 0l18 227l476 578h-383l18 219h692l-20 -246l-471 -559h401l-18 -219h-713z" />
<glyph unicode="{" horiz-adv-x="706" d="M90 573l25 287q66 0 116 42t56 130l28 340q29 322 314 322q63 0 110 -11l-18 -221q-37 6 -57 6q-78 0 -84 -75l-35 -402q-12 -129 -74.5 -198.5t-144.5 -81.5q72 -10 122 -71.5t50 -168.5q0 -23 -4 -59l-29 -330q-4 -49 -4 -51q0 -66 71 -66q20 0 58 6l-19 -221 q-51 -10 -114 -10q-109 0 -183.5 69.5t-74.5 206.5q0 20 4 66l22 248q0 8 2 31.5t4 42t2 20.5q0 78 -40.5 113.5t-102.5 35.5z" />
<glyph unicode="|" horiz-adv-x="634" d="M143 -225l164 1884h266l-163 -1884h-267z" />
<glyph unicode="}" horiz-adv-x="706" d="M49 -250l19 221q37 -6 57 -6q78 0 84 76l35 401q12 129 75.5 199t143.5 82q-72 12 -122 72.5t-50 167.5q0 14 4 59l31 330q2 25 2 51q0 66 -72 65q-20 0 -57 -6l18 221q55 10 115 11q109 0 183.5 -70t74.5 -207q0 -20 -4 -65l-25 -299q-4 -41 -4 -47q0 -74 41 -110 t100 -36l-24 -287q-63 0 -112.5 -42t-57.5 -130l-31 -340q-29 -322 -313 -321q-59 0 -111 10z" />
<glyph unicode="~" horiz-adv-x="1044" d="M174 483l21 246q119 68 221 68q61 0 165.5 -40t155.5 -40q90 0 201 69l-20 -245q-109 -68 -220 -68q-63 0 -163.5 42t-155.5 42q-88 0 -205 -74z" />
<glyph unicode="&#xa1;" horiz-adv-x="552" d="M82 -410l84 967h276l-84 -967h-276zM168 758l22 266h308l-23 -266h-307z" />
<glyph unicode="&#xa2;" d="M170 393q0 297 83 448.5t259 186.5l18 201h256l-18 -199q74 -12 100 -18l-20 -240q-133 29 -219 29q-76 0 -118 -63.5t-58 -248.5q-4 -57 -4 -79q0 -104 30.5 -147.5t93.5 -43.5q61 0 228 29l-21 -238q-35 -8 -102 -20l-19 -215h-256l19 213q-125 20 -188.5 112.5 t-63.5 292.5z" />
<glyph unicode="&#xa3;" d="M84 0l18 231h134l34 404h-131l21 231h131l6 54q20 219 63 329.5t126 154.5t243 44q119 0 227 -21l-20 -237q-90 23 -162 22q-115 0 -147.5 -47t-48.5 -231l-7 -68h213l-20 -231h-213l-35 -404h354l-18 -231h-768z" />
<glyph unicode="&#xa4;" horiz-adv-x="1167" d="M68 231l147 148q-41 96 -41 235q0 133 43 234l-149 149l174 174l135 -135q104 63 248 64q139 0 247 -64l136 135l174 -174l-140 -139q53 -106 54 -244q0 -135 -54 -245l140 -138l-174 -174l-134 131q-102 -59 -249 -59q-150 0 -252 59l-131 -131zM424 614.5 q0 -120.5 51 -193.5t149.5 -73t149.5 74t51 192.5t-51 192.5t-149.5 74t-149.5 -73t-51 -193.5z" />
<glyph unicode="&#xa5;" d="M121 236l18 215h213l6 92h-211l19 215h186l-227 676h289l133 -457l213 457h287l-357 -676h193l-19 -215h-219l-6 -92h217l-18 -215h-217l-21 -236h-287l21 236h-213z" />
<glyph unicode="&#xa6;" horiz-adv-x="634" d="M143 -225l64 737h266l-63 -737h-267zM244 922l63 737h266l-63 -737h-266z" />
<glyph unicode="&#xa7;" d="M133 12l21 234q113 -35 235 -35q76 0 111 21.5t35 72.5q0 59 -117 80q-260 49 -260 272q0 172 145 279q-78 57 -78 186q0 172 110.5 251t342.5 79q102 0 225 -31l-20 -233q-113 35 -234 35q-78 0 -112.5 -20.5t-34.5 -69.5q0 -61 116 -84q137 -25 200 -93.5t63 -181.5 q0 -170 -148 -268q39 -29 59.5 -84t20.5 -107q0 -172 -111.5 -252.5t-341.5 -80.5q-104 0 -227 30zM432 698q0 -84 86 -106q39 16 63.5 55t24.5 84q0 47 -20.5 72.5t-67.5 36.5q-86 -37 -86 -142z" />
<glyph unicode="&#xa8;" horiz-adv-x="778" d="M129 1147l23 235h266l-23 -235h-266zM539 1147l22 235h266l-22 -235h-266z" />
<glyph unicode="&#xa9;" horiz-adv-x="1658" d="M184 717q0 358 163 546.5t534 188.5q369 0 522 -187.5t153 -547.5q0 -362 -152.5 -548.5t-522.5 -186.5q-375 0 -536 185t-161 550zM424 716.5q0 -147.5 17.5 -238.5t65.5 -162.5t139 -102.5t234.5 -31t231.5 31t133 104.5t58.5 161.5t13.5 237.5t-13.5 237.5t-58.5 162 t-133 104.5t-231 30.5q-145 0 -235.5 -30.5t-139.5 -101t-65.5 -163t-16.5 -240zM643 729q0 164 27.5 249t80 112.5t148.5 27.5q84 0 143 -16v-150q-55 12 -108 13q-51 0 -69.5 -12.5t-29 -61.5t-10.5 -170q0 -123 11.5 -175t31 -64.5t68.5 -12.5t106 12v-149 q-66 -16 -155 -17q-135 0 -189.5 85t-54.5 329z" />
<glyph unicode="&#xaa;" horiz-adv-x="882" d="M106 0l21 236h616l-20 -236h-617zM168 924q0 47 6 106q20 231 112.5 324.5t278.5 93.5q117 0 252 -37l-47 -541q0 -41 51 -41l-12 -163h-84q-119 0 -135 86q-80 -100 -207 -101q-113 0 -164 62.5t-51 210.5zM385 924q0 -53 14.5 -69.5t53.5 -16.5q102 0 116 182l21 240 q-10 0 -28.5 1t-26.5 1q-74 0 -112 -68t-38 -270z" />
<glyph unicode="&#xab;" horiz-adv-x="952" d="M135 612l215 424h223l-163 -424l86 -424h-220zM483 612l215 424h224l-164 -424l86 -424h-219z" />
<glyph unicode="&#xac;" horiz-adv-x="1177" d="M145 502l21 235h932l-45 -520h-246l22 285h-684z" />
<glyph unicode="&#xad;" horiz-adv-x="1013" d="M176 502l21 235h706l-20 -235h-707z" />
<glyph unicode="&#xae;" horiz-adv-x="1658" d="M184 717q0 358 163 546.5t534 188.5q369 0 522 -187.5t153 -547.5q0 -362 -152.5 -548.5t-522.5 -186.5q-375 0 -536 185t-161 550zM424 716.5q0 -147.5 17.5 -238.5t65.5 -162.5t139 -102.5t234.5 -31t231.5 31t133 104.5t58.5 161.5t13.5 237.5t-13.5 237.5t-58.5 162 t-133 104.5t-231 30.5q-145 0 -235.5 -30.5t-139.5 -101t-65.5 -163t-16.5 -240zM655 326v788q123 8 217 8q135 0 190.5 -61t55.5 -182q0 -168 -106 -226l153 -327h-190l-125 301h-25v-301h-170zM825 774h21q57 0 77.5 18.5t20.5 82t-15.5 84t-68.5 20.5l-35 -4v-201z" />
<glyph unicode="&#xaf;" horiz-adv-x="706" d="M135 1210l21 224h604l-21 -224h-604z" />
<glyph unicode="&#xb0;" horiz-adv-x="784" d="M115 1061q0 387 381 387q156 0 240.5 -74t84.5 -219q0 -31 -2 -47q-31 -350 -383 -350q-154 0 -237.5 77.5t-83.5 225.5zM346 1079q0 -129 107 -129q119 0 133 160q2 10 2 31q0 119 -109 119q-133 0 -133 -181z" />
<glyph unicode="&#xb1;" horiz-adv-x="1126" d="M133 0l21 236h839l-20 -236h-840zM164 502l20 235h308l28 324h250l-29 -324h308l-21 -235h-307l-16 -180h-250l16 180h-307z" />
<glyph unicode="&#xb2;" horiz-adv-x="839" d="M131 420l21 213l229 254q78 78 105.5 134t27.5 136q0 92 -115 92q-61 0 -170 -22l17 198q4 0 29.5 4.5t52 8.5t63.5 7t66 3q135 0 214 -77t79 -208q0 -197 -117 -323l-203 -219h285l-19 -201h-565z" />
<glyph unicode="&#xb3;" horiz-adv-x="839" d="M158 426l16 192q102 -23 170 -22q141 0 141 154q0 119 -120 118h-89l17 187h74q84 0 111.5 32.5t27.5 94.5q0 76 -103 75q-55 0 -167 -24l16 192q102 23 209 23q147 0 213.5 -56.5t66.5 -179.5q0 -80 -35.5 -152.5t-111.5 -92.5q53 -14 91 -72t38 -115q0 -195 -86 -284.5 t-258 -89.5q-125 0 -221 20z" />
<glyph unicode="&#xb4;" horiz-adv-x="641" d="M133 1188l227 276h336l-336 -276h-227z" />
<glyph unicode="&#xb5;" horiz-adv-x="1071" d="M70 -348l63 719q0 16 2 24l55 629h273l-57 -637q-2 -18 -3 -43v-18q0 -109 99 -109q78 0 122 82t52 174l47 551h272l-88 -1024h-221l-10 102q-111 -121 -270 -120q-25 0 -35 2l-29 -332h-272z" />
<glyph unicode="&#xb6;" horiz-adv-x="1136" d="M154 1030q0 240 102 331t279 91q59 0 121.5 -5t96.5 -9l33 -4l-20 -220q-96 18 -170 19q-106 0 -147 -37t-41 -137q0 -113 120 -113h215l-81 -946h-259l62 725h-39q-111 0 -191.5 67.5t-80.5 237.5zM496 -350l22 221q88 -10 127 -10q53 0 75.5 23.5t27.5 78.5l129 1471 h251l-129 -1475q-18 -199 -85.5 -259t-245.5 -60q-80 0 -172 10z" />
<glyph unicode="&#xb7;" horiz-adv-x="512" d="M125 500l22 266h308l-23 -266h-307z" />
<glyph unicode="&#xb8;" horiz-adv-x="688" d="M74 -438l14 178q66 -10 111 -10q86 0 86 47q0 27 -34 37t-132 10l69 278h197l-35 -141q162 -20 162 -172q0 -111 -70.5 -177.5t-214.5 -66.5q-79 1 -153 17z" />
<glyph unicode="&#xb9;" horiz-adv-x="839" d="M172 420l18 205h170l54 596l-195 -80l19 215l178 78h252l-72 -809h137l-18 -205h-543z" />
<glyph unicode="&#xba;" horiz-adv-x="888" d="M98 0l21 236h643l-21 -236h-643zM180 979q0 248 84 360.5t287 112.5q301 0 301 -313q0 -21 -4 -70q-20 -238 -103 -327t-266 -89q-147 0 -223 73t-76 253zM403 975q0 -76 21.5 -111t71.5 -35q59 0 87 51.5t38 168.5q6 55 6 96q0 76 -20.5 103.5t-71.5 27.5 q-66 0 -99 -63.5t-33 -237.5z" />
<glyph unicode="&#xbb;" horiz-adv-x="952" d="M96 188l164 424l-86 424h219l142 -424l-216 -424h-223zM444 188l164 424l-86 424h219l142 -424l-215 -424h-224z" />
<glyph unicode="&#xbc;" horiz-adv-x="1792" d="M121 420l18 205h170l53 596l-194 -80l18 215l179 78h251l-71 -809h137l-18 -205h-543zM436 -205l795 1864h244l-797 -1864h-242zM1085 240l19 213l194 561h226l-201 -582h78l51 232h199l-21 -232l92 -12l-16 -180h-92l-23 -240h-233l22 240h-295z" />
<glyph unicode="&#xbd;" horiz-adv-x="1792" d="M121 420l18 205h170l53 596l-194 -80l18 215l179 78h251l-71 -809h137l-18 -205h-543zM446 -205l795 1864h244l-797 -1864h-242zM1190 0l20 213l230 254q78 78 105.5 134t27.5 136q0 92 -115 92q-61 0 -170 -22l17 199q4 0 29.5 4t52 8t63.5 7t66 3q135 0 213.5 -77 t78.5 -208q0 -197 -116 -323l-203 -219h285l-19 -201h-565z" />
<glyph unicode="&#xbe;" horiz-adv-x="1792" d="M141 426l17 192q100 -23 170 -22q141 0 141 154q0 119 -121 118h-88l16 187h74q84 0 111.5 32.5t27.5 94.5q0 76 -102 75q-55 0 -168 -24l17 192q100 23 208 23q147 0 214 -56.5t67 -179.5q0 -80 -36 -152.5t-111 -92.5q53 -14 91 -72t38 -115q0 -195 -86 -284.5 t-259 -89.5q-125 0 -221 20zM414 -205l794 1864h244l-797 -1864h-241zM1071 240l19 213l194 561h225l-200 -582h77l52 232h198l-20 -232h92l-16 -192h-93l-22 -240h-234l23 240h-295z" />
<glyph unicode="&#xbf;" horiz-adv-x="778" d="M31 -125q0 19 4 68q8 100 36.5 159.5t96.5 135.5l166 180l12 139h277l-19 -223l-182 -201q-70 -76 -91.5 -116t-21.5 -111q0 -55 32 -78t122 -23q88 0 219 31l-20 -235q-129 -29 -265 -29q-184 0 -275 63.5t-91 239.5zM348 758l23 266h307l-23 -266h-307z" />
<glyph unicode="&#xc0;" horiz-adv-x="1116" d="M10 0l449 1434h413l193 -1434h-283l-37 334h-348l-94 -334h-293zM324 1722h329l193 -235h-221zM465 575h256l-68 678z" />
<glyph unicode="&#xc1;" horiz-adv-x="1116" d="M10 0l449 1434h413l193 -1434h-283l-37 334h-348l-94 -334h-293zM444 1487l234 235h330l-322 -235h-242zM465 575h256l-68 678z" />
<glyph unicode="&#xc2;" horiz-adv-x="1116" d="M10 0l449 1434h413l193 -1434h-283l-37 334h-348l-94 -334h-293zM299 1495l246 236h311l207 -236h-297l-70 125l-94 -125h-303zM465 575h256l-68 678z" />
<glyph unicode="&#xc3;" horiz-adv-x="1116" d="M10 0l449 1434h413l193 -1434h-283l-37 334h-348l-94 -334h-293zM342 1481l18 215q84 66 201 65q49 0 149.5 -40t139.5 -40q100 0 190 74l-18 -215q-74 -66 -203 -65q-53 0 -148.5 39.5t-138.5 39.5q-104 1 -190 -73zM465 575h256l-68 678z" />
<glyph unicode="&#xc4;" horiz-adv-x="1116" d="M10 0l449 1434h413l193 -1434h-283l-37 334h-348l-94 -334h-293zM326 1495l22 236h266l-22 -236h-266zM465 575h256l-68 678zM735 1495l23 236h266l-23 -236h-266z" />
<glyph unicode="&#xc5;" horiz-adv-x="1116" d="M10 0l447 1427q-16 45 -17 99q0 287 262 286q104 0 161 -55t57 -158q0 -24 -2 -36q-10 -98 -44 -150l191 -1413h-283l-37 334h-348l-94 -334h-293zM465 575h256l-68 678zM621 1528q0 -63 51 -64q33 0 47 24t18 77q2 14 2 37q0 63 -51 63q-39 0 -53 -33t-14 -104z" />
<glyph unicode="&#xc6;" horiz-adv-x="1599" d="M10 0l555 1434h996l-21 -222h-547l23 -362h477l-20 -219h-445l27 -410h440l-18 -221h-705l-10 334h-336l-123 -334h-293zM512 575h242l-19 613z" />
<glyph unicode="&#xc7;" horiz-adv-x="886" d="M135 510q0 121 10 229q16 186 47 313.5t71 205t106.5 119.5t138.5 56.5t180 14.5q41 0 119 -10.5t100 -18.5l-20 -250q-121 33 -246 33q-63 0 -99 -29.5t-66 -135t-48 -312.5q-12 -111 -12 -248q0 -147 31.5 -196.5t107.5 -49.5q119 0 252 31l-23 -248q-47 -14 -190 -26 l-6 -27q162 -20 162 -172q0 -111 -71 -177.5t-214 -66.5q-80 1 -154 17l15 178q66 -10 110 -10q86 0 86 47q0 27 -33.5 37t-132.5 10l43 174q-133 29 -198.5 145.5t-65.5 366.5z" />
<glyph unicode="&#xc8;" horiz-adv-x="978" d="M123 0l125 1434h733l-20 -222h-453l-31 -362h402l-21 -219h-401l-35 -410h452l-18 -221h-733zM328 1722h329l193 -235h-221z" />
<glyph unicode="&#xc9;" horiz-adv-x="978" d="M123 0l125 1434h733l-20 -222h-453l-31 -362h402l-21 -219h-401l-35 -410h452l-18 -221h-733zM414 1487l233 235h330l-322 -235h-241z" />
<glyph unicode="&#xca;" horiz-adv-x="978" d="M123 0l125 1434h733l-20 -222h-453l-31 -362h402l-21 -219h-401l-35 -410h452l-18 -221h-733zM238 1495l245 236h312l206 -236h-296l-70 125l-94 -125h-303z" />
<glyph unicode="&#xcb;" horiz-adv-x="978" d="M123 0l125 1434h733l-20 -222h-453l-31 -362h402l-21 -219h-401l-35 -410h452l-18 -221h-733zM272 1475l23 235h266l-22 -235h-267zM682 1475l23 235h266l-23 -235h-266z" />
<glyph unicode="&#xcc;" horiz-adv-x="710" d="M51 0l19 217h143l86 1000h-143l20 217h567l-20 -217h-143l-86 -1000h143l-19 -217h-567zM178 1722h330l192 -235h-221z" />
<glyph unicode="&#xcd;" horiz-adv-x="710" d="M51 0l19 217h143l86 1000h-143l20 217h567l-20 -217h-143l-86 -1000h143l-19 -217h-567zM221 1487l234 235h329l-321 -235h-242z" />
<glyph unicode="&#xce;" horiz-adv-x="710" d="M51 0l19 217h143l86 1000h-143l20 217h567l-20 -217h-143l-86 -1000h143l-19 -217h-567zM82 1495l246 236h311l207 -236h-297l-70 125l-94 -125h-303z" />
<glyph unicode="&#xcf;" horiz-adv-x="710" d="M51 0l19 217h143l86 1000h-143l20 217h567l-20 -217h-143l-86 -1000h143l-19 -217h-567zM117 1475l22 235h267l-23 -235h-266zM526 1475l23 235h266l-22 -235h-267z" />
<glyph unicode="&#xd0;" horiz-adv-x="1118" d="M98 666l21 235h82l47 533q250 20 364 20q111 0 188 -21.5t141.5 -77t95 -162t30.5 -267.5q0 -97 -8 -187q-20 -227 -60.5 -375.5t-110 -233.5t-158.5 -117.5t-222 -32.5q-66 0 -162 5t-160 10l-63 5l57 666h-82zM424 236q37 -8 123 -9q98 0 149 106.5t76 391.5 q12 145 12 233q0 156 -33.5 202t-115.5 46l-127 -8l-27 -297h201l-20 -235h-201z" />
<glyph unicode="&#xd1;" horiz-adv-x="1212" d="M123 0l125 1434h407l172 -1174l103 1174h244l-125 -1434h-408l-170 1151l-100 -1151h-248zM379 1481l18 215q84 66 201 65q49 0 150.5 -40t138.5 -40q100 0 190 74l-18 -215q-74 -66 -203 -65q-53 0 -148.5 39.5t-138.5 39.5q-104 1 -190 -73z" />
<glyph unicode="&#xd2;" horiz-adv-x="1163" d="M133 496q0 109 12 237q12 156 32 261.5t57.5 198.5t96 147.5t146.5 84t211 29.5q233 0 329.5 -125t96.5 -391q0 -82 -10 -205q-14 -166 -32.5 -272.5t-55.5 -206.5t-94.5 -155.5t-146.5 -87t-216 -31.5q-236 0 -331 123.5t-95 392.5zM336 1722h330l192 -235h-221z M416 487q0 -162 38 -224t124 -62q111 0 161.5 108.5t77.5 413.5q12 143 12 238q0 158 -36.5 215t-124.5 57q-113 0 -163 -101.5t-77 -408.5q-12 -137 -12 -236z" />
<glyph unicode="&#xd3;" horiz-adv-x="1163" d="M133 496q0 109 12 237q12 156 32 261.5t57.5 198.5t96 147.5t146.5 84t211 29.5q233 0 329.5 -125t96.5 -391q0 -82 -10 -205q-14 -166 -32.5 -272.5t-55.5 -206.5t-94.5 -155.5t-146.5 -87t-216 -31.5q-236 0 -331 123.5t-95 392.5zM416 487q0 -162 38 -224t124 -62 q111 0 161.5 108.5t77.5 413.5q12 143 12 238q0 158 -36.5 215t-124.5 57q-113 0 -163 -101.5t-77 -408.5q-12 -137 -12 -236zM510 1487l233 235h330l-321 -235h-242z" />
<glyph unicode="&#xd4;" horiz-adv-x="1163" d="M133 496q0 109 12 237q12 156 32 261.5t57.5 198.5t96 147.5t146.5 84t211 29.5q233 0 329.5 -125t96.5 -391q0 -82 -10 -205q-14 -166 -32.5 -272.5t-55.5 -206.5t-94.5 -155.5t-146.5 -87t-216 -31.5q-236 0 -331 123.5t-95 392.5zM309 1495l246 236h311l207 -236h-297 l-69 125l-95 -125h-303zM416 487q0 -162 38 -224t124 -62q111 0 161.5 108.5t77.5 413.5q12 143 12 238q0 158 -36.5 215t-124.5 57q-113 0 -163 -101.5t-77 -408.5q-12 -137 -12 -236z" />
<glyph unicode="&#xd5;" horiz-adv-x="1163" d="M133 496q0 109 12 237q12 156 32 261.5t57.5 198.5t96 147.5t146.5 84t211 29.5q233 0 329.5 -125t96.5 -391q0 -82 -10 -205q-14 -166 -32.5 -272.5t-55.5 -206.5t-94.5 -155.5t-146.5 -87t-216 -31.5q-236 0 -331 123.5t-95 392.5zM346 1481l19 215q84 66 200 65 q49 0 149.5 -40t139.5 -40q100 0 190 74l-18 -215q-74 -66 -203 -65q-53 0 -148 39.5t-138 39.5q-105 1 -191 -73zM416 487q0 -162 38 -224t124 -62q111 0 161.5 108.5t77.5 413.5q12 143 12 238q0 158 -36.5 215t-124.5 57q-113 0 -163 -101.5t-77 -408.5 q-12 -137 -12 -236z" />
<glyph unicode="&#xd6;" horiz-adv-x="1163" d="M133 496q0 109 12 237q12 156 32 261.5t57.5 198.5t96 147.5t146.5 84t211 29.5q233 0 329.5 -125t96.5 -391q0 -82 -10 -205q-14 -166 -32.5 -272.5t-55.5 -206.5t-94.5 -155.5t-146.5 -87t-216 -31.5q-236 0 -331 123.5t-95 392.5zM342 1495l23 236h266l-23 -236h-266z M416 487q0 -162 38 -224t124 -62q111 0 161.5 108.5t77.5 413.5q12 143 12 238q0 158 -36.5 215t-124.5 57q-113 0 -163 -101.5t-77 -408.5q-12 -137 -12 -236zM752 1495l22 236h266l-22 -236h-266z" />
<glyph unicode="&#xd7;" horiz-adv-x="1167" d="M211 375l240 239l-240 240l174 174l240 -240l239 240l174 -174l-239 -240l239 -239l-174 -174l-239 239l-240 -239z" />
<glyph unicode="&#xd8;" horiz-adv-x="1122" d="M143 496q0 109 13 237q12 156 31.5 261.5t57.5 198.5t96 147.5t146 84t211 29.5q57 0 119 -10l72 176h205l-105 -252q135 -119 135 -430q0 -82 -10 -205q-14 -166 -32.5 -272.5t-55.5 -206.5t-94.5 -155.5t-146.5 -87t-216 -31.5q-72 0 -143 14l-74 -180h-202l108 266 q-115 117 -115 416zM426 487l301 740q-22 6 -49 6q-113 0 -163 -101.5t-77 -408.5q-12 -137 -12 -236zM516 213q31 -12 72 -12q111 0 161.5 108.5t77.5 413.5q12 143 13 238v40z" />
<glyph unicode="&#xd9;" horiz-adv-x="1136" d="M145 369q0 23 5 71l88 994h280l-88 -1002q-4 -57 -4 -61q0 -143 141 -144q154 0 170 174l90 1033h281l-88 -994q-23 -250 -133.5 -352t-339.5 -102q-401 0 -402 383zM315 1722h330l193 -235h-222z" />
<glyph unicode="&#xda;" horiz-adv-x="1136" d="M145 369q0 23 5 71l88 994h280l-88 -1002q-4 -57 -4 -61q0 -143 141 -144q154 0 170 174l90 1033h281l-88 -994q-23 -250 -133.5 -352t-339.5 -102q-401 0 -402 383zM520 1487l234 235h329l-321 -235h-242z" />
<glyph unicode="&#xdb;" horiz-adv-x="1136" d="M145 369q0 23 5 71l88 994h280l-88 -1002q-4 -57 -4 -61q0 -143 141 -144q154 0 170 174l90 1033h281l-88 -994q-23 -250 -133.5 -352t-339.5 -102q-401 0 -402 383zM293 1495l246 236h311l207 -236h-297l-70 125l-94 -125h-303z" />
<glyph unicode="&#xdc;" horiz-adv-x="1136" d="M145 369q0 23 5 71l88 994h280l-88 -1002q-4 -57 -4 -61q0 -143 141 -144q154 0 170 174l90 1033h281l-88 -994q-23 -250 -133.5 -352t-339.5 -102q-401 0 -402 383zM346 1495l23 236h266l-23 -236h-266zM756 1495l22 236h266l-22 -236h-266z" />
<glyph unicode="&#xdd;" horiz-adv-x="1087" d="M125 1434h297l178 -553l277 553h294l-454 -803l-53 -631h-287l53 631zM510 1487l233 235h330l-332 -235h-231z" />
<glyph unicode="&#xde;" horiz-adv-x="1085" d="M123 0l125 1434h280l-20 -222q16 0 48 1t48 1q231 0 333.5 -98t102.5 -295q0 -27 -4 -84q-23 -266 -138.5 -374.5t-356.5 -108.5h-117l-21 -254h-280zM446 496h129q72 0 118.5 61.5t56.5 165.5q4 49 4 72q0 88 -31 131t-102 43q-39 0 -73 -3t-48 -7l-15 -3z" />
<glyph unicode="&#xdf;" horiz-adv-x="1099" d="M113 0l90 1030q18 197 114.5 309.5t325.5 112.5q156 0 255 -76t99 -205q0 -111 -59 -327q-109 0 -153 -22.5t-44 -78.5q0 -47 64 -69q213 -72 213 -291t-102.5 -310t-292.5 -91q-98 0 -187 18l19 233q68 -23 133 -22q80 0 113.5 36t33.5 109q0 49 -27.5 79t-89.5 54 q-143 57 -143 228q0 119 66.5 206t179.5 93q27 47 27 110q0 96 -125 97q-72 0 -105 -41t-41 -138l-90 -1044h-274z" />
<glyph unicode="&#xe0;" horiz-adv-x="1067" d="M117 342q0 67 6 143q27 311 145.5 434t374.5 123q156 0 336 -49l-61 -733q0 -55 73 -55l-16 -205h-119q-154 0 -178 117q-109 -135 -277 -135q-150 0 -217 82.5t-67 277.5zM348 1464h326l188 -276h-217zM393 362q0 -86 23 -116.5t78 -30.5q74 0 116.5 73.5t51.5 164.5 l28 352q-57 4 -86 4q-61 0 -104 -32t-75 -135t-32 -280z" />
<glyph unicode="&#xe1;" horiz-adv-x="1067" d="M117 342q0 67 6 143q27 311 145.5 434t374.5 123q156 0 336 -49l-61 -733q0 -55 73 -55l-16 -205h-119q-154 0 -178 117q-109 -135 -277 -135q-150 0 -217 82.5t-67 277.5zM393 362q0 -86 23 -116.5t78 -30.5q74 0 116.5 73.5t51.5 164.5l28 352q-57 4 -86 4 q-61 0 -104 -32t-75 -135t-32 -280zM467 1188l227 276h336l-336 -276h-227z" />
<glyph unicode="&#xe2;" horiz-adv-x="1067" d="M117 342q0 67 6 143q27 311 145.5 434t374.5 123q156 0 336 -49l-61 -733q0 -55 73 -55l-16 -205h-119q-154 0 -178 117q-109 -135 -277 -135q-150 0 -217 82.5t-67 277.5zM242 1188l274 276h303l228 -276h-295l-88 151l-117 -151h-305zM393 362q0 -86 23 -116.5 t78 -30.5q74 0 116.5 73.5t51.5 164.5l28 352q-57 4 -86 4q-61 0 -104 -32t-75 -135t-32 -280z" />
<glyph unicode="&#xe3;" horiz-adv-x="1067" d="M117 342q0 67 6 143q27 311 145.5 434t374.5 123q156 0 336 -49l-61 -733q0 -55 73 -55l-16 -205h-119q-154 0 -178 117q-109 -135 -277 -135q-150 0 -217 82.5t-67 277.5zM301 1194l18 215q84 66 201 66q49 0 149.5 -40t139.5 -40q100 0 190 73l-18 -215 q-74 -66 -203 -65q-53 0 -148 40t-138 40q-105 0 -191 -74zM393 362q0 -86 23 -116.5t78 -30.5q74 0 116.5 73.5t51.5 164.5l28 352q-57 4 -86 4q-61 0 -104 -32t-75 -135t-32 -280z" />
<glyph unicode="&#xe4;" horiz-adv-x="1067" d="M117 342q0 67 6 143q27 311 145.5 434t374.5 123q156 0 336 -49l-61 -733q0 -55 73 -55l-16 -205h-119q-154 0 -178 117q-109 -135 -277 -135q-150 0 -217 82.5t-67 277.5zM293 1147l22 235h267l-23 -235h-266zM393 362q0 -86 23 -116.5t78 -30.5q74 0 116.5 73.5 t51.5 164.5l28 352q-57 4 -86 4q-61 0 -104 -32t-75 -135t-32 -280zM702 1147l23 235h266l-22 -235h-267z" />
<glyph unicode="&#xe5;" horiz-adv-x="1067" d="M117 342q0 67 6 143q27 311 145.5 434t374.5 123q156 0 336 -49l-61 -733q0 -55 73 -55l-16 -205h-119q-154 0 -178 117q-109 -135 -277 -135q-150 0 -217 82.5t-67 277.5zM393 362q0 -86 23 -116.5t78 -30.5q74 0 116.5 73.5t51.5 164.5l28 352q-57 4 -86 4 q-61 0 -104 -32t-75 -135t-32 -280zM416 1284q0 287 262 287q104 0 160.5 -55.5t56.5 -157.5q0 -25 -2 -37q-10 -123 -71.5 -186.5t-188.5 -63.5q-104 0 -160.5 55.5t-56.5 157.5zM596 1286q0 -63 51 -63q33 0 47.5 23.5t18.5 76.5q2 14 2 37q0 63 -51 63q-39 0 -53.5 -32.5 t-14.5 -104.5z" />
<glyph unicode="&#xe6;" horiz-adv-x="1515" d="M104 258q0 205 113 297t342 92q53 0 103 -8l6 55q2 8 2 23q0 100 -129 100q-150 0 -320 -49l21 233q141 41 319 41q209 0 297 -71q102 72 260 71q102 0 175 -29.5t108 -78.5t49 -95.5t14 -93.5q0 -176 -96 -266t-311 -90q-72 0 -139 8q0 -109 30.5 -145.5t124.5 -36.5 q111 0 264 31l-20 -230q-127 -35 -264 -34q-244 0 -330 124q-104 -125 -330 -124q-289 0 -289 276zM385 301q1 -90 107 -90q76 0 109.5 46t37.5 101l6 80q-51 10 -102 11q-72 0 -115 -39t-43 -109zM938 608q45 -6 88 -6q170 0 170 111q0 51 -20.5 77.5t-82 26.5t-98.5 -48 t-57 -161z" />
<glyph unicode="&#xe7;" horiz-adv-x="835" d="M123 395q0 346 112.5 496.5t354.5 150.5q113 0 231 -28l-20 -240q-133 29 -219 29q-76 0 -118 -63.5t-58 -247.5q-4 -57 -5 -80q0 -104 31 -147.5t94 -43.5q61 0 228 29l-21 -238q-78 -23 -180 -28l-4 -23q162 -20 162 -172q0 -111 -71 -177.5t-214 -66.5q-80 1 -154 17 l15 178q66 -10 110 -10q86 0 86 47q0 27 -33.5 37t-132.5 10l41 170q-117 23 -176 115t-59 286z" />
<glyph unicode="&#xe8;" horiz-adv-x="991" d="M121 393q0 53 6 119q27 281 138.5 405.5t328.5 124.5q102 0 175 -29.5t107.5 -78.5t49 -95.5t14.5 -93.5q0 -176 -94 -264t-309 -88q-92 0 -144 6v-16q0 -96 33 -132t123 -36q111 0 264 31l-20 -230q-127 -35 -265 -34q-100 0 -167.5 15t-126 58t-86 127t-27.5 211z M305 1464h326l188 -276h-217zM414 612q51 -6 96 -6q162 0 162 107q0 51 -20.5 77.5t-82 26.5t-98.5 -46t-57 -159z" />
<glyph unicode="&#xe9;" horiz-adv-x="991" d="M121 393q0 53 6 119q27 281 138.5 405.5t328.5 124.5q102 0 175 -29.5t107.5 -78.5t49 -95.5t14.5 -93.5q0 -176 -94 -264t-309 -88q-92 0 -144 6v-16q0 -96 33 -132t123 -36q111 0 264 31l-20 -230q-127 -35 -265 -34q-100 0 -167.5 15t-126 58t-86 127t-27.5 211z M414 612q51 -6 96 -6q162 0 162 107q0 51 -20.5 77.5t-82 26.5t-98.5 -46t-57 -159zM416 1188l227 276h336l-336 -276h-227z" />
<glyph unicode="&#xea;" horiz-adv-x="991" d="M121 393q0 53 6 119q27 281 138.5 405.5t328.5 124.5q102 0 175 -29.5t107.5 -78.5t49 -95.5t14.5 -93.5q0 -176 -94 -264t-309 -88q-92 0 -144 6v-16q0 -96 33 -132t123 -36q111 0 264 31l-20 -230q-127 -35 -265 -34q-100 0 -167.5 15t-126 58t-86 127t-27.5 211z M188 1188l275 276h303l227 -276h-295l-88 151l-116 -151h-306zM414 612q51 -6 96 -6q162 0 162 107q0 51 -20.5 77.5t-82 26.5t-98.5 -46t-57 -159z" />
<glyph unicode="&#xeb;" horiz-adv-x="991" d="M121 393q0 53 6 119q27 281 138.5 405.5t328.5 124.5q102 0 175 -29.5t107.5 -78.5t49 -95.5t14.5 -93.5q0 -176 -94 -264t-309 -88q-92 0 -144 6v-16q0 -96 33 -132t123 -36q111 0 264 31l-20 -230q-127 -35 -265 -34q-100 0 -167.5 15t-126 58t-86 127t-27.5 211z M262 1147l23 235h266l-23 -235h-266zM414 612q51 -6 96 -6q162 0 162 107q0 51 -20.5 77.5t-82 26.5t-98.5 -46t-57 -159zM672 1147l22 235h267l-23 -235h-266z" />
<glyph unicode="&#xec;" horiz-adv-x="538" d="M27 1464h325l189 -276h-217zM113 0l88 1024h272l-88 -1024h-272z" />
<glyph unicode="&#xed;" horiz-adv-x="538" d="M113 0l88 1024h272l-88 -1024h-272zM156 1188l227 276h336l-336 -276h-227z" />
<glyph unicode="&#xee;" horiz-adv-x="538" d="M-51 1188l274 276h303l228 -276h-295l-88 151l-117 -151h-305zM113 0l88 1024h272l-88 -1024h-272z" />
<glyph unicode="&#xef;" horiz-adv-x="538" d="M10 1147l23 235h266l-23 -235h-266zM113 0l88 1024h272l-88 -1024h-272zM420 1147l22 235h267l-23 -235h-266z" />
<glyph unicode="&#xf0;" horiz-adv-x="1040" d="M117 365q0 42 2 65q23 264 111.5 397.5t289.5 133.5q98 0 180 -43q-8 154 -69 225l-53 -86h-220l103 162q-31 2 -93.5 3t-82.5 1l20 229q193 0 293 -16l64 100h219l-101 -160q199 -115 199 -475q0 -80 -8 -162q-27 -299 -83.5 -460.5t-155.5 -229t-271 -67.5 q-55 0 -109.5 17t-110 56t-90 119t-34.5 191zM389 367q0 -92 27.5 -126t89.5 -34q51 0 81.5 31.5t59.5 144.5t47 326q-73 30 -145 30q-74 0 -117 -100t-43 -272z" />
<glyph unicode="&#xf1;" horiz-adv-x="1073" d="M113 0l88 1024h221l10 -109q113 127 279 127q152 0 215 -73.5t63 -235.5q0 -41 -6 -119l-53 -614h-273l54 608q4 41 4 80q0 70 -23.5 94.5t-77.5 24.5q-80 0 -127 -83t-55 -173l-47 -551h-272zM324 1194l18 215q84 66 201 66q51 0 151.5 -40t136.5 -40q100 0 191 73 l-18 -215q-74 -66 -203 -65q-53 0 -148.5 40t-138.5 40q-104 0 -190 -74z" />
<glyph unicode="&#xf2;" horiz-adv-x="1085" d="M127 414q0 326 113.5 475t375.5 149q201 0 301.5 -101t100.5 -312q0 -27 -4 -93q-27 -313 -137.5 -429.5t-352.5 -116.5q-203 0 -300 94t-97 334zM303 1464h326l188 -276h-217zM403 385q0 -100 31 -139t109 -39q94 0 134 62.5t56 232.5q6 43 6 112q0 113 -33.5 158 t-109.5 45q-92 0 -131 -67.5t-55 -247.5q-6 -68 -7 -117z" />
<glyph unicode="&#xf3;" horiz-adv-x="1085" d="M127 414q0 326 113.5 475t375.5 149q201 0 301.5 -101t100.5 -312q0 -27 -4 -93q-27 -313 -137.5 -429.5t-352.5 -116.5q-203 0 -300 94t-97 334zM403 385q0 -100 31 -139t109 -39q94 0 134 62.5t56 232.5q6 63 6 112q0 113 -33.5 158t-109.5 45q-92 0 -131 -67.5 t-55 -247.5q-6 -68 -7 -117zM430 1188l227 276h336l-336 -276h-227z" />
<glyph unicode="&#xf4;" horiz-adv-x="1085" d="M127 414q0 326 113.5 475t375.5 149q201 0 301.5 -101t100.5 -312q0 -27 -4 -93q-27 -313 -137.5 -429.5t-352.5 -116.5q-203 0 -300 94t-97 334zM223 1188l275 276h303l227 -276h-295l-88 151l-117 -151h-305zM403 385q0 -100 31 -139t109 -39q94 0 134 62.5t56 232.5 q6 63 6 112q0 113 -33.5 158t-109.5 45q-92 0 -131 -67.5t-55 -247.5q-6 -68 -7 -117z" />
<glyph unicode="&#xf5;" horiz-adv-x="1085" d="M127 414q0 326 113.5 475t375.5 149q201 0 301.5 -101t100.5 -312q0 -27 -4 -93q-27 -313 -137.5 -429.5t-352.5 -116.5q-203 0 -300 94t-97 334zM289 1194l18 215q84 66 201 66q49 0 150.5 -40t138.5 -40q100 0 190 73l-18 -215q-74 -66 -203 -65q-53 0 -148.5 40 t-138.5 40q-104 0 -190 -74zM403 385q0 -100 31 -139t109 -39q94 0 134 62.5t56 232.5q6 63 6 112q0 113 -33.5 158t-109.5 45q-92 0 -131 -67.5t-55 -247.5q-6 -68 -7 -117z" />
<glyph unicode="&#xf6;" horiz-adv-x="1085" d="M127 414q0 326 113.5 475t375.5 149q201 0 301.5 -101t100.5 -312q0 -27 -4 -93q-27 -313 -137.5 -429.5t-352.5 -116.5q-203 0 -300 94t-97 334zM289 1147l22 235h267l-23 -235h-266zM403 385q0 -100 31 -139t109 -39q94 0 134 62.5t56 232.5q6 63 6 112 q0 113 -33.5 158t-109.5 45q-92 0 -131 -67.5t-55 -247.5q-6 -68 -7 -117zM698 1147l23 235h266l-22 -235h-267z" />
<glyph unicode="&#xf7;" horiz-adv-x="1126" d="M166 502l20 235h840l-20 -235h-840zM395 92l25 266h307l-25 -266h-307zM465 881l22 266h308l-23 -266h-307z" />
<glyph unicode="&#xf8;" horiz-adv-x="1085" d="M127 414q0 326 113.5 475t375.5 149q57 0 99 -8l84 176h192l-112 -237q139 -98 139 -344q0 -27 -4 -93q-27 -313 -137.5 -429.5t-352.5 -116.5q-39 0 -104 8l-82 -176h-195l111 235q-127 92 -127 361zM403 367l211 450h-18q-92 0 -131 -67.5t-55 -247.5q-7 -68 -7 -117 v-18zM520 207h23q94 0 134 62.5t56 232.5q6 63 6 112q0 10 -1 26.5t-1 25.5z" />
<glyph unicode="&#xf9;" horiz-adv-x="1060" d="M131 295q0 27 4 100l55 629h273l-51 -600q-4 -74 -6 -92q0 -68 22.5 -91.5t73.5 -23.5q78 0 122 81t52 175l47 551h272l-88 -1024h-221l-10 102q-111 -121 -270 -120q-150 0 -212.5 75.5t-62.5 237.5zM250 1464h325l189 -276h-217z" />
<glyph unicode="&#xfa;" horiz-adv-x="1060" d="M131 295q0 27 4 100l55 629h273l-51 -600q-4 -74 -6 -92q0 -68 22.5 -91.5t73.5 -23.5q78 0 122 81t52 175l47 551h272l-88 -1024h-221l-10 102q-111 -121 -270 -120q-150 0 -212.5 75.5t-62.5 237.5zM389 1188l227 276h336l-336 -276h-227z" />
<glyph unicode="&#xfb;" horiz-adv-x="1060" d="M131 295q0 27 4 100l55 629h273l-51 -600q-4 -74 -6 -92q0 -68 22.5 -91.5t73.5 -23.5q78 0 122 81t52 175l47 551h272l-88 -1024h-221l-10 102q-111 -121 -270 -120q-150 0 -212.5 75.5t-62.5 237.5zM205 1188l274 276h303l228 -276h-295l-88 151l-117 -151h-305z" />
<glyph unicode="&#xfc;" horiz-adv-x="1060" d="M131 295q0 27 4 100l55 629h273l-51 -600q-4 -74 -6 -92q0 -68 22.5 -91.5t73.5 -23.5q78 0 122 81t52 175l47 551h272l-88 -1024h-221l-10 102q-111 -121 -270 -120q-150 0 -212.5 75.5t-62.5 237.5zM266 1147l23 235h266l-23 -235h-266zM676 1147l22 235h267l-23 -235 h-266z" />
<glyph unicode="&#xfd;" horiz-adv-x="1009" d="M109 1024h286l129 -797l244 797h268l-358 -1110q-90 -276 -316 -276q-123 0 -184 10l21 231q49 -6 100 -6q82 0 109 90l10 37h-70zM436 1188l228 276h335l-335 -276h-228z" />
<glyph unicode="&#xfe;" horiz-adv-x="1062" d="M82 -348l156 1782h272l-43 -488q102 96 244 96q283 0 282 -362q0 -70 -6 -123q-29 -322 -146.5 -448.5t-379.5 -126.5q-55 0 -78 2l-29 -332h-272zM403 219q66 -4 97 -4q219 0 219 432q0 92 -25 127t-76 35q-74 0 -124 -69.5t-58 -153.5z" />
<glyph unicode="&#xff;" horiz-adv-x="1009" d="M109 1024h286l129 -797l244 797h268l-358 -1110q-90 -276 -316 -276q-123 0 -184 10l21 231q49 -6 100 -6q82 0 109 90l10 37h-70zM240 1147l22 235h266l-22 -235h-266zM649 1147l23 235h266l-23 -235h-266z" />
<glyph unicode="&#x152;" horiz-adv-x="1628" d="M133 502q0 59 12 231q14 156 34 261.5t57.5 198.5t95 147.5t145.5 84t211 29.5q88 0 170 -20h772l-20 -222h-531q33 -111 33 -274q0 -57 -2 -88h418l-21 -219h-415q-31 -276 -95 -410h527l-19 -221h-772q-86 -20 -174 -20q-233 0 -329.5 125.5t-96.5 396.5zM416 487 q0 -162 38 -224t124 -62q111 0 161.5 108.5t77.5 413.5q12 143 12 238q0 158 -36.5 215t-124.5 57q-113 0 -163 -101.5t-77 -408.5q-12 -137 -12 -236z" />
<glyph unicode="&#x153;" horiz-adv-x="1585" d="M121 414q0 326 113.5 475t375.5 149q182 0 283 -100q109 104 295 104q102 0 175 -29.5t107.5 -78.5t49 -95.5t14.5 -93.5q0 -176 -95.5 -265t-310.5 -89q-74 0 -141 8q0 -109 31 -146.5t125 -37.5q111 0 264 31l-21 -230q-127 -35 -264 -34q-207 0 -301 94 q-109 -90 -303 -90q-201 0 -299 95t-98 333zM397 385q0 -100 31 -139t109 -39q94 0 134 62.5t56 232.5q6 63 6 112q0 113 -33.5 158t-109.5 45q-92 0 -131 -67.5t-56 -247.5q-6 -68 -6 -117zM1008 612q49 -6 94 -6q164 0 164 107q0 51 -20.5 77.5t-82 26.5t-98.5 -46 t-57 -159z" />
<glyph unicode="&#x178;" horiz-adv-x="1087" d="M125 1434h297l178 -553l277 553h294l-454 -803l-53 -631h-287l53 631zM311 1475l23 235h266l-22 -235h-267zM721 1475l22 235h267l-23 -235h-266z" />
<glyph unicode="&#x2c6;" horiz-adv-x="886" d="M123 1188l274 276h303l228 -276h-295l-88 151l-117 -151h-305z" />
<glyph unicode="&#x2dc;" horiz-adv-x="778" d="M135 1194l19 215q84 66 200 66q51 0 151.5 -40t137.5 -40q100 0 191 73l-19 -215q-74 -66 -203 -65q-53 0 -148 40t-138 40q-105 0 -191 -74z" />
<glyph unicode="&#x2000;" horiz-adv-x="906" />
<glyph unicode="&#x2001;" horiz-adv-x="1812" />
<glyph unicode="&#x2002;" horiz-adv-x="906" />
<glyph unicode="&#x2003;" horiz-adv-x="1812" />
<glyph unicode="&#x2004;" horiz-adv-x="604" />
<glyph unicode="&#x2005;" horiz-adv-x="453" />
<glyph unicode="&#x2006;" horiz-adv-x="302" />
<glyph unicode="&#x2007;" horiz-adv-x="302" />
<glyph unicode="&#x2008;" horiz-adv-x="226" />
<glyph unicode="&#x2009;" horiz-adv-x="362" />
<glyph unicode="&#x200a;" horiz-adv-x="100" />
<glyph unicode="&#x2010;" horiz-adv-x="1013" d="M176 502l21 235h706l-20 -235h-707z" />
<glyph unicode="&#x2011;" horiz-adv-x="1013" d="M176 502l21 235h706l-20 -235h-707z" />
<glyph unicode="&#x2012;" horiz-adv-x="1013" d="M176 502l21 235h706l-20 -235h-707z" />
<glyph unicode="&#x2013;" horiz-adv-x="1126" d="M176 502l21 235h819l-21 -235h-819z" />
<glyph unicode="&#x2014;" horiz-adv-x="1239" d="M135 502l21 235h1013l-20 -235h-1014z" />
<glyph unicode="&#x2018;" horiz-adv-x="481" d="M137 885l21 225l176 322h190l-90 -322l-20 -225h-277z" />
<glyph unicode="&#x2019;" horiz-adv-x="481" d="M117 887l90 321l20 226h277l-21 -226l-168 -321h-198z" />
<glyph unicode="&#x201a;" horiz-adv-x="481" d="M12 -322l90 322l19 225h276l-18 -225l-168 -322h-199z" />
<glyph unicode="&#x201c;" horiz-adv-x="829" d="M137 885l21 225l168 322h198l-90 -322l-20 -225h-277zM485 885l21 225l168 322h198l-90 -322l-20 -225h-277z" />
<glyph unicode="&#x201d;" horiz-adv-x="808" d="M117 887l90 321l20 226h277l-21 -226l-168 -321h-198zM465 887l90 321l20 226h277l-21 -226l-167 -321h-199z" />
<glyph unicode="&#x201e;" horiz-adv-x="808" d="M12 -322l90 322l19 225h276l-18 -225l-168 -322h-199zM360 -322l91 322l18 225h276l-18 -225l-168 -322h-199z" />
<glyph unicode="&#x2022;" horiz-adv-x="624" d="M119 440l35 400h419l-34 -400h-420z" />
<glyph unicode="&#x2026;" horiz-adv-x="1536" d="M82 0l22 266h308l-23 -266h-307zM594 0l22 266h308l-23 -266h-307zM1106 0l22 266h308l-23 -266h-307z" />
<glyph unicode="&#x202f;" horiz-adv-x="362" />
<glyph unicode="&#x2039;" horiz-adv-x="604" d="M135 612l215 424h219l-159 -424l90 -424h-224z" />
<glyph unicode="&#x203a;" horiz-adv-x="604" d="M96 188l164 424l-86 424h219l142 -424l-216 -424h-223z" />
<glyph unicode="&#x205f;" horiz-adv-x="453" />
<glyph unicode="&#x20ac;" d="M72 475l57 191h109q2 27 12 137h-150l58 190h116q25 147 63 237.5t99.5 139.5t133 65.5t186.5 16.5q41 0 119.5 -10t101.5 -19l-70 -237q-98 20 -200 20q-63 0 -97.5 -41t-56.5 -172h305l-55 -190h-273q-10 -125 -12 -137h246l-53 -191h-201q0 -145 30.5 -196.5 t100.5 -51.5q103 0 236 31l-23 -250q-98 -27 -233 -26q-197 0 -292.5 105.5t-97.5 387.5h-159z" />
<glyph unicode="&#x2122;" horiz-adv-x="1658" d="M150 1247l16 187h975l47 -400l108 400h355l-92 -1037h-211l75 856l-170 -514h-200l-68 514l-76 -856h-213l76 850h-184l-76 -850h-221l76 850h-217z" />
<glyph unicode="&#xe000;" horiz-adv-x="1025" d="M0 1025h1025v-1025h-1025v1025z" />
<glyph unicode="&#xfb01;" horiz-adv-x="1112" d="M-92 -352l20 231q70 -8 127 -8q55 0 78 19.5t27 72.5l71 830h-133l21 231h133l8 82q20 205 103 275.5t278 70.5q190 0 365 -37l-21 -231q-145 35 -313 35q-86 0 -108.5 -20.5t-28.5 -74.5l-9 -100h521l-89 -1024h-272l68 793h-248l-72 -820q-16 -197 -95 -266t-259 -69 q-80 0 -172 10z" />
<glyph unicode="&#xfb02;" horiz-adv-x="1167" d="M-92 -352l20 231q70 -8 127 -8q55 0 78 19.5t27 72.5l71 830h-133l21 231h133l8 82q20 205 103 275.5t278 70.5q92 0 170 -18h272l-94 -1074q-6 -61 -6 -75q0 -33 12.5 -46.5t45 -13.5t73.5 8l-18 -227q-76 -16 -188.5 -16t-156.5 51t-44 166q0 27 4 96l43 490h-248 l-72 -820q-16 -197 -95 -266t-259 -69q-80 0 -172 10zM526 1024h248l17 188q-55 6 -119 7q-86 0 -108.5 -21t-28.5 -74z" />
<glyph unicode="&#xfb03;" horiz-adv-x="1934" d="M1509 0l88 1024h272l-88 -1024h-272zM1603 1198l20 236h293l-20 -236h-293zM606 -352l20 231q70 -8 127 -8q55 0 78 19.5t27 72.5l71 830h-133l21 231h133l8 82q20 205 95 275.5t245 70.5q104 0 221 -25l-18 -231q-94 23 -172 23q-90 0 -96 -95l-9 -100h222l-21 -231 h-221l-72 -820q-16 -197 -95 -266t-259 -69q-80 0 -172 10zM-92 -352l20 231q70 -8 127 -8q55 0 78 19.5t27 72.5l71 830h-133l21 231h133l8 82q20 205 95 275.5t245 70.5q104 0 221 -25l-18 -231q-94 23 -172 23q-90 0 -96 -95l-9 -100h222l-21 -231h-221l-72 -820 q-16 -197 -95 -266t-259 -69q-80 0 -172 10z" />
<glyph unicode="&#xfb04;" horiz-adv-x="1989" d="M1529 207q0 27 4 96l101 1131h272l-94 -1074q-6 -61 -6 -75q0 -33 12 -46.5t45 -13.5t74 8l-19 -227q-76 -16 -188.5 -16t-156.5 51t-44 166zM606 -352l20 231q70 -8 127 -8q55 0 78 19.5t27 72.5l71 830h-133l21 231h133l8 82q20 205 95 275.5t245 70.5q104 0 221 -25 l-18 -231q-94 23 -172 23q-90 0 -96 -95l-9 -100h222l-21 -231h-221l-72 -820q-16 -197 -95 -266t-259 -69q-80 0 -172 10zM-92 -352l20 231q70 -8 127 -8q55 0 78 19.5t27 72.5l71 830h-133l21 231h133l8 82q20 205 95 275.5t245 70.5q104 0 221 -25l-18 -231 q-94 23 -172 23q-90 0 -96 -95l-9 -100h222l-21 -231h-221l-72 -820q-16 -197 -95 -266t-259 -69q-80 0 -172 10z" />
</font>
</defs>
</svg>
